<mxfile host="app.diagrams.net" modified="2023-09-25T14:38:26.064Z" agent="Mozilla/5.0 (X11; Linux x86_64) AppleWebKit/537.36 (KHTML, like Gecko) Chrome/116.0.0.0 Safari/537.36" etag="c1NZ1I4M7G0hv2bwpeap" version="21.8.2" type="github">
  <diagram name="Page-1" id="CnSRl7P7hM0FLOTinmG-">
    <mxGraphModel dx="1364" dy="771" grid="1" gridSize="10" guides="1" tooltips="1" connect="1" arrows="1" fold="1" page="1" pageScale="1" pageWidth="827" pageHeight="1169" math="0" shadow="0">
      <root>
        <mxCell id="0" />
        <mxCell id="1" parent="0" />
        <mxCell id="sWyO1wzLqtYaaO_CrvdH-1" value="" style="shape=image;verticalLabelPosition=bottom;labelBackgroundColor=default;verticalAlign=top;aspect=fixed;imageAspect=0;image=data:image/png,iVBORw0KGgoAAAANSUhEUgAABG0AAAInCAYAAAAifaT3AAAABHNCSVQICAgIfAhkiAAAABl0RVh0U29mdHdhcmUAZ25vbWUtc2NyZWVuc2hvdO8Dvz4AAABQaVRYdENyZWF0aW9uIFRpbWUAAAAAANC/0L7QvdC10LTQtdGZ0LDQuiwgMjUuINGB0LXQv9GC0LXQvNCx0LDRgCAyMDIzLiAxNjozODoyMSBDRVNUPX03IgAAIABJREFUeJzs3fmTJOd95/f382TWXX1N99wDDEiABEiQkChSt7TSrtYb2nXEOhQOK3xshP8G/1kOh+31GWHZli1pxRVXNCleAkEAA2DOnum77iPzefzDk9mV1WcN5qrq+bwQje7p7qquysqsyudT3+f7GO+9R0RERERERERE5op91TdARERERERERESOU2gjIiIiIiIiIjKHFNqIiIiIiIiIiMwhhTYiIiIiIiIiInNIoY2IiIiIiIiIyBxSaCMiIiIiIiIiMocU2oiIiIiIiIiIzCGFNiIiIiIiIiIic0ihjYiIiIiIiIjIHFJoIyIiIiIiIiIyhxTaiIiIiIiIiIjMIYU2IiIiIiIiIiJzSKGNiIiIiIiIiMgcUmgjIiIiIiIiIjKHFNqIiIiIiIiIiMwhhTYiIiIiIiIiInNIoY2IiIiIiIiIyBxSaCMiIiIiIiIiMocU2oiIiIiIiIiIzCGFNiIiIiIiIiIic0ihjYiIiIiIiIjIHFJoIyIiIiIiIiIyhxTaiIiIiIiIiIjMIYU2IiIiIiIiIiJzSKGNiIiIiIiIiMgcUmgjIiIiIiIiIjKHFNqIiIiIiIiIiMwhhTYiIiIiIiIiInNIoY2IiIiIiIiIyBxSaCMiIiIiIiIiMocU2oiIiIiIiIiIzCGFNiIiIiIiIiIic0ihjYiIiIiIiIjIHFJoIyIiIiIiIiIyhxTaiIiIiIiIiIjMIYU2IiIiIiIiIiJzSKGNiIiIiIiIiMgcUmgjIiIiIiIiIjKHFNqIiIiIiIiIiMwhhTYiIiIiIiIiInNIoY2IiIiIiIiIyBxSaCMiIiIiIiIiMocU2oiIiIiIiIiIzCGFNiIiIiIiIiIic0ihjYiIiIiIiIjIHFJoIyIiIiIiIiIyhxTaiIiIiIiIiIjMIYU2IiIiIiIiIiJzSKGNiIiIiIiIiMgcUmgjIiIiIiIiIjKHFNqIiIiIiIiIiMwhhTYiIiIiIiIiInNIoY2IiIiIiIiIyBxSaCMiIiIiIiIiMocU2oiIiIiIiIiIzCGFNiIiIiIiIiIic0ihjYiIiIiIiIjIHFJoIyIiIiIiIiIyhxTaiIiIiIiIiIjMIYU2IiIiIiIiIiJzSKGNiIiIiIiIiMgcUmgjIiIiIiIiIjKHFNqIiIiIiIiIiMwhhTYiIiIiIiIiInNIoY2IiIiIiIiIyBxSaCMiIiIiIiIiMocU2oiIiIiIiIiIzCGFNiIiIiIiIiIic0ihjYiIiIiIiIjIHFJoIyIiIiIiIiIyhxTaiIiIiIiIiIjMIYU2IiIiIiIiIiJzSKGNiIiIiIiIiMgcUmgjIiIiIiIiIjKHFNqIiIiIiIiIiMwhhTYiIiIiIiIiInNIoY2IiIiIiIiIyBxSaCMiIiIiIiIiMocU2oiIiIiIiIiIzCGFNiIiIiIiIiIic0ihjYiIiIiIiIjIHFJoIyIiIiIiIiIyhxTaiIiIiIiIiIjMIYU2IiIiIiIiIiJzSKGNiIiIiIiIiMgcUmgjIiIiIiIiIjKHFNqIiIiIiIiIiMwhhTYiIiIiIiIiInNIoY2IiIiIiIiIyBxSaCMiIiIiIiIiMocU2oiIiIiIiIiIzCGFNvL8+cLH01zmrH+LiIjI4tDruIiIyHOh0Eaer6cNX4rhztHP+T+818mfiIjIotBrtoiIyHOj0EaeL/MirjC7Up0EioiIzBe9NouIiLxQxnuvl1t5dfK9z5zwveL3T/qeiIiIvDp6bRYREXnhVGkjr9ZZocxpJ4Cn9cw5OtXqafvqiLwOdFyIyPOioEZEROSFU6WNvACeWc7kXP452wNN9r+z8pbDa/XZxCkzmUBljv5pvQMoctyR40KHiYiIiIjI/FJoIy9OFqA4wkeafctln8fAEBikMExSBqln7A3j7GeJ97gsjjF4IhwlYygbQwlHNTJUophqBBUDJSBmEuBYIOL1Gogu0sH8Oj0ucyc7Nk/q/X3e46LHbbGOM3jNHzP/bMVl9jXZeM+6TxffUJn+hoiIiDwrhTbyXOWhTDGYGQDdFFqjlIPekINuj1a3Q3c0ZK/fpz0Y0h2P6SaOgTOMDCQYRh4cBo/B4olJKWOoGKhaTz2y1OOYRqnESq3GaqPOar3OWrPBarPBUglqBiqEMMcyCXIukjwQy8Ouk8zbQW6YDtiOzojLQ7diACfPVwokwIhJ1dtZ+0nxcSqKCI9lzMU7tk6SkIXKhG0478wpHxz5nB9nlotzzBUfq+RLXN4S3gwoviFw0eSv2UPCNvoyAZchbKOyg9gc+YGIiIg8M4U28tx4wklfG2h72O6l3Ntv8dnOHnf29nnY67M3dPRST5qmOAsj77PBjyHBkBqbnUQavA2BjTdgPNjwL6wPVTeRJ/saYmMoGSgbw1Jk2KhWuNWs8pX1FW6vrXBjeYn1WswK0KAwuJxtJtdc6wF32z1+tbXHXmrwxmR3Kxzafk7unzUGYy1RFBEZQ9kaYu+pRDGVUky1VAofZUM9CmFbCagCZU6pmroAj99Ll22zNvDLrQPu7LfoGwsWwqvB6RvUFF4tvAGPYdWnfH3jErdX6zTzS1+0x6VQNbifwkebO9zr9eja+Y+p4vx4i+PsedJQjizVcplKqUQpjqiWoGqhRjjuaoRjb/7v3dm2U/hwe58HB2360en35rTikNh7ai7hWzeu8dVmhfILu6UvydE76mFk4HFnwE82d9h14Gx4DZ462M8QeU8MvFmv8P7lSyyX7MLvNyIiIvMmftU3QBZXscJjAOwlcL/V51ePt/n4yTZ39/bZGo5peWjbiG5UYmjLJFGEicP5Y2og9WEAmFfVAMd620zeHfb5jzHeH34/wmLxWO8opwnV1pD6Xovm3QesxoZrjTq3lpq8f/MGX9tY51qjzHJhWtXCTaMqDIr7wIfbu/yPP/oFdwYpqTFgwpQynwc3r+yGThhjMNmNNnhi44k8xIRBZCmKqMYxzWqF1WqNS40Ga/Uqlxs1rq80WalWqJUMNQtVE4Kc2Id3djVIeHpbDv7iw4/5/t2HHJgYZ8H5p0hbstDmhk/5V9/+BstLb1OLLu6LSv5ctDf2/M3Hd/jrew/ZiUqv+madyxgbppcasuMNYmsoRxGluES5FFMvRzTimCvNJtdXlrnabHC5WWelWqYeQS0KQU4ensL8V+J4YGeU8JeffsH3P/mMg/iUyMUUnk6L/dWAsnesJSP+63/6B7zZvLL4oc1RJrzRcu+gw//wo59xZ+RIoojEz1J7F+TB+j+5cZnrS03qpaqej0VERJ6zi3p+Lc/DGY0uPKGcup3A3d6AD3f2+eHmFr/cabE5TGl5S9dWSSp1UptX0eShTBi6H4YyJn/X/uSbMB3aFG6ImVST4G3WmNhgbYSNy1iqGO+IvKc8TGn2O6xt/ZI3alW+fXWd71zb4OtrS9yoWOo2onL8bs4ff+RrEwKzg7jC3coSH9oYZw0uG4H4uYhrTmazYAmX7xUO6yDqOEqdNtXtNhXvqeNZq5S4slTnylKDN5bq3F5q8FazxrVyTLMcUTGTKXByjiwofTSCXyaWO7VLbNsSY0O238wiHJneQ2vc5/bI890UrkZZAHrRKm0KOtbwuFTns9oq90vVw2NsEknOj2LPIkN2zOXFtXnonUA0Sim7AbWdPg3zhKY1rFbLXF5u8vbaCu+sLvN2o8r1SkytFFGPQoAz18ebh46NeVhp8Gl9lSel2lNd3AD1NOF60me3VPtS06vmzgk7aAL0ShUeVJf5VWzpW0P6FDty2TvqeL5WqdOzEWNCtZaIiIg8Pwpt5GQnBDaeUFnTB/bG8Gmry883t/nxg0d82urx2EM7KjOIqgyNZWSjwzDmWPhSaIR6VqyQz9Y4eRKfP6zMyQdO1tjQZ8IAhL9PNp2q51LazrHVG/PJJ/f4D/ce8d7GCr9+/TLfurzBW80KzawHzmn9O+ZKdgNTYGwiBlGZno9JjMGZ+Q5svPcYmw1ybf74eSIM1nusc8R4Yg8l73iQOEo7bUrb+yzh2CjFvNmo8fbaCl+9ss6tlSbXahUulaBOePd3rgeUr1hi4FFnwMNhykFUpm3LjI3Dm1n2+iywyf61l6Z82u6xM0hIyjElwqpuF1ViYGgjelFMJyplW8IcD5XnRf78faSKpPhjY1Ni7yl5HyrYXErcT4h7u/zw0RbrkeGNepW3Vpa4vbHGOxuXeKNRPTze5jIwzULIgY3p2ZhO9HR1MoZQ/TnwY8b5lKELyBGCm4GN6UYxvacObVK894xshLvIB76IiMgrpNBGTpeVw+QnqwnQTRy/2m/zw80tvr+5x886Y7YddOMlRtaQGIsz0yENMJn2lA9xZghs8ptw+i+Zwx8aU5wGNKnkIZt6lXiLs5ah8RxEJba94553/OOTDv9+r8/vre3yxzev8MGVNa7Xy1PTAObKCU1dDAbvTahuOLIq0Lwy2Q4wtXqRMSQ+m0YVRceaKhvvsYQ+E3e846edlEZ7m+sPt3hnqcYHl1b41voqX1+tc7lWpVEs9zjs8yMpYcW2B3stdoaOgY9IjQmPCbPuO6GuxGMYRSUeD8bs9PokS0s4c2QAf4E2fF4Z6A6fmCZ3zs/pnTzamuTo4+vxYCypCU2pu4CJ4sPfLDnH5z7lZz1o9FpsbB7w3tIm39tY5oONNd5ZXuJyvUw9f9DnbjM8WwT/NEfF4grHs/HTU1jh6e753D30IiIiF4RCGzlZHthkc957wP2h48cPNvn+Fw/42X6XTWfZiyoM44iRsThjDleNOi4/AfSFqVFm6meTP3z65Y//zkm/f2SU6Cen3WGwZXDGkHhLaiz9cULn0Q6f7Lf5zZ11/uCrb/CN1TqXClU382u+b91pjj+a5tjPj+1H2f7ljCfBMvKevnN0kzEPt9v8fKfNmw+e8M31ZX79xlXe31jjatXSJARwc1cJ8IokhEbhjzodOt6TmHwiXbE266z9qjCM9Z6xMeyMxjxqteldWaJqjrywLOYueiZz2LA5v3PzeycnXcAm/5pmpn63uA8YYGwh9YaRhaGHnkvY2evwSavD9x9u842NS/zGzau8v7HC5TKHx9u8bJEwHezpQpeTqpEuuuJWMmd8T0RERF4+hTZyssJqKT3gl3td/vLOXf5mc4dPhp7NeIlRbBjn784fntFNyjzM4TSK6VPA6UHEkT947o066bIQhuSefPHi00IBX/jsDCQmomdj2nGFR0nKF1884bP9Nn/65jX+4K1bXCvN2UFykc6gC9M2zq6ompZmH2NrGRhLJ4qwpRr3vefTUcLPHu7xk50Wv7Wxyu/eusa3N5ZZLi1Iz6KXYAzsDBM2Oz16xpBa8MYVIptZtlJeweQYG0PbeR62WnTdDVYtF3pDh5XsTg4bz/cqDuCjIffROsijfGHUbnDYw15HIwPdKGIvrvAYz6fDMT99uMvPd1v87pU1fvfWFd6/tMTSnDSk/jI1UEe31tM8N10ExwKbSUHr7C5QdZ2IiMg8mIfzKplHWYXNDvDDR/v8rx/d4Se7LTZ9CDjGWdUDTKYhhU/FszvHLO9Z5lNjzNQ7137qRDH/neJ4YupnUxOj8r8zGZwcDXGmTkxNNmXEGB4SMdzv86T7BZtDz7985w1uVaHxGp2EFk/UX+hdPqPHhj/6a6b4RRYF+sn+lu+LfROx5csMeyMe3Nvmw70Ov3/7On/w5g2+WrNUCU96F/6hPCMbGANPun22ekP6RKR8mZQlHwgbvLGMiHjYHrA18lyNT5mfd+E3+nmO7tUva4P46a+MA39e02Q/VaE4dVB6cHjGQNdGJM7T7w6598UmH+4f8Cfv3OZ3bq5z3YZKxbmcZnqGi5SLzy57rTThTRZ/9EciIiLySim0kUPFYcQYOHDwN3ef8G9/8RE/Hji2oho9WyIxhpRidc0R+VuTxTRn8oOTLzA1gD9ezm6g0EhzehBipr5TDGuOnG2eEUQ4YGQtSbnGwDk6SUL/k3skgx7/6pvv8E4tms9mm8+ZP+NfX87Jj/mZu86Jf9+E3cTnoVseGRQHloaRMYxtRD8qsescu50h9z/6gkfbu/zH732Vd9ebNAmNig/fQX+9RmcMgUftLnujhKEpP3PzUIclMfC4M+BRb8S7da0dc5riSlMvy/TEqMIT7bHDu1ADWXzuLuwfBrLm8obUg7MRQ2voEbPrUvb2emz+9CO29q7yp+9+lTcqhjqv3SG2sI62r9fjJiIiMh8U2sih/Dw+BZ4A/+7eY/7bDz/hp/2ETqnGIIoY+ayqwZzSd+TEazw+Mp6MGQwWj82mHFhTuFZ3fIa9LzQcDu8ImsPwqPBG8LFbVgx9jo9VJgP/1MPIWPbjmF8lKeOHWwxLMX/+7m1uVGMaZ97fxVYoZClspGcJbvJH+eiEg5Ove/Kni3tHoVLKn1+nn0/ASww4a9g2JbppwsHmLveHI/78g2/w3Y0GK2T9iopXeZFGKKdsKg90PNzv9OikKT6yJx4vTyNMM4SdJOFhf8iAyuuYhZ2reHwdTgl8WX+X8MfzQObYYX7st09+zi7m8aZwmdR7hsbwJCozGI7Z/fgujwZD/vMPvsE7VUODVx94f5lZPiIiIiLzQKGNTJ2Bjwmrh/z95gH//c8/4qdDz5NKg8RYUrKlQLOz3zNPgP1Jg/Ow+o/1ntg7Ih+G5yXvKTlPyXhKeasMILY2GySY8A6g92HlFjyJcyTekJjw4TCkJqxeFT6fehePKfam8HhSY0iNZbdUYpQm2Dt3Wbaef/nNd7gdXcSmtuFxibwjci5MlvGTnkRfXnEiGkwP87LPU+Ff2O6h2fD07+f700wDXRPyPm+gZyIGUUySWHp7PXp/9/8x+O4H/N71VVaBan6l/gLGDCccAylwkMCjwZCe8yTRsy8M74HUQCt1fL5/QOfW8lmpwGvP+LACWuTDMtvwYve8SfxppsJ2nz1nuiz49qfFGiccGsemqGYrv/WiEiMbMUwMg7ubuOGQ/+I3v8PXqxxOTXwVTJj5UyzqFBEREVkYCm1k6gy8A/xsu8P/8uEn/HRk2I8qDImyQXBe8XD2VU2msEyqYQwe4x1lY6j4lCVSlmPDWq3C1XqTa7UGl+pllqsx1XKZWqVC2UZE2TjCeUidZ5gmDNOEwTCh1R+yPRryuNNhdzBkuz9kf5zQJaZnYjwe5/MJVAZXXBN7+m4fVhvY7K1kD4xNRDsyfDZK+bd3t2g2myzfvsZK1qvhorBA2XsuV0pcrZYoOY/1k1qmL+9oaONJ0xTvffZYpow9jJxj5D0j5xkay8jEjL3F2QgXJuJhvJtpSeqw/+WLUYf+DM57ujbGxfAf+n36P/o50Xff53evrVEi67nxjFOE5l4WYiXAk+6IB/0RfROOiecR2jhj6BvLvYM27QRGpTAFzV7wzfo08n2z5B1NC1eqVS5FNux//rwUfHZ5wO1Sh/OOcZqSeB+qCJ0n8ZAYy9h5eoSG3glZjzJrcD49fJY8zN5Oq1IssNnrw9gY2nGZBxj+j0f7+H/4Jf/m21/n7YZl6RVVtVljiIwlPZz+o+hGREREFodCGwHCO/Aj4LN+yl/cuctP97vsRjUGJiI1s9VcHP258RDjib2nQcJKZLhcrfDmyhpvX1rh9voql5sRlyIOqx7yXiMWTmiPakgp4SiFwQFLdIE2sO/gYSvlztYud3YOuN/pszsc0XKOHoaBBxMZnM/H5yePGopvKjsMYxPRiit8PEr4vz69x7Vmje9srHDZLF6DzdNE3lP3jt+4foV//c3rLFuI/fHI5Vl5D86Fz4mD3hgGqac7GtEdjdntdHnS7YXwrTeiPU5pJSP6wABLYizO2jOWlQ+O3+ZQjdWzMa5c5x8Hff67n35EqfRtfme9wRJhv7twijuzyfo2eXjS6bE5SBjZKBxk7tmrjDwwjmIedbrsDFJGpegCVqQ9q9CUqeQd1ysV/vWvv893LtkQbrlzLzyzPGBxLjy0owRGDoaJpz8OYXdrMOCgP2SnP2SnP6A1GNFJxuF49I6+MaQmKlThFK7/xHtWmMKaPW+2oxCW/9WDxzSt4c9+7V3eq2Rh3vO7uzMyU7dRREREZJEotBEgWylqDP/+/mP+3502m5QZUGaMmz2wKYz78mVx695zqRzzzaUm37m8xvtX1nl7JWLDwBJQJuyEEcXqnOmvOfJ18W+6/MNCdzWitXqZrbcv88XBmH/Y3ucnW7t83OqyOU4ZeIexdqqHzbTwV4tdczwwsDGpifnxQZe1zx5zqd5gtREfhkuLLvKepkt5i5Q/jGAdqL6od8KzpMsBSRUSDGMqjKkwpEkb2B3DVivl3n6bj1st7nR6fN4bsjNO6XkOlx8+TV5HVVzoN1SZGHpRzBZVftAb0/jwDuvvv8N7azVWLtrsqFNmuQxTeNLrsZ16Rtbg/UkrvJ3upGFvfqyOjGFnMOL+3j6jpfUw9UymGGMopykbbsQ3I8c/MZYaUHoBCfDhY1QJoXw41koklBjQZAi0Hez0Yasz4H6rzWftDnfaXT4bjNhLPD03XQTk4VgDeoPJvmnAuKzCDcbW0LIV7o09/+eTPda+eMjlt66yXo4uVKWiiIiIyIum0EZwwAHwk902f/35Az4bOnpRiaHx2eSU0xwZumVzpyKg4VLWLby32uS3bl7lN65f4is1uATUCdOLykwqap5JNuAuZ9e9ZuH2Won31i7z27cu86PNHX5w9yEfHnTYTRzjqJwtEW2ySOq0+zTp1+ExbNuIv3u0zXurDW5+7SZXDJQvwGA/TF3zxC6l6qFmeCkD7jxwSwtfrwM3SzBejxisr7LDKg+G8OGTNj9//IRf7h6wORjSMpbERKQ+OtIXJ/BHG3FkqaIDhjZmxxl+uLXPtTv3qX7ra3yzcsF6FZ2wTybA/jjl4UGXduJICgHmrE57LvCE1dfaiefu3j79N9dp8Josrz6jYgAdeU/FO+pAjRf/QjwVcBP2hRRILLzVgFGjSv9qlR0uc78Lv9ze4R+39vh4r8PD/pA2FmfC8vBj70O1m8kCu1OmTnkMCdCJSnyWJPzV5w+4XavwO2+sc5XCKlXPawc5YerVJGzyuMNn/fD/Z58YKCIiIvJyKLR5zYVpRvBw4Pmre5v8Y2vATrmRNaicdULUpPA89EeBW/Uqv3N9g39x6wq/1YxYj0KgklfUnHRNX/rcPbtgKftoZt++AnytBt/6yjrvry3zv9/f4q/vbbKVwhhz2Hvn9HFruF+hMa6nFZf4Ih3zt5/f51uX11lZq1L+srd5zr2MLCoP7IpPQsXVuRzwBvCNCvz2G0t8cmWJv99r8YPHO/x4Z5+dXkIfSL3JBpF5jdTJNVS5xFja1nDfOf6frQNuPdri1s1LLJci7Eu55y/H9D3xJBh2RilbvQF9ItLnPAFuhKFnLXd399n3sJqFmsZcnG36zA6nGpnnPv3wnD9LxGRK59FKlzz0vA18qwG/31jnk6vr/HCvx99ubvEPOwccDFKGPkwx9fjD583DKsjiyn8ZB/RtxNBYftHp85d3n3BtZYX15XgyJdEXr4Rn3yhH81oTmtc7PMabrMMa2WOh4EZERETmn0Kb15nPVn0Bfra1xw8e77KTvZs628msKXwVetcsp2PebVb4F197k39yc4WvxLDBpI/Baefjz3Xwkt30KKu+uQb83mqJ9eYNrpdK/N+f3efeYEQ7KpMYU2hOebYUQ9/E/KLd4y8+f8DN1bcpmWzp6CN/W2PUZ5cHOvk0tG9U4Oq1Zd5fX+bvH2zxV58/5JetAR0fM7QxaVY5dX7YCGDo24jPhgn/7u5DvrZU5YP1JdYKAeSiO9oPagA86A/Y6vZJibLpY6esGPRlWEviLJvtHlsDuFXLA9GLskUvrnxPiH1oHh0B71Xh6vU6767f5u8f7fLXn97n49aAfRvhjcVmyYfH4I0/9Vk0b1S9ayx/t3PAVx5ucq1+k2uxmazeVvz8AhzGSWa64bNRxY2IiIgsAIU2r7kEeNh3/ODz+9wZOdpx+dyeIRPZgM9DbDy1dMzXl+r8+ftv80fXGrxNtsxr9s7nyz41Nh5KJgRGdWAphtWvXaZaLvO/ffgpnyYurC5UmF5z2l3PBx4ja9m0Zf76wWN+88YGG1dXJisQHb2AxqrP7LAax0PdhOl1V0pw+83LXFla4n/66HN+vtVmP1+y+9wKsbyfkWdgI4be8PP9Nn/3eIfra0us2LPDxUXWBx50B+wOxzgbT/X8eXahci0xlt1xyoNWlw9qDQ2HF4wFrIc4myK57mGjDG/evsTlRpP/+cM7/Hhnn9SWcEQ4wzlTaANPmCb1qXd8//4j3ltfYunyyovrnXXKbQAma3+Hf2SvYtpTRUREZH5dmBYO8vS8CUt8/2Snxc+29+gaS2IOi8dnFuNoJCO+VbH8Vx+8x390rcGbhJP+Ypjx0s7PTeEDwIfb0QTesvCnb67wz9+6wWWbUnXJ5HadEiz5ws880LeWR8Mxf/f5fbYJg5apv138LM+FMZMpHg3gloU/Wq/yX37jq/zaWp2ldEDZu6lVx05+CPzh1I7UQGItjxPPDx7v8ul+jz7wHBfymRse6KTwoDeg7RwuWxHu3N007y9rZtulUw/7qeOT7R0GaJ2e03g/WeVprhSKrwyh6qYB3AT+ZKPMv/nWO3xnpcHSeEicLQ3uTz/YpiTG0jOWj1t9frC5x3Z65LnzJfCHH8XWyiIiIiLzTaHNa8oTlvjeSuFvP3/IgzEMbN7nYnYWqLmEW5WY//TXvskfXy7zBrBCoQnpPAQYPlTcrALvRvAn71zjezeusORTrJ++iWedxnsDIxvRtiV+/GiLj/aHxwen83B/L4rjbTIoE1Yeuwn8/lqZP/v1b/J2vUTdjSkT3kg/7yEIjVlDL5y2jflFq8ePHmyyNfaMn/+9eKU8oaJub5hyr92lB6RnTGcpMj5UXsyyTcHjraVrI+7s7Ie/A/i5TCdetRN27HmT3bwysAzcAv4aff8GAAAgAElEQVRgLeY/++63ebteoZwmRD7v0HP8okdbuqfZc+cWET94tMNnB30GvLqQVNU1IiIisigU2rymHDAEPtru8NOtPdqlKqmJDt+Bn0W+CsqGS/iTt27xxzeaXCdU2Fh4unHJ8z5/Ll5f4Z3gmDDg/3oZ/tmtK3ylXqGMIfaTVVCmK25M4foMHktqLH0bcXec8oO792kTBsXyHBXnq52SFtQIq0397rLhz77xVTb8mFIyCs2Ez92fzOF/QxuzRcyPN7f5VadP/znejXmQH+u7gzGPu32GxuKMP7MPSS4GKhhKmHOCG3/4t/pxiXutDls9F44LoxRzIRUaDUdA1Yf+ZL+3DP/JN9/hamSpeR+Cm8JulFcmkq26V/guEKZJfdIb8uMHj9n1r/a5M6u7e4W3QEREROR8Cm1eUwmwA/zgzhc8cdCzJdxTrmcSe0fDpXzv2mX+9GvXeYMQiEw1SnoV47UzKt8Nk4qb723U+M2b17hkPBXnJgeDP36ZYstlh2FsIw6iCj/b3OJBZ8jwed8HOVdM6FV0DfijN9f4rTdvUk+GxH7Wbi3h9xIb0bMxd9o9frHb4sBfrClSjtDP5km3x84oIY3jGfJUj8GzFFnevXqZ1XJMOfve6ZfweGMYErE7Svhid5/huX9H5tIJB1BECEqvAn94e4XfeeM6y+k4NJk/KdA75YEf2phdE/Gj+4/4vJO8hGl0eTwrIiIispgU2rwufP4pvK84Bj7rOn72ZJu2jRlaW3hX9GhTmBMYqPqUW/Uyf/TWTd6LQ++DLx3YPN+eqOfe/BrwhoXvXb3E12olGj7JLjL5f3C0yD/8O8XQjUo86I35aGuX/rHflGcyS37oJ5VTN4B/+u5bvFmvhqopawuXP2l5ZX/4fwekxrLjI37yeI/tUTg+LsrjmQJdBw/22+yPw7LN58Va+cpdG7HhW5dXuVYrUfbJ4YpBxf+C8LXDkNqInoP7rTY9Ls52fO1lq0otAW8Cf3T7Gm9WLbF3RID1hePM5xeZXk7PA2MTpuJ+3h/y8519urygkHTSeRiLIcZiL2ybcREREbnIFNq8Lg5L3U0YxAG/eLLD3cGYYRSRGsKUiUKrxtOFLprLPuG7Vy/x7ctNLhF6HyyKmNCY+GuXKnywvsQSHuuL7xiffWLvjGFgIvYc/GJzmx338ptqCofBTQP4VhO+d/MKSzhK3nF8jtxpQm+bXhTzq/02n+216XNxHs8E2E/g/kGHtreMTcR5qVg+9fFqJeb9tQZvNGvUvCP2PgzOsw/8dHADkBrDwFju7B6wx8WqWpLJc+f7azEfXN2gnu0XxSDw+N41+Y7HMMaw7Qw/eviYXfcyQlLV2oiIiMjiUmjzmiieECfAQQo/fbTFflRmbCwOQo8Lk9cenB3cGOBmtcxvX1njVhymqRxb9npueSwhZLpq4duXltioxEQ+X3no/FIdT1h5qGssnx50eNAZk5ANUFVa8HIUHqIqodrmt29c5no1puISOBZAnj1o69mIR6MxH2/v0mHxw4b8no+BrX7Cw06Pno0Zm/Of9q33RHhu1Mq8U4M3GjVqLqXk/VStwkkNaFMDQ2u43+2z1dfhcNEYwvF208IH16+wUY6IXII/ZfW9ozw+NACPy/xyr83d/eGFqmwTERERed4U2ryGhsC9gz6f7bbo20q2YpSfuXFwyXua3vH2yhLfWFliiUXbkSa1NA3gnUsr3Gw2qHmP9cVFYc/aGAZjDCNjeTRK+Xy/xZBsoK83dF86SwgOv7JW491Ly9TTcagEyZKd6WV+T5Zg6WK5s7N3+O7/wir0GBkCj/oDdvpDvInOaQwc9nuDo4Ljer3K9RK8sdykYcmOj6k/k5nEOJ5QzbM1THjU7TNCA/KLJq+2eWu1we2VJlWXYL2b+anPG8PIRGz1R3y0+YQeCrxFRERETrNYY215akdzGA8MgDu7+2yPHIOoTFroThH+f9K8/8k1xS5lNTK8u77Gm5XQH2ZRVYBb9YivrK3SNJ54qovxOSMID4mJ2HaGLw7a9NJsieMXe5PlBJbw7v/lGN7bWGUZd+TJ7bxHxZBYy8BE3Gu1edhJGLPg1TZ+crzfb3dopSnezNZs3DpHoxRxc6nBVQO3lmqslOLDJZ79VO+no92CDGMTsec8d/f2GXBxpppJEAF1D1dr8PalZZrWY0nPbFSdy/easYnomYiPn+ywiwJvERERkdMotLngpoZoHlIPu8Anuy263pJi8ecu8z0d+5S941qlzO3VZVZtWI1pUc+1Y2DZwu21JS7FnopPiHCEVq3n9LXxnrGxtIm53+qyM0xIWNxtscjyZYmbwNvLDa5Uy0TulFVtzrgWZwxbw4TP9tuTyqlFFNrNMAbaKXy+d0DHzzqkNpR9yuWy5Wq9SgO4VoOrlTJlD5E/GvIWhbDTGcPAGx63enTdq13WWZ6TIzm2AZoGbjcrrMWWOOsJNutVOQNDa/mi3WWzr31ERERE5DQKbS66I71YvYHtAXzR7jEwhvTcwKZ4ReE3K3hu1mvcaFapk68YNePcqjmTLxv9xkqDq+UoC2085swpJBkTmq52jeVxd8Djbn+xp9QslOP7miFbFaxR5cZSkxIQnboO2MlSYzhwhk+39+izwKFNJgXaCdxvdxnYGO/B+3O2hIEynmvVMpdrFRqE3k+3lpuUncN4MNkqUmAK09BgEtrA0EQ8bnXY7iYakF9A1oTnzlv1MuvVEtFTBaTh2BoZw+PhmM/3Owx4katILd5rk4iIiEhOoc1FZ6Y+kQKPuiMe9IYMDXjjsoV6z58+Et5X91SN51q9xFolVNnYws8XjSXchys1w/VamSrZ0rVutpoER9imB+Mxj3pDhrCo+dWCOXlfi4HVElxt1Cl7R+Td1EXOXhPNZ6tIRTzo9g77bMywK8wfH+5LAjxqdXnYGTGOyzMvpV4DbtaqrFbsZJnnlRVinz9XTA+vJ827w9RKh2FoLNv9AY87HYU2F8EJ+00NuF6psl6rcX4fsOmrcsYwtpbdNOWz3Z3nP43u8LXvvAXuRUREROabQpvXiAOGHu7v7bOfOsbG4GY6yS52u/E0Ysv1RpUlm5XDL+KgNpetGLUawc1mnSpgskqEWU70vTEkxtBJHQ97A7r5BTVKeCUiYDmC6yvLNCOLzUKbmXZRDw7DKIp51OlwMAqhxyxFV3PHGFKgD9zd3aeVOEbYbFB99tYwBurWcLNaZTWeVKPdWmlSi8imDxo4rNjJSvgKO74jNOk+GKc8aIUqCrkApguqKAGXYstatUpsLZZZMmt/+P8UwyCOeNTp0OP5T5HKFxkXERERWWQKbS6yIysep0Dfw26vx8B70mysddoprTnyYb0n8p7l2HKzGaZNHAsoFu382GS9GYAbSw1KhXeLZ6m18RhSY+k5w9Ygobfo82kWXL6K1OVGjeXYErvwgBiYWlHpJMaEnWFkDPujEU9aoUJk0XZpCHlKCuwBX+wfMAKc8XhzTmBDmPq0EsfcqpWpZf+uALdW6mzUq6GCyYAtpFk+38D5sWMMYxvTcp67rS4HbjG3o5wie96PgeUYLtVrlIwNO94MIWdYoSzsj2Mbs9XrczB2qsgSEREROYFCm4vsyMlzArTG8KTTZWDsmf1sjp93hxLz2HuW45irlTKV6R+Hj0WsSsgGpVcaNcrWZJU25w8x83jHYRh42B6N6WiZnFfKAmVgqRSzVCodrnaUO+9R9RicsQxTz26nNwltFixxMCZU1u04uHfQZmwtzphzp68YPCU8q5Uy15sN6oTeJWVgrQo3luuU0hF4d1ild1LEGaooYOAtm70he8NwexZsM8o5LFCzsFqr0owsMQaDna1KkfDcObaW/f6InU7vxa2+95T9dkRERETmiUKbi65QCTMGdnpDdvojhjaENkd/9ag8vnAe8J7Yw0op5nJsKb/QG/6S+DDALQFr1ZhGOcbkfVDOOMv3eDAuBDfGMMKwMxrRGqbZtnoZN16OskDZQzMusVwuE2XfP+ybOwOPYeygPQrLfj/NZedJCjzpOp70RoyMzfqFnH1HrPeUfcpatcx6tXy4Mpwla/K8tkSdMcaE0OZwgtQp+/sIw+NBwlZ3yNjrsLiIYpOFpMYTpx5c6Gt0tvDC5LEkRHTGCfu94QtbGn6WSjsRERGReaXQ5jWSAgfDIe1kzMhY3CmnsCdlDsYYLFCxhtVqlbVyhdLRCy7iGXF2m2NgtVpluVzOmivnixqff2GPJwW6ozHtwZDE+2y6iLxs+dLfjTIsV8tEFPoTzbwcsSHBsj8IjaUXMWhwwBC4u9tib5ySGoufoTlP5B11PJcbdS5VYmImoU0V+OrGJZZNqLjLXzymr3V6TuY4ithKHA/bbcZ+8VfjkmmWcLzVSxH1yGYr781++dATzDL0ltZw/OKnRy3iwSwiIiKvPYU2F1xxCJUAB6Mh/dQxMgZnTv7dfJWdI6uFh3fhjWGtVmc5NoWlvlnMwCbjCQOPpZJhpVYjSh3Wgz9j2SCTLXWcBzsOGCaO/ighnWEtLnkxDCGAq0ZQj+1haJP/bNbm0qkx7PYHDFjMcV4CdIHPtvfo+IjE2JnW0Im8p2kN15YaLGdNiPPQpgLcbNRYiyNi77CGU/b08OzhDYyMZcd7HnW6DFKFNhdNfrzVooiaDfvD+StIFXofAamxjIyhNRxPKtueM5/3ymahX6pERETkNaXQ5oIrDlSHwF5/RC+B1Ef40x5+f3J/YYungqNZiYlt/vOLcQpsgJKFpXKJkneFJYxPkw1Ms2aazsDAeQapIzEanL5KxkA5gmYpomYMFW+Inqr0KUzbaPWHC7nqkSdMhTwYw/29A4Y2OhLY5Et2Hx8ex96xElsuN+tUzeQFwhIG5xv10Pspch7rJ6vKTR8t2fezZsidFDbbPbaHSaik0PTBC8UAtVKJehQR+6d7YD3gjGXsoTUchobZz+MGFa4fAw5Pmu3zxud7rYiIiMhiUGhz4U1Oooc+hDZDZ0iJOCmUOD4Am7B4KsZlFQwXJa4J8mk19chS8qHSxpxT5x/62oTt64xh5KCfpIxRaPOqlS004oiKMcT+aYZo4S15bwyj1DNaoFWPihUOY2Cz1Wez22UcRceq6k66dGhCDBvVMteaDapw2BMoPz5WgZurK5Q84Rg5/Lkp/Gb+4bMm3Zat7pAn/RFjCr8mCy/f46qxpR5H4XXh3APGTH3tTKgMaw+Gh5VtX+qYO+WFqxCvZ782XSUpIiIiMu8U2lx4ed8VGDpojYaMska7Z50YFxeDyqdHRN5T8VAvlZ+qb8G8K97HWqWMdY6w+vPpdzK8gxsG+CZrsNr3CZ3xiJEarr5yhtAgFTwJ6QxTNqZ5YJQkpAuUvpnisQ48OGixP0oYR/EJU6OONyG33lPFc61aZr0aKmuKLxAR0ABurC5RJsW66QXRjw+EDR5DimF3NOR+v0vv+J+WCyCOoGRnWzUKpvfVfBWp/mjIONVzp4iIiMhRCm1eA/mJ8chDz7nQKPdLXE9sDPUoplEuX8hxVwTUyxUiA3iP82eN2CcVBSYbnI68pz8ea5WcOZBP5wnVHk/3eOQzqRLvSBao0ibngB7w+e4efWOzfjZFJ9fTWTx167nRqLIahUqa6Z+Hvja31lZZii3W5Wv9FCJeP7leY8xhf6CDccIXnS7d6T7FsuDyRzu2UI4s1jBDQHpk//PhMuM0HG8vinY7ERERWVQKbV4DeQeLgYNe6klnftjN4YlumgUYFQv1ymQp5YsiH0LUyiXifDBxRjlRcTWi0JfB4LAkHlKFNq+cBUrGfuknOAek2SpgixZQpsBOAvcPugyxJP54u+CpSUw+TI2KvKNpDW80Gyzlv1gY6VqgDFxtlrnSqFH26eFUmKmpJ9k1ex8Cs8QY2s7zcDimnUzlOnIBWEJok1fazDLt6HCpeCbPpQ77wqaVKrARERGRRabQ5jWQhzbDFLqJI53p9PXI9AljwTtKxlA+PDnnwpwJ5z07qnFMyYZ+HLNcJt9KHkPqYZSkC1mdcTHlQYKfeT2vw0KQrGhkrh/HozcuW1I7BbZ7KZu9AeMoCpPDDisg8g4fE8aEKX4x0CzF3GjUqJ3wt/Jlv5cjuNZsUPKOSTPuw2srfA5b3hlDD8O9do/t3ogE9Xy6KA6nlvowvc48ZSPi/DrAkGRVcSIiIiIyTaHNa8IDgySl5z3pl3yb2xBK4MuxnQos5ntkO5u8p03JWqx32KcY6OdbwuEZp+mXnn4mz5c/7Jbx9P1sFmYWz1T6EsKQMfDg4IC9dEwSgbN+OrDJAqnitDEDRB7WKlWuN+tU8m+aqasnBpYiuLW2QrVwjIRrNocfRQ4YmYgnw5Tt/pgRC7Bd5ankz5+z97SZ5oEET3rSL4uIiIi85hTavAbyiphBkjJMHW6mU2s/9VXelLhsDSV75KT7gkx1MEApjoizyoOn5XwIbdIv8W6zPF+TRa3NCXvyWZea/M5kDaTF4YGBh/v7LVrO4GxUaPla+CUILWiyf0YeaniuLtVZr5rQD8gfmeeXrRhVB24tN1mOLJF3WMBiwrJBxk3FNt54vPGMrWVvlPKk26PrmAzOFyIZk1nNuibTkd3qsKpNu4KIiIjIcQptXhNhNZyUoctL0Gc5PS78Tpb8RCb0L7BT378YDBCZfNAxe+MNUxhuOO9DL5QXcxNlRg5InCePELyZPbDJp/pExs53aHN0F/UhDGmPPQ9bHTqmROKK+3P4PDWt0YT/RXiaPuXmUpOGyZo4G3O82saEZsRXqhXWyjGx90QeIh/acXtSjPdhOfBCv5uxsbRSeHjQ4iBBFRUXTPHoOu+Z86Sph5OOSCIiIiJylEKb18BhM2HnSJwr1BGcfxlf+IYl9H256DvN0w4c8m10fjAgL4UH52HkHC6rejq/cqqw6lHWmLcURdMB5QIYAo86fTa7Q3omIpmqe5n0mcEUj3BHhGPFhmlPZc4+BkrAtZrh2lLjcFnw451ypiXG0sXysNNjZ5wwzn+gUfqF4DykbrJS25mH2wm/YD3EGKLjOeFzo11NREREFtUijUfkGXggcSlpOuN73IUz58Nmk5jsQ47yxuNnisPkhcoGg6mDURqWt8+d/7hM1r6xHspRRLxgq0cNgQedPtvDhIGJSUyEOzqCLjSjCo1jHbFPWa9EXFuqUuKE+1x4PoiBSzFca9aIZ5wQkxhDz0Rsdvts9gYMKYQ8i7SB5UTe56vmPfWC35N+YoRpei8qsJkc3drhREREZLFo/P0ayN/YTNIUN8NJ9dSFjoisOWsl7IU2WRHLH372M3/k1Rw+jGDk1cimXYxcWClt7A2psXhzfjviYu8bg6MWWypH+zfNo8Id6wBftLp0U4/Lnt6NOTlWMT4ELtZDlKZslEtsVMLg+dQXBj9pRnx1uUkl8kRZl6wzp8QAznj2hyM2ewP6qCbtovCEwCZ12fPgl3iBMHhiPNHzv3nZ9RssVhOwREREZCEptHlNTCZDzFY6cPTd0Mn3L/Zpr4WsJ0cYQMz8kV3GqHjglXPAIIHuKCHB4MyMS0ybScNti2epWqb6Qm/pszkeengOErjX6dN14I4EVdOrvU3qDiKg7B1vri6znvWzOWs6mQUawLXlBkulCJMmMwQwoQajnaY87PTpuUKTaKU3Cy30S4NBmuDNLF2gjk2+xQK1UonyC0ptTFYlKiIiIrKI4ld9A2R+zXUT1ueo2EAzIqViHCU3ouLOq86YTIcqe08ZiL3DkmJ0aL0SoaID+klCazgiORKinddrwwLWG2IHy5Uq1fyyeZozj7Lb5Yxhd+R5NBzTM57ETJoqT08Sm14VKvaeuoE3V1eocXaSn2+GMnCpUuZKJeZJbzjTyj8GTw/4/KDNwdCR1qzeNVhwLvvoj8f004SUUG1z3rESmlZPWmRbDM1ajfIL2iEM2eJmvB6vaSIiInKxaGQpJ5rX8emLYggHwyqON0oGE0HPOs6b9JG3eY19tqpOZKgZ9f15VTwwBjqjMe3RmNRmS9XMUAEw6bHhifCsNWqTJ8g5PCCKN8kBIw+P2122BkOGhPDqpHs8CbBC1BJ7x3IccWN5aRJSncpjMJSA1XLM9VqFX+22zp12GTa/p4fhXqfHQeIYY0OV2hxuW5lN6IgUQtJ+kpI+5YFiCNWJMdCsVKjwgg41P2NwKyIiIjKHFNrIay8/mS8D76/V+G/++R/SMpbEzh69WA8RnmvWc7lidWC9Ig4YAa1RSms8xpmIqVWTZmDwxAZWK5VzV1J65bIRqDOhCfFWu0tr7EiMPWVw6iefsyCl7BxXlhtcXwlNiIFT77TJAskYuFSFt5ab/PDh9vk3M/uzo7jC42HKo3aX4dIKlZnupMwz52EwTumlhjSroTmPL9S8xMZSMobV2ilNsGc1tYz9hDkS2OSzAxXeiIiIyKLQ2FKEfGoUrBtYasaMmbEPSuHyBkMFQxU1i3pVUqDnYLvbozVOSU14JGZa1ytbCdu6lHps2WjWQ3+XF3uTn4sE2B+lbHa6tJw7vN9n8mC9p+xSbqwssxwzCW3OkB8rDQNXqyUaNvQAypd7Pv2ClsR62i7h7u4+nRsr1NGL0KJLgfYooZ06UmMwZrbgBrKpUS6lamGlWn4+x1thepY58u1JYKPIRkRERBaHzpdFMpYwxanMl38XVgvKvloO6KTwuNWh4zzJLOFFkQ+r2KzWqlyql5/tnf+XIWu4M8awPRzzqNOhAyT27FttskoHi6GK49alZRpw/qA57xFkoAZcb1RZq5aJxiHiTM+8rMEBQ+940GpzAFya4S7KvAp9aYYO9gYDWt6RWpPV2pz1DDopiTHeU/IpzZJhrV59YSckPpsl6Q9vm0IbERERWRwqCBA5IjTGDFOeLE/3MdcD/IuqMAYbATsjx4N2h76JQnhx1lJIR67HAmXnuNyos1RekCdIbxgBW4MhW70BA2arEjMYYg8rkeX22upTVYgZQsB5tVblcqNGGU/kQ0NZTFje25vi4D37PpYxEQ9aXTb754Q8Mt+8IQU6qWen26XvUlID7tz27SYLUEKFVsmlbDRqXFmqLkxlm4iIiMjLtBBjEpFXQqOHuXXSsNAT+ro87HZ52O4yMBHjw6kas0/XqHrHzZVlaizGLuCAPvCw02NvOGJsI5w5r50wWW8az1q5xNVGTJkQVJ6p0BykDKyXY9ZrVSqEKh2LPVzK+1i1hQ+1PYmJeTIY8ag7CKGNih4Wkwmh28F4zF6/zwhID5daO+tyeSwe6r1KLmGjUWcpVumviIiIyEkU2ojIwjkaSfhsANkBPt3vsD0ak5rzpmkcZ/GsWPjqpVVqzDBd6FXKsigHdBzc7w5pjR3O2RmaLnssUHKe680GG+XQp2Ym2VVbYLkEV5s1mgZi57Nh+OkXdCYM7PeTlC/2W/QI/XhkMQ2Bzf6YJ70BY2bM37L91gCR99S84421cLzNvA+KiIiIvEYU2ojIwvOEwf/uCP7xyR4H3uJPeHY7b+KGdY6NcsztlSYV5ngQWZh15A0cjOFBb0jPWTyzhDYmNCH2jjfXVrjEU74YmGyZ5giuNOusRJbITyZlHd/O5vAjNYausXy+t0+XEOKo2GYx9YB73QHb/SEJBjdDxDlZy80TecdqKeKty+uHIekzK9wE7VciIiJyESi0EZHFllXZdIE7ex0+3G3TjUrZakaTqVFnL/UberJUveeNpQY3G8z3ct/ZDXOEsGqnN+R+t08Pk02NOv2W51sk8lAzhlsrTZo8ZUDlw+9XgY16ldVKCG2cn9Q2FbezAawPt8thGNuYR60O+6Nw+zW4XjzOQzuFz9ojdhNITYyfofF3vodE3lNxKTdqVd5YslR4xhOSU3Z5r1BQRP5/9u78ObIsO+z799z3cs/EDhRq6erqvWcfciRSQ5OixBAtRygUpMNh/3H+0b9IdtihYDgUIUdYIsWdJjkcDWfrZbprw1LYc1/ee/f6h/sekAASQFYVlkzgfDrQqCUTePm2wj15FqWUmnIatFFKTb0I2AH+5usXbEaWroSnFmrD7TZGhTVCZymL48PlRZaY8NKoVIJ/7bvdPluDhEEQ4kQuXKSKCIFNmCvkeTQ7c5RV9BovOJu2tlwpsFwqkCPh2GSg4e/njva/QxhIwFazw/pBmz66qJ5cZ4U4IRZ41Un4bLdO0xosMhQePfuIZtde4CxFHJ+sLLEq442bv9CkX7BKKaWUUm9AgzZKqamWNeL98V7E37/aoxPkiCVA3PEVnF8sZsUZp5eVeZewkDd8uLxwOP56oqUZBK0Y1htNXg1iBmJwaY7ReZzzU3tWqyWWK8HrZxWlDw6AuTzcL+YoiWAciBP8f8b/P/09Qy2KI4SmhRcHdQ3aTLTRZ0UMNICn9RZfN9t0g2CsgM0RR+gcFeDbqyvMoT+MKKWUUkqdRX9OUkpNLYtvhroRw3/+5Ze8jCx9Y9IpNtmS8/hCctQyVIBiEvP+3AzvzJYoM8H9bDLOZ9o0Esd6o0XHQWIMzl3UftlhsBRdzGq5SMW8XVZRTeBhtUw1MASHgRlPDgM2vizGpSk3sTF0nOPp9i4tdPT3tBkAmwP4yfomW1HMwARpGdJ4Z5HgKNqYDxZm+WS5QoXLv94cw6VRbiiopJRSSik1XTRoo5SaPmkcJgH2gL/6ep1/2NymERb8FBtxRw86tlwbnQlgEGYDwzfvLbOc8/1spuHmGAG7UcJ2p+vHmwuIOT8AIwiB88GWd+drVM1bvFYHZeBRtUItCAicb4PshpoSZ5lNVvzC2QKJCANjeL5fZ3fAscIqNdksvgHx5wdNfvpqm5YJiMzwGXRx4MY4mHUR37+/xGrgy+yuorIpu9otYJ3VwI1SSimlptI0rEuUUuqUvviAzV9uNvmPnz3llQvomoD4WOPRixZofoJN3iY8qRb57uIsM/gmqdOgB7zsdHnV6ZIgWBh7TTqbMzyqlijh/yF400VzAbhXKjBXyJNLv12xH5gAACAASURBVFZgZGhDsl8fBcysQCSGrX7ERntw1Ix43OoadT1OHIvE+XNuI4I/f7HB835MX+Qws807vxF2ABSs43GpxK+trhxm2Vxm0OZYyFaGP+vJpZRSSqnpo0EbpdRUagH/uHXAH332FT8eOPbDIl0JSM5pxHu0nMz+7widpWLgWyvzfFoJqeIb9U488QvoF50+O/2IhIsbEENapgTMF3LcK+bfempPDlgt5VmqlMmJpAPHRw39HhoJLkJkhH3neLp/MLqvjQOmJHh2K40YA2bFX3c/evmKv9zYYScsEBsZmtR2sdBBBfjOvWU+qhmKXH6Wzck8OysOqwEbpZRSSk0pDdoopVJyuHq6kZDFqCyLEX/WB7Yc/PlWk//9s6f8eK9JI8gTicGd2nBhOFRzuljKULIJ75VyfPfeCiuhL42aBhY/cnmt2aWVCIn4CT4XCdNRy8uVMoul8O2mZKVTf+bysFIrUjYxAQ6XHggnDodNsxyG8imcI0FoEPB0v0EH39z2WJKGwA2diVfHHTXEFpHpeHXpRsZAE/hxPeL/+eIZa5Gja46mtJ0/WlsO/ysmEY/LeX790SorcjWliGdd9a/LP1NgGoK4b0VT3JRSSqlJNvEDUpRS1+P4QueanbdecID4viexg42+4+9fbvJHzzf462aXbZOnbcJzAhbDr+r0IPDZwPDrK0t8ulBmjksaPXzFHL6fTX0ALw7adAmwmLSXz/kC5ygBK7UqteDtGsA6/IK7LHCvVqIsCSYBZ0KcpJk1h4flqGTKAYkYumGel40WBz3LSnHE0v0WrZWHY1FGjoaiT8RLTK+xY78fYvFZXb+q9/mjn3zBP7YiDsICfRnv7DHZsXcwg+N795f5dLHEHFcTJD2+T98+GHF7wxnZgb+9r1AppZS6DTRoo5Qa7TJ+jh9nRTr8fU4+XiASv2jcA76o9/mzp2v81dorPu9FbIV5+mJ8eYacVaBhOf1evhA6S4GEj6oFfuf+PA9DH7CZiEX0BbJF9G6vz6tW2zeCHSNgA5BzjpnQ8HCmRs283T8Cgt+zOeDBTI1FY3jlLEY4DKIdHZWjz4LgMAwkYLvTY73Z4d1ilYIbOlLTcCBuixHXXSYC2sBP247/8LNf8RfbdbaCPIO08fXhWTfy9PMBASeW0DlyON6vFPit1UXuB1fb8Ds7N40zBM4QOPGFezLqnFRKKaWUmlwatFFKATe8fMmqZkgnvaQfA6DlYL0+4G+fr/PX65v8ohPx3IS08yU6YtIxw9ky7KyV/lEqQfaIgk24lxd+4+E9fm3eZ9lMyw0xAbrA2kGD3d6A2Iy/5aGzLBZKrNYuYdSy85UjAbBSzrFSzPNlr+dzm5wMZf6cHrvuECIxNOKItWaL7nKVKj4LRdfSN8/iz7N94Oe7Hf6vn/uAzUsp0DA54jRIeqya7ayv5RJy1rIQGv7po3t8b66QNvy+4IlvwZ+DPsvHIARiSFzaJkngbU+yK9x0pZRSSqljpmWNopS6Qs45nHMMD2q+thWJy8ZA+3f1I3yz050+PNtv8A/P1vnHnQOedfrsIrTDPG3JMThsbTs8pWgUXx7lDkMFjtA5FlzMD5eW+d13V3kUQPGKX+ZlsvjePhv1Fm1niIOsM835C1EBcjZhoRAylw/fugkx4p8fAgt5P0Uqf9BFrPPNnNOV7chWReKnEXUsPD9o0QTunYwA3NKVsb/e7GR0EhmxjxP8WO+dAfzp+i7/6Ytn/KTR4ZXJ0Q4MyZlZbaO+OBgMFTvgO7Pz/LOHqzwO/aj4Kz226QaKk2OBpcN4zbk9eIYf74buHuMFqaaNiNyuF6SUUkrdMhq0UeqOcwjWGHpBwAE+a6LI27emHNVJ5nCaC35haIHIwSCB9iBit9Nlbf+Ar3bqPN2r86rTZ9sKe7kizbBIPwgZOMGKYPGBpnF7hGYPy1nLrI35zlyVP/j4PT4t+Gk209SV3QJ1C2sHdfrGEJ8zMSuTHY+COO7XKswXg8MR3W9D8P+QzAGPZ2uUN+vkjBBZsOcGbhxWhB7wvNFibwBuWrpAv60bj9QMkaPrMcvgqlv4cq/FX3/5jP+6vsuXNqQeFmgFIUk2iUlgROfvk1+awFlyNuFJKc+/evKQb88YZrn6Hz6ObZqTcasHj38N0vsjchhQvrG+X5csC2HHQMR4TcyVUkopdTM0aKPUHZcI9Izh62ab//J8nxkj5JxN31t+8x/ks/IE35DWYp2QWLDO0HeOetyn2Y9o9iIOWi2anS57gwH1JKFFSEdCkvwMSRDQd44Y/Dhv8d0qROyYLTSPHhHgqLmYb5dz/OGn7/HD2YAFwFyUrDNhYmCrHbPebNEjTzzmwGVxUDLCaqVELcfbTY7KOF/SVAYe1aqUxRIkEbGEDLWg5eg4HJWzWRH6GLYGMTvdhDgfYNzQsJ4pOR7TKnF+jPcAn/G0G1m+OGjxt+vb/MP6Ns96lj0p0sjnGcDhaG9JJ4SdvEMMF8AJYJyjZBOWQ/jtByv83vIMK1zSeXfSUBrMyYCzDD3IZ3mNF5L2QQ1DK3bsJhAlCeaCQNX0cDgc9VxIM7EkerEppZRSE0uDNkrdcRahh/CTV7tsbm6Sd5bAnewA8wYO1+jp2GcnWAfOGWKgZ6Dv/BShBMGJYWByDMI8AxMSSZA2GBZE8O/un/7ip76pI130uyxc4DBA3ibMOss3aiX+l29+yD9frbAAFN7yZV63rNfPRqfHbj8izhWxF2y/S/eB4KiFAaulAmUuN7soDzyYqTKXz5HrOwbH+oaMWiD78raBGHb6MWv1Bv3ZeUJ5yz47E87hM8X8ee+zW97m9Dt9BYzObMuyaeLsw0Izcuz3I7a6fb7ePeBX2zt8ud9gLXIcmBytoEhPDP10MtlRj6LhceUnG0773xkHeZewSMJvrSzx+x895t28D+5d2eV2otTLSfYxFDYcO2Djg8RNE/LHXz1n6wWUbPJGGTuTyQdtukGOjX7MTuxIxExUEphSSimlPA3aKHXH+RKVgEFg2CWPcX7RfBmLk5NvSg+/E+8XU3K4oPShnaOJNG7Es0Z9pdOOpkVlI6lzzjEfBnx/doY//PR9/tVijnv4MrApitcAR/1GfrVbp2794t+dWKwed7SEN1jmi3nulwu+h89l9IxJn58DVqoBy9UKpn2A5EIQGZEDdPz3sQh169hotum4eQpDQZvb1tLGpZ2bYxE6UUS9b+hjCW3yxovlNO/ssATNCljnSNIeVbEz9C10LbTjhHqvT6Pfo9Hvst7s87Te4Vnf8rIX0RZDT0rEOUNk/HZaTh7D4e4uAs4MTW47ys8LSCi6mG8uzvIHHzzm20WopveWqz6ow2WZFpsGf1+/5HNgDHuS4y/2WvwocQTOndj0iehK9FacCAlCJ8j5MkvRTuBKKaXUpNGgjVJ3nENIJO0/4v/gUvs2nPvjf9brRMC5i/uyjEMwiPMlHPkkpoLj3ULAbz5a4V++94jvVmARnxkybQEBhw/atB18vVenI77QREYGRzI+U8lYS845lop5VguhD9pc4g7IATUD92eqFDZ26IolSrfrvOKtRAxt59hsttjvW2pF47OfLnfzJoNzDETYih3/5eka63khh8NYe/Fzz2GGehpZHLG1WOc/Dxx0YksjSmjHCa0opjMY0LMx7cTQtoZOkKdr8kTGpPeCLOAhQ4HXUdltbii6mw1yd+StZTaJ+e5cmT/4xgd8f6HALGkw+KoP6iVG+hwQi8EaYSCjMtOmP2gD2b8BQsJhAdlNb5JSSimlhmjQRil1/Mf0KVkpn2xyPBxoCpwQCCznc3xjYY7fuz/P796f58Mc1PA3PpM9eUpebyYBDnqw1uzQD/O+fIwLllnOv96iMdyrlLiXM1x2z98cUAUeL85Tkq9pil/2X7T8S0ToSsCrdoftdocHxeolb9kEEWFAwGac8CfrO/ydTdLz8BIXyVmTbnzOWZw2e+6bkIEExCaHDXLYAFzOgDOHxU4OhxOLz9GRNAxzNHUt/QYMTyobfqxvPOyoAt9anOd//vQJv7tY4CG+DPEwieParznftPz1v2+aCShCfOq5tymwcfJuqpRSSqlJokEbpdQpl7Gmeq0f/99wsgvOj5b2TU+hYC0lF7OUM7w7V+UHq0v8YHWJTyqGVfyUqMOADUx+wOZEckPWz+Zlvclut8/AFA6ncJ1HgNAmzOQM96plZnLmSm7+IfBgtspcALs2gSBb6suZuzobX743GLDe7vDJYpXZK9i2SSBpVls/7WfTMmfvl7fhs2PkMBibICTGTwhKDv88PbnEIoflhGlPqGN9ao63kebwEVlJlssuRopJwgKWX1+o8off+YgfzhlW8AG9w9d5A9ecL728OID4+m7LLCmllFJKTTIN2iilrsTVdUbwX9UAAZYgceQFCgj3ygU+XFjmu6uLfGuhyscleITPACmc/BKTvtYasfMc0AOe7e7Tso4oMBc2Ic7knGUuDFgulyhnfWMucT8I/h+U5RKslPM87caICS6sh7EiDBwcRDEvmy3arIwsxLktLMLABAwIruT6yMoND383IsHEP0Z80BM5DNZkpU7ZZKjhx8tQ8CZrUi5psMY4R+gc9wL44TuP+LcfPOCfVDkMlN70ccx6/VzG/h5+/UoppZRS10GDNkqpUyY5Sd6/t+2oJQkLAqtF4clMlY9Wlvl4eZHHFWE5gDmghA/W5EZ9kczJHquTYkQpiQUOgK929n22Rjr+/KJcG4dvxnyvkGe1ViXP5U6OyhhgKYSHMzXCzj4Gh+H8XkW+b4jQShwvu33qMdjwarbv5o2atHQF3Jm/OeGoLEY4qtIaLrjLgjkuDdAggq808sGawFmqyYCHxTz/+v1H/P57q3yY52gy26jNuObr7LK6tBwGxNxVBqWVUkoppY7ToI1SaoJcvLIzzjFbKvI77zzgN1bneb8ET/Iwj+9XU8NPhQqzLzdJgZjXdWLbLbDdh5fNNgMx2GMNiE8uIY8/uSjwoFRkqRQQnv7Sb8+BEb//31taIL+xi3FpQse5T/NlNh0nrLX77PUSkmqghSdvaJx9dmwa+5jPPcwucb5vTc5Zyi5hRhzfuTfP733yAb+1mOcJMMOJgM110pNGKaWUUreMBm3U5BqukTi5Lp3EFd0tqOlwOMSRTiO6Xsff2z97J4bOUYpjvlcr8a9nYQmfVROmHwGv2bNmio5XDGy0B2wNIiJTSvNrspazZwe8BCgFhpVCSC24op4+6XSdMvDObI1KEBA4h3Ny7vfJMjwiMWz1E1612gyqM4djv2+Xm8jNuPggn25De5hyk54r/oYrOAKEvI1YwPJRJc/vPHnAbz+5x/uhD5xmfaPeYDPezoivL1zOPxXO+WbLPgLp71SaZaOUUkqp66JBGzUd5MTnSTTJ23aOrMyhgKOAJXDuaIrvFbEIkRj6DiITjIzPnac/GLC/8ZJw+UPmcr5nzbROgxqXxfez+Xp3j4PYEhfMqRaxo5j0+FYMPKiWqaUL8cNsi0vcXwafYfFwtspischGL8HgRwmft50CxBKwE1m22j16boa8QHCLj+flGeeKef2daJxLP/w5VLCOssBMIDyeq/C9h/f4jYeLfLPkA6cz+DLESQu2vd3p48vGjPj9Ie7kCTndoZssOG+dw4m5tDIypZRSSl0uDdqoyXWil4e1/k3Owx+bb3gxN6oYRfC9PM35yQUTxThHEcvDcpH3a0WKIgROhmbPvI3R73NHYthLHF9s77LnIEbSiTcXiwXazvF8f5/tTp9Hs4Wj9i/TstPfQAQ0Lbw8aNCRAHtqv55+8X6qliNnY2bzAQ8qZcoMBWyyz5fYjDgPLBZhtVbl8/YechghOl8khgMLm802zYGlWjDTcxG9ttO5LW9nnL41Fxt+ZA4fyA1FKIchD3M5PqiV+d69eb63OseTou9bUyXNcHO37/rLrp+CEfIGDFmmzWUfv8ty0facDjhlI8171veW0hwipZRSavJo0EZNtCxs0HKw2e1TH0T0TYDIzddHDf9wKwjiHGVnWSrmWCrmKN7gtr0Og6PkLN9dXuB/+vZDZs2JEb1vasTUmkxf4NkA/v1fdPhRo481weEo4otYESIMG60uX+23+GS2wCy3P9MmBva6MZvNJoMgIBZwhylRo190NvUnLzBXzLNcLp7flPltpIv2rETq0WyNwvr22MclEUPXOTbbHXYGMUuF/NRcQ+MYLv3LmmlfZ5nNsd3v/MEKnPUf1hLiyAE5YyiEIXNBwEohx/1amScLc7w/P8e7NeFB4LNqKpxo8n0Lr7vQOao25rv3VvioWiRnjzf8ztpKTw45N3Dm3PF/sxBD3xhedbr8aHOPHStEclFbc6WUUkpdNw3aqInmgATYSxx/9nyNH69t0AxPLTtvUNbrAXBw30X88w/e5Z8+fkBBjh4xyQLnKFnLQyw/MLDI5TQRlXOyjTrAgzz8fKHGz+odus7gxnyb3iEkIuzF8MudBr/1cJHVHJO1droCEbDZbLLb6zEIAxI5f8F/NOnGUQCWKhUWS/mj8pUrOjGzEqnHC7NUjWOLrAzj/ANkEQbAdrvHZnfAe7U8tavZxJuT3ROcw2RxZye4tz53LziYkgWK0g9jMMZQMVA2UMIxkwtYqZSZK5aYL1d4VMrzXjnP+2XhYe5oElseDhtMA7c2UCpAzlkWbMx//+4D/s29AhV8QOOyeuVMggbwo60W6692OLAQmyzD7ZbfUJVSSqkpokEbNfF8po3wWbvPX2032MmXbnqTRhILH7k+Hzzo8x2mZy3js4SEAP+ueZ6rn/xSwpdWfHt1maUXO/TihI7IYfnb+XwAoCkBv9ir86ob824upJT1QLmFLD7Q9bLZ5CC2DExhRHnUCM5nC5RxrFbLzOb88b1KAWlfm0qJ+TAgsBYRc2H5mw/QCju9Pi86Pb5P9Yq39CYIBZuwEBg+WpjjQS7AYMfMMTv/657NpY/wWRiBGPL5PMVCgZl8SC0fUg2EmTBguZKnloOy+EyaCv5aLXHU4NtwogxqGm5yb0icI7AxVeNYhmNBxGlos3YRh5+0N28Meecu4TxUSiml1FXQoI2aeA7oG9jPVXhVnGEtX77pTRri/MSlNPAxF7doBXkGU/aTfNaLJyCbwHS1Iac8vsTiw7kyj2cq7OzU6QUhybE+Omd8/zQ7oRPkeN7t86vdfb4zs0weCKZsv18sK3Dy74g/PajTsNA35sIShmwBFjjHTGi4P1M97D9yJdJ9n2XarJYM98oFcm3LgIu314lvWNyILS+7A9o2ffXmgidOiezUzFvL/WLI//D+Y/7ZXEiO9Ji86bl7wTp7uNdT1lQ3MBAav2AvcPxzHl8yebhB0xJ9viKB+J5QZbiVYcQYKNmE8O3TvZRSSil1RTRoo6ZCtuBzWc3HhPyAmb2HfUiEoYHKU8INfWSudpVm8IvD5QJ8sjjLZ9s71Ak5mh91XmMG/ykywkFs+cWrHX7nveVbuaDKQi8JsN+HjVZE3xochvFyknyJx2KhwP3ZWrogv3oBMJeHB7NV8q06A8A5wR5mUp1u423TJkgt53jZ7HDQh7jI4VlxW4TOUnaWB4WAj/M+WHKd/xAP70vDUQZNMPTr27XH346M20l7Goy4tU7Gv6RKKaWUOo8GbdTUOGqiOO5g6KsnF0zwma4f9d3xX17hxmdThuaATxZnWMwbNp1Ne5+M840dsQgdI3y2u8/zluN+VSjepgk26eFw4oM22+2IrZ4lkjDdR+dfA9nkmzyWpULIYlEup8H0GAJ8VsL9mSrl9Tp954jT/A135jx5H7jpiWG93WGv3ycuFQiuaZuvRTo+O+8SysmAWQqHpUcT69bs/Dd1i3bALXopSiml1F0ybSkBSqlbwuB7ZbxfK/FOtUTeubQnzXgrCyswMIa1fsznBy164z916kQO1uoNtqKY/mt0njA4is7xoFxkPri+3WPw/VAezs0xEwYENjn38cPj5SMxbHf7bHd7dPABK6WUUkoppe4qDdoopW6GSxvWlgzvL8xRcDYN2lxUjpAV2Agxhn0LP1nbpAEMrnyjr1G6CxKg72Cj1abuIDEX37azoI5xjqI43p2bYY7rDdoUgOVKmfliDpPEYz83EUMjTlg7aNB2On5YKaWUUkrdbRq0UUrdDOdLpJYMfLi4wGIhT96BuTBokz4ZwUlA1+T4anefjbZjwC1a5KeRlwTY78ZsNJo0HcQCF79KQcTvyUpgeFQtU+L6gzYzeWG5ViJ3wfYOZw7FYuhY2Gq2aSeaaaOUUkoppe42DdoopW6GHPU+eTxb40m1RCFJcBfMhvZ9Ufxni9APcmx0e/xsbZMOtyhoI/5jAGx2eux2ewwQ7JhNe8Q68jZhsVjkwYxvQixwLe2gBD8+fjYHD2eqFM/sY3PE4XDiSER8X5tGi92+JbryrVVKKaWUUmpyadBGKXVjBJ+Rcb9k+HS2Sk3GndbiGxZbgZ4xNCTgF6+22XW3LzOjB2x0uxz0IxIxaRPi8/eP4Me255OY+7UqS0UhD9fWv9t/f6gZeFCuUDVjtNpNI0qxCH0xbLV7bLS7tyt7SimllFJKqdek06PURMsGaBedL6N5J4SCsbgrWsZZMfQdHMSWSCT9Lre0u+1Nk6PF/XwIH89VWcwHvLQJibhzgi/Z8XB+HHaamfGr/QYvmgmPZ4KjrBIOH3r8qdMg3eaWwLNWn4M4IZLgjJHZJwiItZSSmAezVUqSRuiv4/UP7es8cK9cYLaQI4jcYXbUyO13cphdZEXYixJetDp0VypY9B0GpZRSSil1N2nQRk20bFE/F8IP3nlAbXaWgzB/Jd/LIsQmYLPb549/+QX1xOFk/Ek96vVlQbka8MFsmQeVIr9oxgycw8ro0MTJEh8LDIKAjcGAz7f3+MHM8tljlK94lPmlc1CP4EUnomEhDsHKxS/COUfgHLUAHi/MUSALerzt2fx6O6+AD9oslYoEgz6JmDO2QY4dVyuOhoOvDpq03DJ26Nu6Y89SSimllFLqdtOgjZp4BlgAfjif4/vzc/Sv6PtYoA38rJ/nv/0ioW0dcaCXyFUToAg8Khd4MldjtrVLPXFYE5BIlk9z3rMhxnAghl++2qb+7jK18IygzRSt8p1A4mC3Z9no9Og6wY5+VSMFOBZyIQ+qlaHMoyvcASMOUx5YDmG5XCCo9xBnIe3J4048+fiWCT2T41m9RTMCm+cw22aKDqFSSimllFJvTVekaipUgDIgV1jmkgB1oB5DzcbknKHPtbUBudOyxf17C7MsbO7TiSIGEmLxwYtzcm4AiBFaJsfTeoMXBy2Wl6oURj90aligD2x3Orzq9ukT4MSkQazzLgQfAAmx3CuXWCn7psA3UV4UAgsB3K+VKW03GCSWY+G0dPOP9yl2WOfom4DNdo+tVo9ooUju+jZbKaWUUkqpiaFtAtTkcEMfI0j2v+F1qrukj+Hvk339KVzoT6sQqAm8Oz/LailP3o3Ts+joAFoResbwqh/xy70DWle7udciATrAq1aHvSgmMdnt+pyLJGWw5FzMo/kaC+mULhl+6iVcJ+MIgGoAqzNV5nOGcKgXVbY94k5faiJ+9Hd9EPHyoE6PEc2INZqqlFJKKaXuAA3aKHWCxmqun8Fn2zysCu/PVCgbQV4jUuAEBmI4sPDT7V22kumfOBQD+/2E9UaTpoVknAlMqcBZCljemZ+hQprbctVBjhEBVQMUBRYKeRZyhpyzxx5z1rXmgFiEjoNne/XRo9z1QlVKKaWUUneABm3U5DiZQXOR4QqRN/14zW+pro4BlgW+NT/DfGgwzo0ZuBEshkQMbQl42hnwsjUgzp45pQc2AQ7ihK12l5aD6PBvzh/5LUDeOubCPO/Mzx/1s3mb6+TiKeMjN8TgS7OWykUeFEsUrMvq3Y69ktOHSLAiRMbwdPeA7Vs4yl0ppZRSSqlxaNBGTZbXWRi+yUJSTbQq8MlclZVijrxLMEMDrs+Ovfi/seno77VezJfbe7TslCz0z3hhA2C7O2C702OAwcrwyX72yS9ALklYKZd4MFs4Pf78qg1tWjb9baEID8tFynJ6y0cFbMBPcxuI4VWvz6uOzzxSSimllFLqrtGgjZo81xmMObHAVNfo5Grd+SlS71ZzvLcwQ1kcYTZV6MJzwrfnHZiAfSs83W+wP3A+O2WSD+yogE36Zz1gs93loDcgEYNl9Pj5k7tGnKOA5X6twozxZWc3daP3DZGhZuB+MaRqhMA5xAlyxuvJnpkIREbYixNe1BsatFFKKaWUUneSBm2UUjdjRLpFDpgL4aOleZYDR97a4w10LxCL0EB4Vm/yrNGid+kbfclGpJ04fP+WVgJr7Q6NJPFTtM75MsN/Z4ASjkdzs5Tx+/Qm41aCn/z2sFJiJhcSuHH/4RESDE0nfLW9RxvNtlFKKaWUUnePBm2UUjfLcRi8CPAL/I8WZniYF/I29hOGGC/wkIihY0I2ugO+PKjTYvJb2pzaPvHBiXpkedZq0rIJVixORodu3PGnYpyjGgQ8mpulgs90GX7sNQ6POlQCVsslZgsFghHTos5iBboS8uKgSSPRoI1SSimllLp7NGijlLp5aUQgAArAo6rh/dkqBWcxuHMLaU5+mQTYjxI+r3fYGfjfT3LgRk78xuKbDu/1Il62BnQlxIqkhWLnh1EEf1Ofz+dYLuePBWxuUoCfILVYLFASh3HjHk8hCgLWmw02Wz36TPaxVEoppZRS6rJp0EYpdXNG9LUJgSXgGytLVAwYZ8fOzPClRUIT4ctmh/Vml4h0XPSUrPYtvgnxVrvHq15CP8id2PSz817EQeBgoVphrnQUALrpDwdUS8LSTI2iMHbQxgr0A8NeFPFi/+DwaymllFJKKXVXTMobsUopBfhskRLwyfIC94sFtnoJHTFEcjQN6qwgjkNwAl0T8LTb52m9QWehRJiWXk0DC7QsrNebHEQWawIMw6Gas6dGHY7Psn2/qgAAIABJREFULpV52QNroGKPwhxvG/B43eFumYEIHQedXB6Mwdnx5no5hMgJXSus7TfoPFll/rW2WCmllFJKqemmQRs1UtZmRKlrlZ50ReBhJeDD5QU++3qdKMj5fibiwF1wZgr0TcBWnPDVXp2dB0uUigG5K970y5IATQvrjSYdhETM0Ms+/7U7/Ojzzze3+fe725RdQs7Za9jq0xsyvKVWIEF45nJ0E3AyXpKnA2KEvgl5edDkIIH7wfQE4JRSSimllHpbGrRRZ9IyBHXlzohB5IA5gW88vMefPH1ByyU4CXzw4qIv53zgoo3wtN7kRTdiuRhQvvytv3wOYoGtvmWt0SYSQ3JmG+bTRVNWYICwljh2ooQg7Ql00yyCFUfPJPQlJJZsSPvFnDH0E2GzO2C7a/mwagjQ2l6llFJKKXU3aNBGKTVxQny2zUdLFR6U8uwMYowYrMiFGWCCz+roi+Flq8vn9SYfzxeZl6O/n2QDYK3TY6vbI5bSUBPizNnBDgckAm0T0DWTE9bIAko+1DJuW2kOHztA2IoSXjbaRNUaeXzS1RjJR0oppZRSSk01DdoopSaO4KdIPQ7hG0sLfP5ym65xJHLxgv8oQCDsJZYvGm0O4mUehFnIYIIJ9IG1do/9xJGEvlzKHm70eMO3k3QK1SR5m3yfWAx71vJ0v073fo2yTPhxVEoppZRS6pJMzlux6nrpiudM7tQv1LVzvkRqHvjOg3vUBHLOcVGezdEwbPFTpJzw2c4Bm+0BfSYvkHFSDDQcfL1/QMs5H3yR7DW9zgkp6aD0yfiw4htEv+klZU1A0wmbzTbtJG1IfVbVmFJKKaWUUreIBm3uCBEQEeSwRERXO2dy2SeN2twkA8wAnyzPcb9WJecsMs4hEdIAgdALcrzs9Hl20KDDZAdtsvHcBxG8aDToGEOSBTqyZj1jnZMy9HmSPoY27TUlIvRMwFa7y06r55tSK6WUUkopdQdo0OYOEZG3Dta4OxDKGHdprK6WAHlgtQDfWl6kFsc+aHPR9KihAxiZgN3I8vn2HnsJZy/2J+CAO3xp1Fa7x6tWj0jCtJeNA/e6G3jTAZoTH9nmv+F+dkAkwm6vz8tWl172hxNw3JRSSimllLpKGrS5Q8Sn2wDgLlwEOkauiu7AQsk5h7OTnJNxB6Q9S7ISqe8uL7EUGAIn/jw++2lDeR2OgQQ0JeTL3QPWOjEDRpy+bxlQuCwWH7R5ud/goG+JxLcc86/neCviaSOAuDcPGVvxQZuDOOZ5s0N7+AsrpZRSSil1i2nQ5g7IFrGBCQjS6Tvj5cucHCnssM7h3C1sJzH0mmziAzZjleKoK2XwU6Temy9xv1okJDk2wvq8c1AQPwLbCGudHl/Wm6NLpOTE5xtigR6wvnfAQARrXmPKUrrtbvg3E+dE9s05wbeTHEIiQts5nrda1C2T+zKVUkoppZS6RDo96g4xxhAYc1gmdXbgJi2CktOBC+tub3lUWohCYpM00ya44S1SBl8idb8E7y/N8dcvdolwxFy0Zs9ybSA2ws7A8rNXO/yLR/MsM2KK1A0GALLrKQH2Eni+u0/POpLX2ChxDuMgcI7gsBXzJF6paWNiDAmQGMGJXFj+5UeZCx0H690ee32HK6aZOxq8UUoppZRSt5gGbe4In2kjmLTs5MKFztA799lDnYPEORJ745UkVyqxNm3+qqvBSRDiS6Q+XllgbmOHbhzRD3KH6/zD8/PE8w4b+DqhbUI+2zlgq2N5WDYE2fOGT/AbIhw1Id7qwWanRyQlLIZxr7ScdVSN8LAQsCgWsQny2n1wrp7DkYihgWGzF7NnA6LA4Pw8qAtFCNu9iM1mk16xQl4CDa0qpZRSSqlbTYM2d0BWkJA3hrwxPvpy4WI1yzs54kRIHCTuqLXN7QhruLRXqvjFcxKTOIfT4sGJEAJV4N25GR5Vy+zu1mmb3HhPdj5rrG9yrLV7fLG1yydPlskzVBuaneY3nG0TA8/26+xFliQ/1IT4nOeQPipvY96bn+d//PbHfHcGQjNhta/ZRDaBWODrLvwff/FT/lurTxSMF3bxzYgNe1HCZrNNZ7FEEGjQRimllFJK3W4atLkDsuBKOZ+nHOQI6SNGzqlIyMoVjjcOtUDPWgbOHRZf3IrAjQPkqJik2+8TOYeTiVr23lkBUAbuF4WP5uf4cueABmf3xB4V6oiM0Ejgp5uv+O+eLDMz6sE3eDInQMvBVzv71K1gL8jyOsoi8gVHZWLeq+T49Vn4deP32USdvUOZexGwUIK/Kxo+a8Z0XHhuno0ctmK2RCagbi2vWl06iaGiERullFJKKXXLadDmDsgybYohlIMQ48BZd+4C9eScF0mn9g5sQi+KcORPP2kCMhZeW7b6dT4LwGfaWKz4rJvJKzC5e7IpUgsBfLowy9/lc2xbSMR/XMQBsRi6JuDnW3s86/oeOYVR3+iGJEDb+kybbpDDjrkxgg/OVAUeFkPuCcy7ET17bpocxcci4B7w/lyV4qt9jLNYOftaO4qlCQlC0zrWG012ewPm86Vr2XyllFJKKaVuykS9GauujgAFA+UgeKODnlVUDayjNxjc6mBGbxBhMZppM0EEqAGf1Mo8qpQIhwITwxlfowuKhFiEngl4OUj4bLdOF46yO/w86mt4FaNlpVHbrYj1VodBLk9yQaZN1o/HAIGDmSDgYanArEBOIBAwk/TBUYApBErAg5kKFQM+RHXe/vclbgJYEXrGsNvvs93rE13C/ldKKaWUUmqS6ar0DsgWS3kDJeMIx1igOobLT/yvEnx5VDuKSBhRTSIn/2AKnBj3HAPN/oCBdWNnO6jrUQDeKRmezNUoYQnc8eHdo8ulsilSQiSGOgE/XXtFPeHEgv/mjrUD+sDLgyb1QUIkviGNE3cq422YjzU5AmeZy4e8Uy5Sua6Nfkt5YHV2hkooBDbmvDybo/8gEUNEwF4vYq3VpXPOM5VSSimllLoNNGhzRwiQFygFlgB78WCkUwEYhxPoWkerPyAZ7gMy7cQv97PF80GnT4zBiqTv76ub5vAlUvdC+GBhhoVCSOhOhg3Pihr6P0/E0AkLfLVXZ7M54LxQwXVyQAd4sd+k6wyRGGJsekaeLlUcZoAcjvlCjtVi7nTJ14QKgeVajsVKkdDGZyY6+erF4UbhhlgCGpFjo92nY8/ubaSUUkoppdRtoEGbOyBbyhYMzBRyFAwE4s4tSRB3VDHi0lwdJyF9Z2hHCbEbaoY69fweskAX2O90SMRops0EEXxz3YrAk9kaH5RCqjbCuOHSmvOX7zYtkXrVG/DZzg5tfA+jm+aA/QReNJoMDFgsbswtMzgKwFKpyHIhz5gztW6UwWfazBm4X6tRsJbgjOPmy8Cyhjf++FocLed40R2wH3GY9XeMRnKUUkoppdQtoUGbO0Lw5SXzpSKFAIxLzg/acDKHQXAY+gS0B8nh2O9jpnWhlG6zBVoRNHoDIjRoc+NOnEsB/hx+VM3xcbVITfxi//zB2EcsQg9D3cHPX22zaycjaGOB3R6sdzoMRLDpaSdjjLMy1lISWKmUWcgHU9FZXvBBmxrweH6egnOYM/uiy+F/cBQo7mJ43umz0x0cL3Ob1nuQUkoppZRSZ9CgzR2SBxbKJUphiLjzl6unm7s6EoGuOA66XXrxibXRlC+UHGnQJobmIMLJ0UJR3RA5/VsDLITw4XyVWi44WqOfM31omDPQM4avGm1eNCMGpIGbG1rsW2AAvGy22BxE9I3P+BJnEGd8lsk5zaICHDNGWKpWyJsJTnw73iTrMNvm8eIcMwbCNHBz3tOPbkZCZEI2+zG73f7xMrfhXTWxO0MppZRSSqnxadDmDgmBuUKeahiQA4y7eJU6vAaKcQyAeq/PQc8vlqY9WANAOuo7Bva7A+pRjDPmsKeImhwGqAIfzNVYLpcISRf750+wP2Qd9I3hZS/i8509eqRBmxtqop0AHQfPDursJY5BmtHmQ4YmDRyevXE551jIhaxUq/6avsZtfxuC71G0Ug5ZyOcI3fjdo0RgIMLOIGa93qQV+2v31DdQSimllFLqFpiWn/HVW8oWSbO5kFpoyNsYc2FQQk4kIAiJE+r9AbuDyJcl3JJ3tS2+CfFavUE9cSRy/hBidf2y0EUReDxT5t3ZGWbwJVO5MW9lIsIAYQfDF7v7NKIRC/5rFANNC+v1Fh0CLCGCYZxbs3OWPI6VfMi9Sp78WM+6IcP3h/TCCoDlAqxUKoQXBN2yqexZny1rDC1rWW+2OEjc6WOoF69SSimllLolJvZnfHX5QmC+lGe+VKIggrjTuSRHVQynl1AWIUZoxgmbvT697Am3QFamstFo0UJIRJALR2ypm5ADlkJ4f2Ge+UDIO99Ue9yjFYuhaUK+PmjwrN6if5Ube4EB8KrVY6PRoi8BVgKy27IDnGRTpEYMMxdDHlgp5JjL+yDIRJ+xJwI3OWARuD9TIXA2Ldk8O79Nhp4bAwNj2Or02InsifHtR49TSimllFJq2mnQ5g4JgGoOlmq1o3KEUb1AJGvtevxvHBAh1KOEl+0urcM/zZ7HhK8aRxja/E4Ma40mvSCX/rGu+iZRzkHNwXsLM6wUAgIXYUfPEBrJIvQJ2eolfLbf8OexG9VZ++rFwHa7R32Q0CfAtwdP/5NsipQPZpxkBIoGVmtFZoy/mU/05ZeVY6YbaYAy8M5clYKxCNa38Dnr6cd+bYicYaPVYa3dOx14m+gdoZRSSiml1Pg0aHOHBEAJuD9Toyq++aeMKks4o1TBiV/wNhPLy06fZgxuOBtliie3DICNZptX7Q5RGGLFl5+oyRMIFAQezxg+nC1TEYt5jZ4oDiEWw35i+cV+g60ozSy7gYV+Fx8obCQJAyNYcbjs49zpbo7AJlQCw4OZKhUmPE6RdRIeKqfMJtqtzlQph0JIOr5dLr6JOBGsCAdRwkZ3QJcTt54pvQ8ppZRSSil1kgZt7giHD9qUgYdzNRaLeXKHE1uOUmT8r9yZSTMO6CC86PTZ7VnstC+O0hfZBZ4fNNnvxwxMgNXSqIkWAMvANxZqzAgEZwUgT8iyyxIRmghftnustf3Y6Os6lYcHKTUtrDXbtKxjIODEzzG7qAm2cY68s8yEhnvlMgUmPGgzYuOy0d/L1TJzxTyhSzCSBm44uiud/ICh/Zc4njdatJKh8e3Tfk9SSimllFJqiAZt7ohswRMAK2W4X8xTtAnBGb1A3NDzhv/MCvQRNjt9NpptOvgJONMsAQ6ALw/qdKY+CnV31IBPF+ZZKhTIWzBj1Odl/ZqcCH0xrHcGPN2v07LX15A4Kz5MgP0+vOoMGDg/K+rc+qAhBkfBWZZKRe5Vy+SucoMvy4iXFgJzeeF+pUI+scdGnI+6Et3QZyvQwzcPbw4gYmgSmFJKKaWUUreEBm3uGAMsGngyW6WI8xkKjG7/eTJwk727HZmA7X7M8/069VHjdqeMBTa6CV8eNOkCvtHP+OU26maUgSe1Ik/m5yk6R+AMboygx+F5LAG7sePr3X32BtG1n8cRsNXq8qoXEWEQdzKf5GzGOQo2YaVSZr7ggx+T7uQdRvDbXQ3gnZkZis6BM8cCV+6c51t8M+JXnQ57vf5R0Cb74noBK6WUUkqpW0CDNnfQLPDJ0jyVAIykS1h3fEnkJ9eMblMTGcO+g1/t11nvRwxgdGrOFEiAnoOv9po8a8e0JUdkjO9pc9Mbp86VAxYC+ObKAosuJod9jb42EBmhLvCs0eRFu3+tU6QSYOBgvdVhI3L0RNJYRVYadP4rMTiKWFZnq5TFZ9BNupOvSBhqRlyrUhNBbNZQ+ujqO69V1sAYtnt9Xh406DAUtFFKKaWUUuqW0KDNHSNABfh4adaXVTiLwXHUwiVdIsnZ85MiMbTF8LTR5Ktmi072hacsYAM+S6gewedb+2wlAT2TI0IOl//D/UfUhEgPRog/lz9dmuNBPiBMXi9XJhKhjfCy3eVX9VY6De16JEA7dqw32+xY6ItJmxCTRkvljMCNPxsD56gGwsP5WUpMR9DmyPGeNQVgtVxiJhe89m0kMgFNJ7ysN+gyHLTRK1YppZRSSt0OGrS5gwrAvQJ8ODdDNYkID6ckDXWMGBGpEASRbPqOsN4d8I+7DXbiCe9rMyrqkv6+C3xRb/DLnT32HPTJFn5yNFFoaCV5UQaEuibO37xywDsVeG++Rs7GmNfItXAI1gTsRZbPG212I4iyyd9XvOZPgL3egM1mi7aFRMYb2J1lp4TOshDmuFcukmfagjZHAvz9aLmUY75YGGdw1DGxBHQJWDto0LDD96GbvE7PaqGs9w6llFJKKfX6NGhzx2R9JGrA9x7dZ8Em5JxFTpRHnb3M8A1CLcIBhr/f2OFZs0cHn7XipuQNbid+gbdr4R82d3je6tI2hvjcqVFy4rO6aQGwAHzn4SoVEvIcTR+6mOAwtDB8tt9ks90jlutpZhsB24OI3W6fAYJNe9qIE5/lJqe7TGXXo3GOnLOslAosFqc3YJPJAQsFWKlWyCMEY99DhARhIIb1ZovNti/VnIwSKQ3YKKWUUkqpy6FBm9tsZLbMUR+Jby6Veb9aIp9YAjEnHnWxTpDny06fH29ssZtO35nISdkj1kwWGABf1fv8aLfJLkJkhOSwr4jzi/8T9VFOAzcTJSAtkbq3wL1SSD6JMK+ZJtOVgGfdAWuNNl13PVljHeBZq8dub5COlz9eDuWHfjtGnWcGH7R5OFNlTqb/Jh4ANQMrlRIlZwmtw7jxctocfnz7bhSz1u0dZcppTaNSSimllLolpv3nfXWeM1Y9WVnJwwB+7fEDKs6Ss1kXlzHeGU7/emAM+87wN8/X+dlBjzaQTMlCqQ9sDuDvXm7ys3qXlgmxQ41gM0d7Y3iGlrpRQ4fCAEXgQQk+ubdEKRlgzkz3Gt2hKA5CdmPLFzv77ESO6Mo2/EjLwotOj3qckIg5tmUjWoLDYRAnnRzlLI/nZ6gy/eHDAKgauF+rUjOG3LHJbRdFXxxWoG7hq52Do6DNVCS3TPwGKqWUUkqpCaBBm9vujF6mOfwUqe8/XOV+pUTBJZhx4xHpOioWQ9eEfNEe8CdP13g1gPiMiVOTxDloAT/ZqfO369usuZCOBMdru44t+mQohUhbE0+ErMeQ8z1R5oBvPlhhxjhC5865sQ2POfNfJBKhifDlfp2XvfjKgzYOaMaw3o1oWkgQrMjhxLYs68ZvoeXkOWecoxIGPJypUGT6l/4GKOEzbRYKuRM9ti64ztJytg4Bz/ebdC5+xo0a3raJzEpUSimllFITR4M2d1RWIvVkJuD7q4vM2JggfYd73JCERYjEsG1C/uzlK/702SZb+LKjSRUDTYHPmhH/77N1Pmt2aYkhzhrBit8DxlqKzjFnhBJZzx93TkaEuimHJVKLM7xTLpO3nBOAPBl847AvyotWly/qbdpXuK0O389mrxez3urSAxIhnRw16sw6yvVyCJL2s1kqlXgwWyHP7QjaFIC5Yp6FQoHA2hPzpc7hwInQMwEvGk12uz5TajL62owwLU2/lFJKKaXUxNCgzV2UDkUqAsvAb75zn0fFHKFL+7iMuQp0ArGBg7DAV4nwn774mr/fbBy+2z1ZyxMfcBkAa50Bf/zFV/zZ9gGvgjz9IDhsQCzpwjhEmM3l+GhhgRlj0owHtK/oJMmOQ5pt824ePl6YJ2/dGSVSow9eIr6f0Xbs+OVug0ZydYt+iy/N2+302On1GUjgAzbY9G+Hr5x0ghkGMGn2jSNvE1ZrVRZy3JqgTR6YKwQsVyvk5Oh1C+dP1cqaoveDkO1en5f79YkOGiullFJKKfW6NGhzh4nzGQrfmc/xg/srzGLJW4c4ky6TskXkGdL1pRXoBAE/7Sb8u3/8nP+6sc8mHH/H+7qjOCdSYmKENvBF3/EfvnzJf36+xWZi6AXh8Q1zjhCo2pj3qyV+4/4iS+IwzvhlsxMfrZqsiNSdZ/BTpL65usRsCLnXmiLlF/4dCfhy74Ctrh0a/X65EqCTwFazw0EvJpEst+08w6VRUHEJ787NUMFnGU170Ebwr2MmD/fLecqSEBADFjvWMRSsGDoWnu7V6TDUjPgGHD8ePqzk0tbSU3+wlFJKKaXUtdOgzR0m4rNtHgr85uP7PKmVKSWJn9wyxoJnuNCkZwwbuSL/X6PP//nTL/jzlzvsxD6rwGUPfp3aqzfmjjYuja9E4qf1fNmJ+KOf/Jz/+NUGv3J56mGBnglwJ4I2eWtZEMs/ebTKJ9UC82IJkHS/ZP1Gxptuo67IiQqiAD/G/sOFWR7WyhScTXNTxuEzO3pBwLNmi6939+lyNUEbi+9ns3HQpJG4tCxvTGlAcUbgycIcRW7PDdwAZYGVUkg1cATO+uy2C+Kj2RFOMAwI+Hr3gAOuZ2z7eYYbKR+7/w3/jQZ+lVJKKaXUGG7Lz/zqTTj8IhD4xlye315dZFUsBefSd/CPFhhn9DM+DIxYYCCwF4b8ZWvA//azr/h3nz/nZz1o4IM39loWKUdbGgNdYAv48606/+uPfsb//XKHr6yhEeRIOL4gNPgmr1WX8M1yjh8+qPKgGDKbCwmcTQs1jgI36oa4E585KrFZKQmfzs9SS2KC10xs6EnAnoVfbG2zjz9/LlsE7MWOtXaHpgREJjjjkaejmyL+/JwPAx5US4Tcrht4CXhQLjOXLxCQBo7HuGc4fLbfwAgvWy22+umxm/igyMRvoFJKKaWUmgDhTW+AulnGQUnggYHffec+z3YP2Nnr0sbREzmZ0HDmMsOJkADtIKBvAvrdATufPeXZ7h6//8E7fGNlkcXQL8xCRpV1uFN/8iYsfsEWAU1grTXgr75+wZ9+/YKfxsKG5OnlSsTZtJ7hlqcOis4yL5Z/8f47fJyDegIzuZCAAYkDSXvfOMdh02J1g9LTJgvazBv4xtIcf/P0OZsu/csxT6vIGFrO8NnOHus9uFe8/M3tA+vtNhvtNl1TJDl8ERcTIHCWpXKBlbKfAHebQod5YKWYZ6FYJOj3MDJOaNQd/j8SYXswYK3ZISqUL+mOopRSSiml/n/27uxJkuNO8PvX3SPyqruqq6rvA2h0NwCCIAc8wHtIzgyPIWe4Y5oZja6x1ZpM0q5Mpod9kOlJ/8PqTQ8ymWllptmdFcmdc2eWIocXCALEgEAD6Aa60Vd13XdW5RXhrgePyIzMurururKrfx+w2HVkZMYd7j//ubs4XBK0ESh815Ln++CLF87y4doNblTWqeoQHCitcVvl8jeDF2lugA/eLOmQGobF+RXeWnqLl46N8LlzZ3lmdIDx0I+lE7pW8KatevaANa0YP9DwInB7NeK1+9P87MM73FytMqsCFkyOapJh0z5ajw++GCw9UZXnxof4zPkxRvBTmJdyBpxtbme2W5g4BGmsrOM80fjz6qn+Eif6Sry75joW2P5NLY6G0kysrXNjqcyzx3spOjD7UPNPk0aqwFS1zmI9wprW+eR2XD8/jXmA48RgP0PqaIxnAzQPTU7BSE4zVMgRLteo7zIwqnA4pWgow1LkuLO0TOVYiZLygS0hhBBCCCEeZxK0eZJlxpgpKD+T1CdO9HBzaZTVG7dZjy0NbYisS+MVGxYHhctUoNOuClVlqGGoAYtRnem7M7x5f5bz/T08e/wYl0eHOd7fR08uoGT854f4EzKgfZ6fbJUtDbY08Bk1NecDNZUGrFQbTCyu8Ov7k7wzt8jtSp05AsqmyLoJqWuD3RCAUqAc2joKNuZ8PuBbLzzHGe1b/gsKioHBYJOZbERX2OJ8LACnS4YLQ4MU1xZwTlHfQ2QjVpp5q3jj7iRfGH+G/iQ4sh8ssGbh3uo6q7HDGYXD+cGt1c6BG+0sBQUnBgcosH/rdeiS42OAoZxivK+H4myZis1G5rbfNw4/C9iaMtxZXKbsTjAoQRshhBBCCHEESNDmSZZJRND4rkvnDHzt7CgTKyvMz66yYsEanUxJnLy4beHWj51/ccC6DqmokLIpMmkd75Rj/uH6BOM373Giv4eRniLnBvo5XSwwnAsYDAylMCSvNUYpAqXQaRaEtVTjmFpsWW5ELNYjZiLHdKXO5PIqUytlZitV5mLHkgmJckUaymCV9nMJqXQ9/eimTiVr6Rw5Zxk2mq8+fYZPDmgGkm3IKyiFITkcdec3svleouuEwGgAz4wMcWxymalGREMHu8qKcg5iFKtBnnfmFpmuOI6X1L50Q3L4TLDlBtxeLlNBoxW4JGCTZg5tF7gJrKU30Bwf6CO/D+vUVRwECvoNjPaU6DWa5diiMLgdRhdyyQ6MFdR0wNTKOgtVy3hRcwA93IQQQgghhHikJGjzJFMbf+wHnu8P+PqlC6zU3+cfl9aZt5pIKWxz9pPWOBJbvFXzN+ksLlUVUNeOitWUtWbJ1rm1UCaYW6aHSQaNpt9o+oymGAQUw5BAKYzWaK2JnaUex9SimFojohxZVhoxy2jKDmpo6koRmYBqaKiYwFeItwgypQEbhZ+pZtTFfPb4OF9+6iRjQB5fyc4b6CsUyGmNbk4nlOb7bFbBPuDpsbatqT/qedW7TwD0AucH+znbU2RpYYl1F7TN0r7lLlRgnaNmAibXq7w7PcvFC2P7ltXSAJbrMffXKlSVTgbybo2t1HnkOq+v0FpGCiWO95bI8zgPQrz5ETD4626kVGAoUMzU4l10bGtFvCyKug6Yr9a5v7zKxeLAtks+zCrvdKVlj6ZCZoo6DNsPo78Hzj3pt9W9O1IRZSGEEOLwSdBGtCngu0l97liOxqWzrF+7yxsrVdadxhndXrXcRc+F7NS3Fj/DS4OAsgnQzqFxaOfbygNnMVFM0ACz3kAnfbJsMjuVVSTRlhCLJg40kdZECiwuCSplVqdj+pns6qaZQwYoKMULI4N86+J5LudhEH9hOCCvfdCmoAN07IM1KgnabL3Zh1nC36fPfkwL3QYoASdKmqcHe7ixuMjw7mvGAAAgAElEQVRi+sdtIwA+gEcyC9EKcHV6js9dGGOIhwzaJFldDWBqdZXpWp2aCZIMkeR83Gp/p+e0g9BZxkslBkPfde/xDdpsQvnASwAcKxUYy4fcLFdxzm57Lja7aOKwSlPXiuWowf3lFWrHBw5mMGK1+4BN+3qKRykdXD4z3/oDcW6zkKoQQgghxKMjQRvRRuFPilHgCyf7qOkL6Levc3WlyorK0dCaNHSBc75UnFZi0q5HO3xCWvyNk65GypesiZxCoTHOz2qlkywEqzIt28lnWBQ283e71SxBrrVdLvNL7cDgGLYNrgz287vPnOWlwSRgk6nphUBPLqRoNKoe+cK71MC6Vnr+joRwebCP18OAKeua3ZO2XzLtxqSo6oD3Fha5vWY526MfemyUGFgBbi0ssdpoEJs8TsW0XTwb8jcUaZ8+DRSwnOgr0RccvZmj0juHAYYLivFijjwuGQB85/Boq4uUouLg7tIqyw7G9nFMIiGEEEIIIQ6DBG3EBmk3qRzwW8eL5PQl/vz9u7w5v8Jy7GhoTZxOx+scrlmp2rka2Z6ck3YNaWXUgA/mpG/pkiyb5rKd2TTp99tlKrTV+fwPIZDHcqW/h+9cPscXxoucTbY5O+iycVAMNAWjUM4m2yqtrt1M4WdDe7qvyHgxz/VyoxXY23FJ3w2wpg13qxXem53jkz2+i9TDZLbUgQXgzvIKVfw57tLBrZszJGXPrVb4UwHGOUoaTg700HtEB9hN9+9AAMcLISUNWnXO9LZRev07FJGDCor7axUWaxAX/PserQCXEEIIIYR4khypDHuxfxR+fInjwJfHivw3L17i26ePcY4G/VGdMMmG8SnoaUbAznYT8mhmz2xRYdt0ebf1VxpcAn/C563lmK3z6b4Cf3D5PF893stJNmYvaHwQp2g0RaPwOUa+Yu+kGtjVCsD5nhxn+3soYTGWXZ2j6SsipVlxhuszCyxGPujyMGJgvgr3l8o0XEDsdCaCqWiFFjq7cvhuWxrHQGg4XsqTe8h16WbptO0negr0B4ocFr3DgDDpeOL+y1FDcb8WcX+tSoSEWMXD2zmDVAghhBDi4Eimjdic8xWofuWDN329MPrR8xwfHuYHH9zm/fU6FQVVl44383DjBmRlM2uarehu6yFJdvpUnS5oYwo4hnC8NDrM710+z8sjec6z+RghGn+BlAJDTy7AqHTIWNG1koOTVzAewvmhfgamF1mPHIp0FrSdj2CMZs3kuLVY5u7KOqPDpQefiUj5oM3MWo3FRow1edCajWf65meychA4x7FCnvFCjvyDrsdjogic6CkxEBrydT93VLzDVd78q1I00Mw2LPeWV6kNF8gpaZ0QD0liNkIIIYQ4RBK0EdtS+IDGAPBcACPn+7k08Cx/f/Mur01OMxE5ajqggUlm6FG7CmtkZ/bIjjWTfUGzgX2bgM2uOAhw5KIGJ7Tli6fG+f0XLvJiwW/XVjPxKCCnoCcM6MkF6E3n+BHdKAD6DFwcGeJMYYqF1QrlXVS80qMbacWaU0xWa7w/v8Tl4RL9D7guFqgCtxaXWGpEuHySFrKbKYWURruYEDje28NY4eHH1+l2IXCsWGQgzBFW635A8h0HI/YcikgbVlBMlStULBRN+zhVQgghhBBCPE4kaCM2l4mS+EFQfWWqBPQNBZx56QIvzJ7khx/c4vrMPEtxRE0H1JWmoVSSeeO5zd50D6uxe+2fpJ3D4MjHMX1YzvXk+Ppzl/jtM32cB0bwF8B2n6GAQgi9uZCgLSTVCjZtXP7R1g7TDlut0YEexBEJRiU7IO3adrrPcHGgl/dX11lip8GIW/xMZ5rlyPHezDyfuXCS8eDBMjYssA7cmluk7KCBI27OSONQym69sPOzq+WBsZ4SA+ro37QD4Fgx4FhPD7nlKsrsZa/7kYLKDiZXVplfb9DfdwBhLtX654hcOaJDps1gV916H1etHFmXeZZs3N7djAgmhBBCiINx1Mv/4mF0lMIMrSnBe4Ezo3k+OXCZX02v8Oq9Sa4vlZmKHEtO0cDhHDitfagj7ee0oYvRFkXhbSZpSgckdg6UUri2vlO+4GmUouAcvVjO9eR56cQoXz1/io/2+mBNIdme3RQ0cwb6ciE57ackjgGnMhlCrlWkV0mxNy0I73sD/yaRIrXF154qGcqPh3skCt7Ob4sGjgXwTH+RnynHdGxxpjU1/PbvoVBKU1OGO+s1JtfqXBrI7XnWJofPsllqwOTKGg2TJ1YGp1Qy/rDDsU3QBkfgHL2B4URfL736iHb1yVwoAdAfwLFSiYJawOxwImfvJQqwylFzMLteZbZW50xf+OAndsf1lh1I3VmfLaWy94IdaJVWjy32yIYBus2Dh1z8QPiu+Q5HNmHL+anN/X3TolA4pTa8ZjPKv9pfD1u/TAghhBAPQYI2Yk+yWTcFYDAHp8/089KZfj5Yhrcmp/lgfpmplTJrcUw5jik7RR1FhAKt/KgiSuGUy3Q42i5zBVpBkdbAo34gZItyDo1GxxE5LH0KBkPDyb4il0ZHeOn0cZ7tU5zGd4dKZwLabeG7Dzhv4NkAhpUlVg6nbCsQ1WyhVDytYERZ8knp/sAK+JnaQw4YxvJU4Ihcg1irjjGGtg/h5LRlyMK4soSuffasx5nGT+H+0WP9vNRfoLjeIDaKeBfbp/CV8gHj6KlXWVuYx/Yff6Cdo4Hq0ir9lTKXwpCysck6+IGtdxrktOgiTuSLPFXK08sRncI6swsCoKTgmb4Cz+ccx6yluquN9tVq4xyBdoy5mMZaGY717OuqlhycNI4roWIk8OGX3VJAn7GcN5ohZ3cdOBa7lLkvKvyxOqVirgSOcbPbPLuWvLIcszBCvGNW5mPJgVHQpyxPhY44jmhoRaQU1rVyN7cbsS6wloKznDJQwGE4wsEtIYQQ4pAo53YzsIIQm7PJVwPfBWQBmKzAraUyt5dWubVW53YlYqZWZymy1GxM3VoazucXxEl7s8MHGraa4EfhUM41C48aH7QxWEKtyZuAgUBzspDnYm+B5wZ7uDwyyIU+wwg+Myg72PBeCpTLwI2lCreWyqyqEEuMU35g2+wagmLINbg42MO5gRK9e/ycXdkkZ30NuFeuc31xiQWnsCic0pl8nzRos/mlbpwjjGOeGijxwnDPQ09v3U1qwELD8fbcClO1mFhvHb5y+JZ15XwoxTkIXUwvMU/3l7gy1Ef4AIG4OnB3tcavZxcoa0OsA9LJrNQ2GWXg/xbGloEw5CPH+jld8NleO0Q4H3sN4OZ6xDuzi5RRRGq3Z6TvwqiwDDnHxf5ezg31sB9hG4e/1y1auD67xL1Kg7IKkjje7h6jCsjFEUOB5sroMKcL+mgGAw5D5zXhYNbC24tlJsvr1PTe26iMcxRsg+fHR3mmZI7kzG0NYHq9wZuziyyiiZRvVNntjJAKMA7OFQI+MtJHX6CarYFyXgshhBD7Q4I2Yl84IMJXkmv4LiGrwIKD6QrMrjWYW1tnfm2dxWqVxVqdtThmPYqpxpZGDHUcDcC6pOXatUrhGjAockYRak2PUfTnQvpzAYP5HKO9PYz1lDjRX+RkEcbxgZoifqDhbLeWvbYCNvAV71ryfXabsxQ+MJRP/t20irAfle3sByu/39P1q2Veojpevl13M41f7x72loXU7Sx+/1Tw+2a7jhLZ7g/Z4KAhmfqdB8tysfjjU0n+7exqsVPQxuDPpQL+GB2VY7OdtFtZFX/NbZfLkg1JZnPLdrwWH3C96rSut2iPy2ePZx7Iu2R2O7H/HNSVb0xosPvxrLLS41XAj+d2VILZWek9cp3W/Sm128Khwu+j9B75II0jQgghhNiaBG3EA9kp8OHwheQYXyCMgLqFsoOlGBYsLMaOFQvluqUawZqzrDtLbH3x2sa+qqaUIkATKkMx0JRCzZCBkVAzEsCQgeHAFxhDfIUot8X67UuCwmbRmo5Ayo7L7WPQZjcv3/PHHYX89uY27H5j2l7ZsZ/3bZe4B3m/o3BA9mgv19R+Hp+92ssT9Ak7hI9a2yWfOqB9fqSvyAd4xmzmyO4fIYQQ4hGToI04MGl3Apf5Pg3ipK3VaQto2toX0T5rR0rTynpIgzLpvzl8sCZ9jWL7bJGHLmxvd8XsJmCz3ev2ug77XSo+kt1u9njE9/tYbfMxR2o377fdnIuHeb7u9Tx5BIEEkXEk72VCCCGEeBLJQMTioWxXLk5TyzddKMlOcc0xQh6gCpt5n85Fs91gOt/1ocvw2TfYtCL2CKrje3n73a6OhG8P3oZUnu0PzBMd2NnNhne+ppsr6p0ZefCEH+ADJvv1Ie0hyigBSSGEEOJASaaNePT2u6Jy2BWf3Xz+41KoPex92S1kP4jd2Ot5IueVEEIIIYTYIwnaCCGEEEIIIYQQQnShozgZghBCCCGEEEIIIcRjT4I2QgghhBBCCCGEEF1IgjZCCCGEEEIIIYQQXUiCNkIIIYQQQgghhBBdSII2QgghhBBCCCGEEF1IgjZCCCGEEEIIIYQQXUiCNkIIIYQQQgghhBBdSII2QgghhBBCCCGEEF1IgjZCCCGEEEIIIYQQXUiCNkIIIYQQQgghhBBdSII2QgghhBBCCCGEEF1IgjZCCCGEEEIIIYQQXUiCNkIIIYQQQgghhBBdSII2QgghhBBCCCGEEF1IgjZCCCGEEEIIIYQQXUiCNkIIIYQQQgghhBBdSII2QgghhBBCCCGEEF1IgjZCCCGEEEIIIYQQXUiCNkIIIYQQQgghhBBdSII2QgghhBBCCCGEEF1IgjZCCCGEEEIIIYQQXUiCNkIIIYQQQgghhBBdSII2QgghhBBCCCGEEF1IgjZCCCGEEEIIIYQQXUiCNkIIIYQQQgghhBBdSII2QgghhBBCCCGEEF1IgjZCCCGEEEIIIYQQXUiCNkIIIYQQQgghhBBdSII2QgghhBBCCCGEEF1IgjZCCCGEEEIIIYQQXUiCNkIIIYQQQgghhBBdSII2QgghhBBCCCGEEF1IgjZCCCGEEEIIIYQQXUiCNkIIIYQQQgghhBBdSII2QgghhBBCCCGEEF1IgjZCCCGEEEIIIYQQXUiCNkIIIYQQQgghhBBdSII2QgghhBBCCCGEEF1IgjZCCCGEEEIIIYQQXUiCNkIIIYQQQgghhBBdSII2QgghhBBCCCGEEF1IgjZCCCGEEEIIIYQQXUiCNkIIIYQQQgghhBBdSII2QgghhBBCCCGEEF1IgjZCCCGEEEIIIYQQXUiCNkIIIYQQQgghhBBdSII2QgghhBBCCCGEEF1IgjZCCCGEEEIIIYQQXUiCNkIIIYQQQgghhBBdSII2QgghhBBCCCGEEF1IgjZCCCGEEEIIIYQQXUiCNkIIIYQQQgghhBBdSII2QgghhBBCCCGEEF1IgjZCCCGEEEIIIYQQXUiCNkIIIYQQQgghhBBdSII2QgghhBBCCCGEEF1IgjZCCCGEEEIIIYQQXUiCNkIIIYQQQgghhBBdSII2QgghhBBCCCGEEF1IgjZCCCGEEEIcaS75EkII8bgJDnsFhBBCCCGEEAdJ7fwSl/lX7W6RtuV2+3ohhBB7IkEbIYQQQgghjjK3xfdbvQbAdvysMl+WVpBGgjVCCHGgJGgjhBBCCCHEkZKmy9DsGWUtaAvE4CKIGhGNRgNrrf9yDpzDOodCobUCpVAojDHkciFhLgCDH2BB0f69EEKIAyFBm6PC4Vs9LNJleb9ofGEkWxBx7L1gkh6PpKDU9Tpbznb6N6vz3NtravVeljnq0uEH0uv6YaQF625uFc3evx70HrbZNfukSffhgz4LFH4/7lclrPM8fpKeT6rj+/3cr1mb3Se6eT9nu91kv9+sS85Wz5kn7RrfrvtR9m/Z7k1WQQPcOtTWY9ZXqpTn16gu1WiUG1TWq5RX1iiXyzTqdRqNBnEcE8cxzjmMNmij0doQGEMul6NvoJ++/l4KvQVyvQG5PkPvUA+lgRL5UoAqAjk2Pm82O2ZP4nHcTtuxo/1ZuNd95Wh/Hh7l/ZzdR3HH7/bqIO/TQjwkCdo87jI3q+V7ZSY/nIG6lnvNnqnkoeifklZZ+sZ6Of3cOIQdz8sHKWjEMHNznrnbC2hnUF06BrgCtFHoALRWqKSyr0NFkA8whQBTCskVc4SFHIFRaA3aGBnW/AA01iImP5hkfa6CctmSxE4noP+7w2FVTFjSnL9ylnDYHPAaP4QazNyaY/b+PMaGKKdQyl+XO5W/HIpYxYyc6uf4pWNPXuAm26Beg3s3JlidLhPYHLidd4RLbn/OOVTecvzCCIOnBv1+fNj1chCVLfeu3aO+GOHQ4La4WaijM1BqW6xfOVQJnnruAsHgAXxYDOWJMnduTkBs0GhwoJy/VxzqcCNOJR/sQDmUVhij0FqjNDjtUHmNyRlyYUCuFBL2hpi8QYVgdOCDB1q1P3v3sFHNxR7DIMHWq9zxl/T6jxz1aoPKYpWlyVUW7i8ye3eO5bllyjPr1GYa1BYiVDXANhRxBDaKcdaBs+C2HszGGI02GhUoXMGheixmIKJntEjPaA8DI/2MnjzG8KlB+o/30jtSJNeT8+WDtgJUdoXbP+oxPET7rwFTN6ZYnFzGWANOJ4dl8+OiSG6dtG732kFcaDB+4RiDJ4eeiNqeW4O770+ztlDGWNOMYe+mtKQcWB0R9GjOXTlDMBR0vEKIw/cEXMZPCAv33p3k7//1P+AWNdppJHSzF62SYKwssWlw5QvPcPqpcQiSZ2XnS3fLAVV49yfX+cV33yCM8xiC7jw6SZlAGdBKtQrVAQS5gFxPjnxPnr7BPnr7e+nr72FgqJ+hsUF6hnvIDyjoB8LWex35Vp6DEsPqxDo/+bPXmXl7AX9FK18R27Feq5L6siPSNQojId/6p1/n7GePd+dd34GrwI1f3uEnf/FzcusFlEsqnzsvilOOuq5x8eVzfOeff82fg0/SOZe2ZDtozMb88rtvcuNXtynEPdjIbb0rXLKoAovDKUswCr/zp19i8MQ+BG2ScS/WZir8+M9fZf7qCgaDstsdnKNy4FxymTpi1SB/MuDE/3SCvv7C/rfiNmDizTn+6v/6AUGlkAnaQGfQ5tHu3ewnWl8h1w6lFEornLK+dpk0CuTyIcW+Ir2DvfT2l+gd6KG3v4/hsWH6j/WQ79OofiDPxsDsNhumdvGabqW2+iGtnadxzgrUZiz33r/PnWv3mL41w+LkMuvzVSrLVaJKhIoUgcthbEDgOzwlZcWkZaqZ3tE6QZslIwfKgq1brLJEazHxYoPoXpV5s4oKFUHeUOwpUBzJ03+8j7EzI5y9fIZTF0/Qd6Lg78tm+4PwGB6i/ZPex5fg1e/+ig9e/ZCwUUCrAIfaIQDvOn5yRH1VvvCdl/nEN4b8vk8/44iKlhy/+st/5MbrH5KPSrTufZ2RXt9A0eLQQN1UGTjXwx/8t7/P0GCf/5PasbAlxCPTjcV38SAsuLKmcitCz+QIrO7abI6u5iDWjnrgiC8piGhv+nnQB14M0ayldtNBQ+Ns9x4bh0uK1zEoh1M+88hSQRlwxqK0IggNJjTkiiHhgKEwnKPneInhs0MMnx7k5IUTjIwPYUq0B3Fg4348wgWJBxbB6r015t5eoXE9h1HK76Y9dLFzOOoa6oNVpt6d5ewnujRoA6gQRsIx9EyOxiRoq1HO7OrcsMTUAsudYBI3C6qPJ6rJ1uF8MC+G9ekac1dXqFy36FjjIlBb7AjlfLHWKYfFEhsoBkVGe8f3L+HFga4G1CZi6h9o/2zasrvfEYrwNlu+Yxoa4kYdsx76evF+3/4jYCmkcsNSLJttgzaPlAO/senFmIaSk/+UxRJjtcXpKlaBMktgHCbQBIEmKATk+/MURzSlsRxDp/sZO3uMsbNjjJweJewzvjtO1hE5hYBNMopcKzUu9tkFE+9Pce21D5i4Os3ch4s05mNsBXTdENoCfXEv2vlxaVAqCSdaXJKJld4fXDM3oTOqmBw/BwYLDkLlUNaB68c1gKqGssXNW8r3qiy9M82dwhRXRz6g/3SBE8+Oc+5jZ7nw/DlKIzn/HOreYtDhcVCft8y8tUjlmkVFBqUCcCo5XluxbeeIw1HuqbJwbRU+D/RxtK6LTZiaIpqy1D6w6KpCKY1D4dqCNq75HZnAjVZQDSyhitHrnTcUIbpDlxbfxa5l+jBrl2TYOJN0wTnid+h90haTcUCyH/d7/ymnMGgMBuO669JrL561Woh9+TD9jcNZh2skPzuIcVSIKJsKcRDjQtDFu+iSYWCsh5NPj3LhhbOcefYUQ6d6fcEhaPuwI1+Q2LO0HFGDxYkl1ubXKNhhtALlXEcL0U4UgcsTV+rM3l7AroHO0313fgXkYeTsEMNjgyxNrqHQaKXZzeZqFKHNsTJVZvF+leHzhSeqQtC8V8Uwe2+BylydMC4Q2BzOxTtfYg5QEZGqMXpymOGTvfu6/7QzGBcS2Ahj9TYtxkene1QaLFFOoV2c5Mnp9E/7Tqf/2QCDZlcXzoFTzcBRmtaVPlt8pSnw39nk2YLDRb7ZwD9fICaiOlljXtchtOi8IigZSsM9HH/mOGc+cpoLz51l9HwfDODvbUfpuZLJomv+IgZWYPLaIr/60a95/5UPWL2/hqoZVF2Tc3lyhOika03rjXyGQXv2QSsnLP1p4zWY/TnJwHHZ3yTBVqdRCkKbx9QD4kZMZa1B+X6FybeWePtvP+TCx0/z0d+8wtMvnicYpdWgI0hiaSxOrbK+EBNQQpFHWYdzPvt5azo5TGmGlMPUQxbvLlNerNN7Ine093MaJPclB3TSnbwVkGz9HTYm6WkHxhmMM9JLQXStbiu6iwehfAlFJYVC5dJuFE9QreVhqLTFOfkx3X/ZWssDFAI7F/HHRvnHSBcdm8627Q1Ftk3K/q2EGd9dJ7YxNrLYCrCmiHXM4uQ6M1ff4Vc/eJOeE0UuPH+OFz/zAk+/eA4zjG8dTQukT/IzsnP7058rsDK5SlSO0VYl7UX+v91Vx/yRNTZERY6F+0uszKwzOFTa/214GOnGaOgZKzJ8fISVt6oop9GYZDaTrRdPd11gA9ZXLbeu3WX4U888WU+39KKtw+y9eeJVCF0ek+6/3VDgTMypCyegh4e7JjuyA1RSiDbWNyps3WK8H6NudwvV3H6NzgQvDujTXNJwk/wH7tDjNu3PFtW2Pm1Vp46uCtkuOgqHsr5LjmtYWId4ybI2HXP1gxu8+aN3KY3lOPPsCZ77zGWuvPQMxdHQd6HauBKPt6Qb1Ny1RX7+N7/krZ9dpzIZ01PpoVjvR+MDdr4rrS9vxEkm3UYbd0r2mLgtAzeq7Zh2/uuc9o1TLiBQkLMOFztszRIvx7wz/QHXfvUeZ188yWe++Sme+Y3zSbepLVfryeHA1WHiw2lqyxbt8igClItRbrcFpSTk4CxBFLI8scrqXJneePgJachQgEY3x/NqndVObd4Um5b/lWt2Qn90qyvEHjxJxdojrxva1R5HneUZX2TsuGl33sMfOIiTjElyBDRHKlCQtmgYBS62GGsI4gK5Rkhcj2gsNXj72g3e/bsbnPvIST7/rZd5+uUzMIwvrD2pgRuX+TcbwLJQXbDMfriMqpuk6OG/3K5qIa3XaBTEmtW5VZanlxi83GVBm5SC/LBm9Owot/PTxOu+zcwRb7m5na29pqG5c+02v7H+TGsGkyfI+nKN2bvz2DIEu9x4lwStnbLooub8lXNQ4uEK+Jser6QyruwOYzMcnRuBcm4340Dv16c9qg96CJs9SDc2bzT/qtKArYLMAP4GUJFFxwFx3RIv17hx4y7X/7+bHL/8Gi9/41O8+MUr6HF8Kfdx2DVbSe9xMbgZeOMH7/HT//cVFt9fwdQLDKgSOlJJxVODUr4HXseudZmgy2YyT4tNAjabrVBH4K1tqaQU5VqNDBqNcQpd66N+r86NqQmm3/xrPv6NF/ncdz5D8azyWTdPalkgVYO5iQVcDUwzU6QzOLad5CgoRUDI+nyVhelFTkTDfv8+IdImLi/NDtu+lrT5vfpJPhlFt5GgzZGweYGnG241e+vI8WDL7Zds9vGGfZctSDzUyu3XUelcif15371umssW1JwvnhllwFkMISYOcDaPU1BQDer1Kjf+4S43/vFDznzsBL/5T77IU79xDjNEq3C91X7uhhP6oKQFawtK42eDWVhjaWLF78O29qLd7ogkCd6BijXVlSqz9+Y5Vz/ZXRWZTLBKlWDs7Cj5wTwr6+uEGHaaJ7pZFXGavCowfXuatdk6PYO5J6cCkOzDtfkKSzMrEGs/zpndeQAklXSBjFVM77ES4+cH9m32rY27f+c7TLaVc+Ord5cx0D06M0j2/91Vcy/vd0rJ9pX8vbxD+2/an/Sq4/ftXXda29bq9OHP2QBNQIiLAApYFVONKky+Ns+fvfs9fvZ3v+DTX/8kL3zuOfJjbN4Np5tPHWjFtNZh+p0Ffvhvf8p7P7mJXg7pj0bQNkQ5TWxjjFa+66yjOeRN52xsO5+BrSfN7lau/bUbf8pmUim00hgbELoCOZunfnedH/7rn/HB1Q/5yh99iUufPQ29tALG3X58HsZml5eF1dkqM3dncXWSLj4tij3cRRQoa2iU60zcuM+za0+jCxztfZpoH8cGdrPn2v/6BOwk8ViSoM0Rkg3X+BaOw/NgxdO0VcYXNFxyn33k2+HSouEmKThdcS/vXLf9C9jYzNs1p5BMfrdZRlJrqcxghi6pZDtAJS2ADpQKMPRQUEWipQbTP17hezf/litffoZPfv3jjF4aQJfU1i38XbP/91FmexzQjFFEsDC1RHmuQs4UfAuqbXvlDlzbv9oZauuWuTtLsIrPpOim/ZmuRwCjp4bpGSuwNF3GRSrp6pHtMrN5tw+FQseG1dk1pm5N8/TTZ56QdPBEBKuTa6zMrfrgn2u1LG4f6vBjiMQq4ti546hjj2h9N1sn1aqep9Zj1lYAACAASURBVONmtWxyT07/otIMxm45oaHVxSdt+d4sq2T/tVrm9/YUbr/Pt9b1YTOFtgu8pVmn7XH6tCOozbSMq7YtajUUtP6unaFgS+RcnkY5YuGXa/zdjR9x+407vPS7H+XcCyf9zFNb3hMO8Ya42Ucnj1a3DNd/+iGv/Ns3uPPmJKXqIIHLoV0AzuFcjFa0jXWWHkObvG1717zOlpHMPSIZv263XfmyuTXpkfRluI7JltPBj9NLAU3ochgM4VqBuVeW+d7EX/KVqS/ywu9cITemNtZOuul5dRCSQ7E0tczKzCpBHCQDiifhB7X7azq9hLXSRLFm/u4idtmhh31gT207No4Qols9SUXaJ0K3FVv3Jg0AuI6CxkFvUXsOw46PxkPfyartP2/rCs1uNJfeZLsUDuXchv3TKtan1QSX/K3VmaftfZJBso0NydkCPXaQ2oTj1T9/g+/+q7/k6t++TzxNa8aujStypDXPeQtUYPLWFLW1enP8o722mXa+u606lu+vUl96gMUfFQ0Dx3MMnuqF0OJc+uUyX1svbFxItG65f2MS6smvu3Vb91sFFu4us75QRVtNpo60qbYcEOVwQcyZy6f8YK5dea2prb9atfgu+tps/btXep/332/ybDnAXbTx3tZe6W/L6GSrPekDN4ENyccFSo1emDW8+ddX+f6/+hte+/5bVO82/H1h0wvjEI9PZ5pxErhnBl77d7/me//b33D39WkK1V5ycQFjTVJU2unmttn1kn5I2x2A9BhvF7DpLPpk32VjZkPHCzs+3w/QHZCzeUpRL5XbDf7qf/87/sP/8UNWrlehRivJ8qgFbDoPW/pzAxbuL1JZrqKTbMmHGZhKoTHOMD+xRHmm4icETQM2T8pzUYgjRDJtjhhf6PIDz20/PeDB2/szIWnl6ShktNrSDuIp01GQaFub7pOOP9E+Ir4/3g86Vo5L3nc72eHcmoU0lW0pTc675KdWPHjzvaicRsWKYtxHKSqx+MsyP5n9JSuzK3zka5cYONPf6t+eviVHr+zWJrur1mDmziyu4fwoA671AteWdbLT3kh3nELFhvJMhaXpFcae7u/Ou78CBmH47ACmAFTsLi9ElQzybXA1xdSHM7AMFDnCJ0wi3T9rsDixRqNsyVuz4c9bLqrAqpigZDhz+WR3nhcJ12wh1pnMP8emmZHdZpvKcHdoD4uoNO3PpfkaB/ep7Zk26fHUgMGp2P/F6eTJ4pqv3eLp4qe3jkPCJIBTezvip4uvsjK9wkvf/CiDF/taAxV3hcxeUEAE9YmYV777Oq/9m7eIp0N6dV9zgGmc21XAZmO+9XZ7rVX22u5q2qy0lI4f0hkGypbefDdM/4f09+k1HBAyEI9Qm6ty9fsf4CqKl//4RUYvDzWPU6tseIStweydORrlBiXbg2pOz+7t/Q6n0E6zNr/O0uQ6g1HJj/XW5bdKIcTmurh4JvbEAc4mD8rDTxVvVd73UpjOhgaUTwfNBCgOVlpYcZmUh256svnAjMVhlQVrkxYTv87OtWYWehDWOlCq2T1B4Vtkmpk1LinSKZ3MRJEEErRKyo/WF8Sa3RvS2Uu23oe+WuBnuMg1CizfXOen/+Y1VpfW+Nx3PkXf00V/h9LZZY44BViozMfM3l1AuxBsawe4tirOHvaGAm01lfkac5MLjMVdHLQpwdi5EfI9IW5x+/FsWgtBWo1QkWLh3grrczGlcbOxafgonkQWygsRi/cWcXWHUtoPgrvTcs5hsUQuov9YHycvjLZ69BzGfnK0ZrrZsPI+gOma92l/d9qi40yXaa98HfT+TTMeVTKQ7857JQ26x8Q4ULq1UHPg6P1ZYZX5Tintnynpk9/hf0fyXEGhVftI9a1HylbBh+S9k64lhgAdaSr3yrz+vbdZXSjzxT/6LMPP9bXPMHWoMtliFqr3In78/7zCL773K8xCkaLuxaRd3tOYzY7v2SqFtX725YfINYh1DMahQgjCgDAMCQNDEASowOBw2NgSxzFxHBNFEY0owjZiXORQkUG7wM8Kp4Nk2JrMYDSufR2cauVNNbv8JH91STkvdHkaq4q3f3ANR8xv/snn6b+UhwCUPvSDdLAcRMuwfL9MXLVJbygfMH3Qu1o6OHWj3GD+7hzn68d8QwZ0wTkvhNirbiy2i73IZCI45SBQ/qhatWEMkkcjKWxZP/NLtrtTdnU3X9QXslDJeDbK971N03U3n7ZyP6Stesn32oFxvoUvrQ9seMA92lqNUw409A32YvIGR5QEtHyBNm2FepCgTVuKc9KCZ2OLjSPipIAWRy6ZOthik8/SaNA6OWQKbCYDRKsd43XZ7m9BXCCIC1QmVnnrL94niiK+/J9/jp4zhc2Tdo5igSPdphgWJ1ZYni6Tc/1ojG+lbO7QnStQndebwldeolXL/P0FGpXThLkgOQiq88WHI/3cAI6dGWZguJfFe+uobbe3GVYkrZ2qWLM+V2P6zhwXrozvZnc9/iJYmV1heWqZkBClknvvTq3xPkpLrBqcuvA0ZoRD3V+Zet5GCh+E0D5g06q7JxX0bg3YpOscgFPpSOMH/ZnJIXQdwaJtl7H09pcIe/PEWGx65TmSffzwnHPEsSW2cfKM8adoHDWwsc+q87sraMaJfPAF0uPrnzLbb1M2/1M5g3aGHjeAnYl49+9vEkeOr/zp5xl6trc1w9xh3/8ALNgZ+Mn3fs7rf3GVcL6XIr0Yl8yi53aaea3Ft3llO5bFoB25Uo6h4X76j/cyOD5A33APPX19lEpFCsUCQWgwYYADoqjhgzWNBrVajWqlSm2txurCKkv3y6zOrlFeWKNeaeDi5BxRppX1m0aZyO5WPw5P+rts+MZYg45K1BYVN344Qa70Sz79Jy8ydLbvgdoqulL2PMuWkSyszK1Tnq6gIpWMDdgekt67pFRYV9y/McFL5Su++6sQ4rEkQZvHXXpH13DsqUE+8fsfQa2GaJdOFfhoBTZk+V6Zq794F13JoTsKqNs/gHyJraarnLl8inPPn8blLVbH22Zs7IdmWrDznxfpOuPPjfhU0k3L2I923zocqqj41O99nKc+doZYRUmgLlM8fYjucM75oIy1FhvHRPUGjXqdRq3O+lqNylqNcnmNxdklVuZWWFuoUFlqEFcgsDkCZdCKJH37wdcjsHnq81V+/R/epa+vjy/9p5+CUdorko97oW07FmjA/MQS9dUGhY5j6pRKKlBbX0mq4/v0VdopokrM7L15KosNwv6guzJPMoXZwRMlhs8OMffeCrpuMC7Y4h6QzbDwG2JcQLQSM3Vzmgv1cf+U212s6/HkgDosTC2ztlBDE+6p/ulwxGGDp54/Bz27XOiR8lmGFC2Xv/AMfaM9WG19+FiRDLrfnUEbl/x/rCMYicmN6i7cv75RoG5qfO63Xua5L1ykHkS0OrsmD8B92L3W2mYQoNGIqFfrVNerrK+tU14ps7y4ysrsKuvzNSqLNWxFoWONcUGrPKP0Jpdya6wr3xaQZuVkcnedRmFQqyHXfnQTXVB857//GmqcVuDmMKT3JgsswRt//RZv/uW72EVDUZVQzvi6fVsjyM7NYC7JqqmrGqZHMXSql9OXTnLhynlGzx2jNJIjN4AflD7E3yfTWeOab59LvpL1i4EGsA6NRVhfbDA3ucjt9+5w59oE83eWsasGQ0Cgdq5epMdKKYVLGn20g5wNacw3ePsH1xg6PsCnv/2CLweQ7IijNpCuAyKYv79AeaaCtkHbuMMPE7hRKIw1TN+Zo7rkKJxUXXkPEkLsTII2R0HSG2Xs2RHGzo74AewOSwNmflrh7V+/haumJSHV/P9tHzzO4ZSloaucfeEkL//pFT/9o9lpwX2wWRZHAR+0yf7ukFjl0KHl2JUBer8EPl+Y3ZTddiet86RflvaCWjow4jpES1CeabBwb5W71yeZ+GCS2YlZ6uU6gQ19yvQmka7OXiqbCVyIig3VeccvvvcGhf4cn/6jj/ljoTmiQ6cnpfa08L4Od67fhTqtlu40vxxotiDv8K6dnUaU0xBZFqeWqS7U6T9T7N792Q8nnhrnWvFDXKT8Obil9otXuwBbcczcmaO2YskXu7OivJ/sOkzdmqFRjjEubP4+HQNrW9oR9gecunSia0sEFosuWj7xuy8y9LF8+5TA3ReracmedwHQxyM5F9sr+Lt4PY66rjP01ADFz0MxHxzQfjXgQnDF1vMlohmspu67iFRmYeneKvffn+b2tbvM3J2lsuIHZ9Uq9GPWuG0Ov1KZIG9rvBXlDEXbQ21Z8+bfv0Oxv8jX/+svwjCHF9RNN6IK11+5wSvff514QlO0PRjnCyB+MPb0xe0LZzvP+KQoi8MSmYjCQJ7zzz7NRz5zhTMvjJE/jT8HC/hATdszNXmqbLcPMlkh4RkYiEMG6mM8/eUx6pOf4N6v53nnpze48dZN6uUKASHamY5syY4jpjRphELhfLOPDdDWUJ5a5vV//2uGjg9y6ctnWuWAthV6zG7una0q4DOsarAwuUi0YgkJ2/78UJei82MGLU2vMHVnlvOXx7r2Pi+E2J5cukeFwj/Q8hxuIbYOqt8RBQ3yqtCW/bHTarWSeGPIWzgGpFN0PuptUhxeIW4DPyWvVZZGUPPH+OESWvb68W3fBxYGo5DBeJinysPY2ee59+48V3/+Ltdeu8XazColShhl0Ek3KduclWT7Q6mcH+cm1yhQn67yg//7x5y7cI7jnx1qPw+64rjsl8zGWLBlmLo15bu5OJI06eSV2/YfaZctyqeXoXaa8uwaK3fXGHt2AMLMZx/2Ps1kDVKAk0+fIOjV1MuWUGuwdlcZd9ppXF0zPzHP0uQi46Mjvvn20DfwgDholGH23jymbggIWtfZjrvLERPRO97L4Nn8o72v7JJTYJXFmgb0WxihVXLp9qBNKpsl+MieKy79365e67QlMg3/fDmMQXqTFQ1OQV8MffU+zqz18enFi0xfX+Hqz69x9ZXrrE6XyVMgR84HZ6z1u1TR6g3o+2g337htamqnCFxIuFLile/+itGTo7z0B8+2xvp41BwQQ+VWg3/8q3dY+rBMKU66xZKO4NR5FNNAf9JV0CWtLFrRUDVcIebUR07w6W9+kqc/MQrH8eVDQyuraMO5uIuTMnuPTrNz8kAv5MbhqUsjPPX5Ea7/7Bw//fevMn19hnxUIiSHix0Yf4NRycFKZzJqK2K4pFOXglwjx/L7ZV75i9cYf2qUgYuFjqBNl92sHpSD6nKNmbuzxBWLVmZfizrGhVTLdSZuTHD+t8Yey1iXEEKCNkdHtwQYYoh0nTid8SGx+3K1z7aJdZROHtG92QCPmMMSq0ardeyR75dMF6y0Mb8H9CicvTTC2S9/ni+//Xl+9P1f8u7P36WyXCFHAU3SVc9l3gfY6oRVTpFzeVRDs3K/wl/+n3/Lf3n2j8mdU6307aPKwdzEEsvTS+QIH6iL405BsepSjeV7K1A96VPju21/KsDA2Nl+eo8VmZte3VO9XKFQ1lCeX2fp/jLjL4wcvXT6VJJWvzyzytzEPDo2zQHEd7PPnHbEOubUxbMwTvedC0D6TLA6oqHrYIpSctml3V43PjHHdw1uPlsO41xw+Ht8SDMYwCiMX+xn/Euf5CvXP8krf/0er/7H16jMrZEjj1EBWP98SQMc2UB35z5QaAJC8vUidtnygz/7B566fJ6hjxVbz7XN1ssvvP8sRMsxr//gTe78apqwVkTbHDrJPnFbBqtb3YSUgljFNEyd0okCL3/jk7z0rWfgPD5buPO5+TDbsVU35QC///rg0qlxLr30bX72767y0+//nGi1RkgRQ9hxK+5oEWqLJjgCm8PUDbdev8s7P7rOZ8Y/CgOqK4PLD6u22GBxahkavivfZjNyPRiFdgYdGe5evwfrH/fZVkKIx45Uh4UQu9fZYgy+QJgDhqHwWfja//xJ/uR/+Sec+vgorhgT67jZ26q9ALJ1cUQpX7Duifu5++YUP/7uz2Fl37emO2T7MMVw673bVBarBC7cpywC1ZxFQqGIKpblqTKsdXz+YcqW15MvM+JnkXLGp/vvhUJRW6kx/+EilDPv3w3bul/SbYlgcWKB1fkyYEDp1ubuULFxKsbkFWcunmp1l+iWBgDx5Mmee0nwthkM6Ac+Di//D1f4r/7XP+LZr1wk6qkTuRiL8+N9qd2O5acIVY5CXGLtdp0f/vmPqU9HrW6YB32/yL5/AybenuHXP76GXcoRUkIp4zNO3A73PefvjU5Z4lyD0eeG+Pa/+B1e+qfPwEVa2TVbBDn2fRPTY9YDPAuf/e+e51v//LfIjysiXSG2kd8uG2OdTUNsrUyh5v+rZKwqH8DQKwFv/s1bzF1baX9eHpV7eh1WptZYmln13ZidP2j7tWnKaYwLmbkzi53epzcVQjxyErQRQuyo1bmJ9oJ1WhjUtFKlR2H8t/v4k3/5bV761kfRww6MxWk/oGirbr518do5i7KO0ObIVQu8+R+vMvnrBT/uwd7q790vTYtwQB0mbk6ibYhy+zk6ZiZwEylm786zOl/fYayYR6SzsRX8PumHU5dOoHIumXVnsy4CGynnC/zxumXh7jJuOfOeR1ENliaWicoNv4nOzxrVHA9pS36C50J/3gdtDnMwViGy0meMH4im9XwJgQEY/EyOb/+Pn+cLf/gyPafyNIJaMjC17yK0HZfMl60smNiQrxa59osbXP3pe1Cj/R50EN3v2pNJcIvwwau3mP9wmdAW0K6VRqbS9d3qrZQf5LqWq3DupVN851/8Lme/dsx3IcwGYbNv2PHjgdwWNb4h5xg8+4fn+c/+5R8y+EwvjbBCrOrtwWRHMtuU6ojD+Pu4RlOyPSzeXOHVv3sdljl6ZYAaLN5bYX2xmgyYrZozcO1HXEqhwCpWZsos3C+3xiwUQjxWJGgjDoZjk37Y4nHW3tnN0RwJsvPLAEXQH4HP/Rcv8qlvfpze4aKfBSwpUKu0X/uW3Vb8ZxhryMVF6pOON37wFrX56MgVNtp6jS3BxO0p9KYl7oflC4LGhixNrbI6t+aDNq7j67Cl6xDA8Yvj5PrCZKL5zhdttcIK7TQ0DKuT66zMVVqF1KMWuLEQL8PkBzNQU/6atDHKWdQuxv9puAZDxwcZPtHb1oXiME4DtcMYqOJJkLmumxkVmchJOpZKEXgKPv3Hl/nMdz5O78kiNmkY2EtPSOM0eVskmne8/eNrVO42DjYg0HlhNeD++/PcePUuas0QoDAOlHPJVOs7v50NLSdeGOdr/+yrDH4657Ncst2hOvfHo7rIFM3uUse+UuKrf/olhi8MUFc133ig9CapgKrjJ38vD22OsJrn3Z9dZ/7aantjw+N608g+wiqwNLFKtBb77uR7uAGn4znt9CKNpl6OmLgx6Qf/7qZnvhBiVyRoI4TYUXuL3DajaWYLiiGYC/CZ/+R5rnz1AvRHWCKUVqgdWkOznxPYAFPJceP129x+w8+qdJSo9P8cLN+vszCxjHYBale3542lrtbR2TyTyWBYX1xndmIOqhsWevS2+swAxs8PMTjWT91Vm12k0m1rD2pl90PyilizNLXK3MSiP2eOYuHUQWWxzuytOUKX84V35Ycv3Q0bRJy6eJxggLbSwKM+DXzAZrsgrngybHUj2iRFJABOwgu/d55PfPOjhKOWSFeTxqLtLvZMLofTGGcw9Ryz7yxy/dWbUGHj7eRhtb1f8o0FVuHGGx8yf3OFvC2AdX6acrfz7dgpSz2ocuyZQb7xz36Lvk8YP0ZZ50DD263LQUqD5BrogQtfHuWzf/AJcmOGSFmfEdUcPdp2HPlWRMEBOIVxIWv3K7z5w6utLq+P8+0iXXcL60uW2bsLuLoP2G2c/m2rDfVdAlHblxWc8/fXIAq4efVW67m/3VsLIbqOBG2EEPsnKUi5NOOmAJyHF751mfMvnsbktE9h36Fy5pTyYxQA2gXkoiLr96tc+/kHuPkD3oZHKS2bJVPfTt6YprFiMeRQu+yvorUmCEzbLlXbdD4zGOKKZfLWNC6toHDIMY3NMrY0mGE488xJGtSwSU1GNRdoBW2cSmfIam2zcYbacoP5ewutithR4oAY5icXWJtbJyTX/LWfc2aH0rgCU9AcvzDmB3w9xNLAgwy4LY64bNBh84Q6n8lxBj72zUtc+ux5VMmilN1FRbQVkVEo8nEBNxNw/Rc3WJxYaWXbdHaVeljZ94hhfSbiwzfvEqzlydn8ngIqDkthJOTz33mZkZcLrQyb1gs2vtlB3wO3ircFwBBc+vJpXvjN5wlKeeJ09ijfB2yTRV0mdJOUA2ol3v3pNRZurBydLj4WyvNrzE8uYazJBGw6gzadgUuNDgLcboI2CkAT2gJTN6eoL2XeVgjx2JCgjdgfkmYpoFkIaCsLhND/XIFPfvPjFE5r6qaKxWG3KDC0xs/JvMBZbNUx+c4MUx/MtdJ7j5Ia3H7vNqYRoHd5a7YqxvTBsdPDmLzGaQe6lRu/ae81Z1ANzezdOeppiyVdWn4rwNMfOUcc1sDFaLdVMGJjxo1OglNTd2aorjQe1Ro/Og6I4N6NSWprMYbAF/g3LfRnl3M4LDExxaEcI6cH/PgTh3g9pQOSsosuXckC4knW0R03OAcvfeNFhs4PUjMNnFYobZIppTer/GaeLw4/u049YPL9We5fnfFj2xzE+jZbNYAIZj9YYOrGjL8nN+/5ru2/je+lsNoS5Ro88/J5nv7SmG8cyWoutkmG0qOWfqYBcwJe+u2PMfbcMWqm2hyvx6mtckaz/GxSC/dW+fXP3tv/Y3QYHFCHxclF1ufKfvKBXaRHOUAXYOT0IEFRYV207bFVDt812oUsTK8we2u21TVaCPHYkKCN2F8OurT6Jw6Fa84mcfpTwzz16bPYQkQy38fms9t0tK6m1fQwDlibqHLr6h0aa43Wa45CwcMBa3Dv/fvkbN4PQrhDBVYpRawjekbzPPPRCxT6c60spkxlZUPgxmpMHDB3f4GlqeWN49p0kwBOXTxOcSj03aOaA1Zu1pzb/juNQUUB8/cXKM+ttbeed9t27lW6Detw78Z9aPhpXVtjISSt1JteXwqnwOqY4RODDJ3qb02hfUi37jTWtKvDIo+XJ0vnpd2MtWT6EOXh2As9fOxLL+CKjli7ZvZB6zaqtnhD0E5j4pD12Rr33prGLnQssi9c+7cVuHN1gtpCA+N0s0tUus5p7LUz4cg5iFTEwIl+PvbVj8A47SX5nS6i/coa2stnpD8XYPCy4dnPX6QwHGJd3AxNtT+C1IY3USgCl8PUQ9577QPczAFvw6OQ3MPv35wiLseEBGx+gDIBG+UndCgM5Lj88f+fvTf/kSXL7vs+50ZE7lmVlbVvb+vu6e5pTg8pUkOKNDmkSS0WBNiQfrFlQzBsGAL8r/g3A4YgQF4kG7BpWhRJC5REiuSQnBnKnI0czkx3T/fba18zq7Iqt4h7/cONyK2yqvJ1v3qV+fp+HvLVlhEZy417zz33nO95g2I5C0rHw/7lN1YQPALCc83Ww+3XJ1LJ4fgc4Zw2DofjBomNCAXMwpd+6V2KC1ki6S3TMQwNkuS52woSSgdENXj6wSYnW/XXo4JEYp8ZONiscrRdtWkuGq6zqLTREBiyi2mW314gVfZpS6tvMXfYy36scH5c53jrpF/vZdwmxApSyzB3d462ROhEu1KSnLLLr5GdiHmc7J9S2a6O93m+KHGbifbh4NmhddigANUx3DuXaXCVVrDVuDzD7J1Z/DIvX/Pa4bhh4sTI7g8F+NJ/9AbTd3K0pYkmwvRNZK/vM3TdsP3RPocbJy83mrPjQZXuYZzA1sfbqLYXO2lMp7LVMATri1cCLb/Ovb92h+V3SrZi46RUfhOgBA9+bpHlt+fQfoQWfaWzISFJoPK0z8GjI3Y+qdh7NOGYOuw+24eWh8K/+r3YtDikTbbscf8nl5lezBLRxMS6QMMQsTaUh+BFio1PduAM1+c7HBOGc9o4HI6bJXFMBLD4Xok33r8Xa5Rc7XWR3nU3UXj4SMtn79Ehh4+rtvx3wiSvGGn72nq0zXmljopsmstVpV4Ba/8Hhpm1Iktv5SmuFIi8sHO9ReRKx027FnHwdIzLqCftZgbuf/EeoQoxnrG6i6MYmwZEC+dHdY6eV/rFF18TKttnVLar3TKxQ1doB+68AS0aL+exdH/R6tk4490xcSRuG9MZX/wH8N4vfIG210ATdvrBJD7vujA7Lwo4fnbC9qO9/vLfL4ue/Z3uN9l7eogfBZ3DGnZ0fY+mAWM0wbTPvS+vwRzDglLGkyQ9zIPCA493vvIGQcknlHAEp02yfCN4xieqGn705x/COeM5do2KhtODJgebh3gmQF3nfYuvoSaisJBh5n6K2fUS2g+tI57h0TYiChEPMQqlfbYf7aIPmGy7yeH4HOKcNg6H49WggBn48i+8D3lDJBGIXDAykvzrbioMaBNZg037nO03OPjk2K4UvQ6REwI0YeuTHVRboUYyQg1aR0gA5fUyrEFxqWiFOXscXUp6a792t8WAavtsfbyDPmG8Iy0CuPfOOl5aiHSIQUaXPhFDeK45fnoKp7w+RmqsibH9eI/WSYgyfpxeZOzXS+6lYG91ZEKypQzz6/O2fHLv+8c1Vc7huEDsqEycFln40i++R24ui1YaYzSJyO0o3g3f+EQnmp2Hu7RPuJlnIH62nn2ywdlBHT8WEL/q7RZ73BrN9FKBuTdmrJaNYvgzO479uUinmtQbf+0+M/en7ULDKJsa+/KMRxBmePKj5zQOwslM80mON4TK9gknB6cosVGSl/mvbN9tU1tV2md6rQRzULpTQgcafYX3ymALOwgenvY5P2hQO7RRuWaSnV4Ox+cM57RxOByvBgV4sPhOkfLdGSIVAf1+l37VgQFxGwOCQp8bjp+dEFV4PdDAMew8OsDTHuqaShBgJ+XiC6lCwNzdWZiCxs77EgAAIABJREFU/EIWlZbrI3TiiU6KNPvPjzivRuNr9Argwf0vrlBenkarJGdBrpl+dfFCn70nh1T3GzacfhwnMy9Cj57NJz94hIoCK1xthjmzBhWN4swqL2J2tURpIdazmfRr4nAI4EPxnse9d9c5D4d5aa9u6B4+0lRsPd7l7LB+c/1iBNtPd4jqEb7xh0TIWS5ESYrG+Ib59VkKC2mbFnW9vNd4Ed+n/D3F+vvL+AWJU35Gu9hiFCmTprpzyvbj3fEdu67DAG3Ye3pIq6ZJVk5sVMzwtxtj0GiCXMDcnTmYg+U3lwiK/rWRy0nDUManVW2z8ckmtMa7qTgcjn6c08bhcLwC4thvBSzB3ffXiSReYZO+Lxe+Jk4GQdnw3tDj8NkRR7unkx0aDR1r/Hwv4mT7FN+Gylxrvxo0obTJzWYpr85ADmbWpslOZbrFg5K8qyFWrQE843N2eM72053u28bRAI5TpBbvL9IwDXSs0jmSsamteOXJzhnVvVh0eULbzOCtMaew9WQHn8C2l0uddd1ZXEfVw48or01RmPW6VsDrELXm+BwxpL3H2jbv/cwXIB1aXRsztAbTUEQLKvI43qlytHPSn4L7WRiMZIugenCKZ0Zz0icbRRJC2jC3OkvQm9Y4EEQ0+hnfAslxTsPqTyyQLgX2Po14zAJ4WhGeRdZp07rJg70BTM/XM9j4ZBfafqxJJkPsn/6NNSG56Yx1uKehtJwhU8p00qOuQ6GQlmLzk63XMmXY4XidcU4bh8PxCugxQbJw/0vr6CAikqjPhokTPHp+pu97wTobTnZPqe6dvjyj+raI01x2nx1Qr7QR4yNDU5p6s/pt2k/khZSXSxQWA0jD9GKeXCmDkcgacDKwrcQvkgAWj7AesfHxZreC1LhO2HNw/511CF7E6yIoJQQENE+abD3emWgjte/WRLD95IjKzgkp0kM8OpfvxxhDkPeZWZ+CIl0roPcDXuFq/Uj6RA7HBYY0HAFScO+9VdIzPlEsRjyqP9pqp3nUDs852qh0dW1ehg+kN3D0HCoHVTwV2Mn6lfvvjn4GTZBRzC5aR/1lz+hlkTtjQxxBufb2MvN3Z4mCECOmb4y7zGkh2Ep5uqHZebRn017tnyYLA80T2H2yZ3WNkl9y1f0TjKcpzGeZni+CB6oMM0tFQgnRcfXIxEXfqbNo4jyoOPVcQo/d5/u0KmMcZetwOC7gnDYOh+PV0PUWsPrWIrlympB2n4lmpWz6HTeDzhuFT6sWcbxT6ReLHNdIketowsajbaKGAhNghnTLSWJL1xzTaC9kIdEkUZCfzTIzPwWeHrpq2RGqldg0NoIKhe2H21C7yRP8DCQiLClYe3ORbNEHYz1Mo9xuY2w4vW4Ydh/v2vOcxDYC9B24hqcfbRDVNL4OrAZUD1dN2USE/EyOmbVp23au2+AG6DgQZQImmI7JIe4v0itQWikSvmA+pC27LZgGnG6fQZ1OkOhLpQonR6ck+U2XH2FvcpSg0fgZRbaYmZyKUZehIL0grL+9SpQO0RLRHaWuuGcGlBFoC8cbxzQOo8mKnuxx3h1sHXGyWyNFyp6zoVNFbHibM2hfU1jKUZwLbGrrNCw/WCCUNqbjgBe6DiDAaIy2+k4qFiOu7J9wsHXUV6lyYodGh+NzgnPaOByOV0NPuEx+IWBueZa2acX57PGfDT2Oif5Nk599PGgaDrcPic779ztx8z8D0RnsPttD2spqk3BZ4ITp/NOiUWlh7f5yR4wyX04xu1LGVgyPYg2Eix8pgBKJjTeP/WeH6D3G2+mlYGYtz/RykUiFkFTKGGVbI6CVjWY6iCa4TGwn9wHq8PTHzyH04oojV1+JzqMhGuNFTM0XKK1MxcLVrxrp++dwvHRKsHxvGa00KDqpJ9c9J8kYpNrC8eYxzVNAv8RhJe5j6+fQqLdHOKb+vCeDxg88Uml/8q13AbJw7507BAWPUCKMkmuGIek4N1SkODtscrRTnSynTXJyGp5/vEX7tIVvPCRx1lyRzmcMeGkoLma7Vf/SMH93DlIK3WMj9Icwdp1/guCbgOZJm/2NwzjKtqt35nA4xpdJ7/YdDsckkVgjaVi5u0wobaJObg5Y783VhqwyNie7ulclqk+StTYEA8e7JxxuH+NrH2XiaawMd9wYDEYMWiJy0xkW1+c7QrKShfJKGT/nE4nummlD9mUXpBXKeJzun3G0eTbehq8HMg9L9xeIJMSgRzYwBUG0orJT42jjZLzP8yp6bmL7ALaf7OKZFAp/pM2F2JkXRJRXShRmM/aX4+qoczg+DQIEsLi+iPHBKAHxXshxoyKP090qrbP2jTwfURui0IzktDTSSXIBQHkK5asJn2Ebe/w+LN6dpjifj8csc2U6WxKVK2JTpMJTYyNuo1d79J+JpM9twMYnm0gLPCNx+pK+trml8gGllSLk6V7D+0uk8mlCE3USzHuSo+KPjSNvjKC0R1Q37Dzds2XTwY0DDscE4Jw2Dofj5uiP7u6+0rB6bwHjtRETp1xzubHWt8s4cuL06JzmaTi5k3AADYebx9Qrjb4qImKG2eSJ2wa0RBQW82QW6KYQBTC7MkOqZCtJ2CoUtuy3UjYaIymXrWPRWmUU7VrEs483uoKO42a8JW0mDytvreBlFFoByrtGECUxXUEZj2a1yf6zA3uek9Zmeu+JhspWjdreGZ54198u6ay9EolG5Tzm1+fxp71bik7rWVGOXw7HS0VgbnUWP6OIaNOpFz3CCGMweCbg/KhF+yx8uf1hEizX1ph2V0TMlnqOX4ObmP6INKUUouSWnt2XRXzgCrwFmL1TJlJRHPBhbKn24VsQvwOFh2kI1f1TGz05Sd2IAQ5h69EeQtAZl2328vB2YERjPE22lGV6uQQpkoJTzK7lKS9OoWnZUT5p7vRflmSfSoSoEXH4vEJU7XnTJF1Dh+NziHPaOByOm2H4Ullndai0UMRLEUdNSL9T5wqsEevRrLVonrboC9SZNJqw//yA5mkL0So2tC7JZo8nuCKGkJCFe3MwE/8xvqblpWly5Qxa6biYkDUAh11YY2zagAp9Hn3wxIr0jut1NFhH35vLZEpZQiLMSLMWA0Zs2llT8eyjDTjjsqJa40tyqhpowebHm4SnEZ54116C3mgrLZrcTIb59XmbVndLkz4z8HI4Xhqxbtr86jypfFyZSLrxB1eRvMvDp32uOauc34iD14S6rw/q66F7nsk4rqSnpxP06+LoTM6zCIv35zCBjSJFTDxm9dNd94nvoxZoCpX9E9qNCbseGo63Qo63qgg+dirW1aAZ1i0bjBUhLucpLhS6mkYCFGDtwTJhLPInPdUVe7PH7VdBNEhbqO3XOdmvD3TIrld2OMYV57RxOByvHoGpcgEvbStiiCSLoXJBVHXo5sbQPG9wXu1J65k0O8MAJ7D//BDdNIiOVT4uOQ8bOSNoDPiGxbuzduKdoCBThsJCBuNrtOmt49370khy0YwiJRk2H24TVhjfCBQF+DC1MMXMcolIwhH8Df3OqoA0W493aR5za86Kz4zBCld/so3fCvCNh7qm3SerrkbAeBHFuSxzqzN2pXZSr4PDcRUCxWmPwlSOMBo9tM4GLVqnQRiGVI8rN6KBJcZOrEcdtHo1oMJ2SLsVTp7jGS56auPFhvk786hAuHTw69m868pSEMLx/jFnx6eTdS007DzaoVVt2z58hDxVIxoCQ3lphqn5XPcPCsjAvXfvEfohbaPjlDrbQEyfE7D7zzM+zcMWe8/3uajX7QYGh2MccU4bh8Px6hEI8gEqbY0VYwatuauw72nWWzTPmuPraBjEXPz+7LjNyU6N3gj+S+Ji7BexkUlB1mP9zRU6ciYGu/EUzK6WUHEEU++HDg98Uvg64HS/xvOPt4dfy3Ewhg2gIDsrrL61ROSF8YqgRa5pOmKskXq6X2Pz0dbw6KxxOM8RaFY0u0/2SJO1+k5XpIgl0xuLRlK2qk5uXjGCfrHDMbkEkCtkMNd5NYegRGi3Q04rpzfiHFGeIMp+znWPoNCTP4wQRVYPZ1L6qyuJo6IW7y2QL+UIddiTBNyPGdhQjGAioXHaoH7SnIzrYbBjzzk8/OEj/DBAGa9zb+1bZOipaDQqC3OrZVQiQpyMewpW3lhCcgKegCgQwYh0PrYvTUoET/uEVc3xdrWbXqa4JuXY4XDcJs5p43A4bgbhMg8ECHg5SBezGLF2ghlRcwCsMaIjaDd0v6NhXA23wZxxASI42qpwtltH2laI0BhtU6B63ja4PKkJmZ4tsHCn3Hd9jQbSMLtWwstIPFkRJDbgRMX6NuIBCiUKTxQpSWEawtaj7e4EZZxy3LvSD5CDubslgvxlZdEHN+yejGd82rWIJx896z+/SYkGjw3+w2cHVHdP8SIfo0Hr672WNu1C42WhvD4NU8kOHY7XFB8ryo7GjOydTDpTQbcMjdN4UeBlLgwIKN/H87xOmpM2pvO6mPmUePPtHxqNFrWT2oUIoInoxobZAwJT8x6FmRwhIUbRI74sfZtC7zkKgk+7YWifTYATq+f4TA22Hm6TJt2T/BZrzknveXe/1xIRFDxmV2Zs1b/kT8q+puYV0/N5q1cnCiM+Il6cQitxjG1X30y0wpwrDp4f0qi2SHyDDodjfHFOG4fD8eqJnTapTIpupM0LrPAYQ9TWtBrtyQgTHzw1jdWzeXZI8zDE6xEhhmE+k9hwIyJULZbuLiIz/fsVEfCgvDZDbjoLyoDqNea7hmFn30ZQxsfXAZsfb0HtJZ7zy0aANJTXS+Rns2iJuH421TWJPaPwIo9nHz2HE8a/zfSSHGsIO4/2CM9Cu0KruV7fwtgJnxZNuphi/sEs5JiQWZ7D8SnxIZPLXog4vB7rtBGExnnTRkYIL3VG66VBArET6Gv22/uYKhS6EXG0d4SuXzjqyUSADMwsTBFJy6YBDfy567DpcTpg/VjtRpvGaWuiIm73nh9ztFMhkDSjlts2SpOdSTO3OtupGNlBgAWYW59FqxAUKCVWtFqsWnGSJmWwTkJBIaFwtF2humvTzF2QjcMx3jinjcPhuB0CSGfSHYeCXFPquxcBMBCGeiDu92Uf5Eukd6nQQLsecbRZgTOFb4I+R41VnelfbTMCRhnaXpvVt1a6QrK95+xBabXE9PwUmogoXr0dPIhOgIkAKCTy2X92RLTPxet529e09/NTML1cYGZpCiPhBQP/4oaJQWxQxl7n/WeHNHfoj3oah/MchTPYeXKAaYJorp1IGqzjLiICMRTKeUpr03FqlEzGOTscL0qcdpPLZVHqer2Qy4h6x5eXOKNN5SBdyKDjqJLLMFi9XTsm2Gp/0oSjnQqtcz35jtfk+H2YXykTSQsdhUnMCf1Fqwc3sv162App1JpjXZDAYLp9bQTPP9mgedLCJ6BXaPqyczWiwTcU5woU54KuCHGCYKsr3l8iUi007U7kbhJdMwwdaSr7p5zs1Ltl0ye9TTkcrzHOaeNwOG4HD/zAA2NecN4cG2wGdDuanBW2hNgCPztocLB1jAkVknTFJvlviOVkQBuNZGH9C2s2RBr6nQ8KMjNCeblE5LXRRN3ragzGRBgrZdzdrTEo41E7qFPZvZlqKZ+ZHv9VdsZn8c4CBAwkPgyzNHuiijAoFOeHdfae7PcbqROCrsDRxgmmLYhRfQb/ZRhjMGhCP6S8OsP0Yt6N/I7Xm/ihCFJBz8PxYg+6AFEYvfz+QYACFKbzcWnrqz+gq80bP/OR4ni3Sv24eaEPm0gfrAABLK4sYJSOhzGJJVu6o5X9WRNKSF3OafjnhPkWKg+haXWvxRjSiaI1QAO2H+4hbWWjJen+yQ77/fnJBo1GQwpKK9NQHPoBoGD1/gpeRqETkZpOxcl4pOhxEIoRlPFonDQ53qhCnX5bwuFwjB3OdHM4HLeDZwUZzYXs9esRMXGKVDieToariBd+a7t1qvs17HKrDWEmzmcfvB69FSByM1lm16Zi0cAh+0/B4t0FdCrCJE4bA6DRpm3NYOlPvfLEJ6oJmw93oM34OjIEZAqW7y+RKqTQRFav57I3d9Zr7SkpBBqKRz94Ci3G9zwHEWyZ2J06td0GKvRRKJTAcNnKfrRoJA1L9xaRIm7kd7z+KPAC71NNQMUk48sNOG0A8jBdLqF1NNLzm/RlgocyPsfbFQ6eH9u+uo9J6dAG8GC6HEcAYitDKbG2QTtWJQLwMj7F+SKrby/z/i/9BL/8n/0if/sf/BpvvfdGV+dlXEkGoWPYe3KIrwMbOdUzPhlMHCHTExsjEIlGZRTz62UoDNkvWKfNvSXypSyRCeMx3y7UxFfUattIslv7u/AsorJ5ijmLdzbO19Dh+JzjX/8Wh8PhuAE8EAVJpvr1dTR6EYweCF+fBJJTbEJ1+5Sz4zPEpG0VEUNPGHMyq+5GFSE2r728XCJY6NnXYG57YJ0aKi+EtTYpMtZYM9ZgE5sx0yN4GK/gtoSNRxu833rQX0p8XEgONwNza2Vys2lOj09JmTSmc/166V5Nif+OVvhhwJMPn/LV85+B/Cs+h0+LAdqw+3yfeqWBwrcaRibxWF7mtkpELDX+lGL1zRVIx/tzxrnjdSUWZ+0V++1zgo+wCzEQhuHNRHD4ML88w0PvCUZrrn4Yk6fYxP5+4fywwc5He7z1syuQ7XvrZKIgN5NB5aDRaKLFACFRNiKYSTE1l2d+ZZalO0ss3FmguJBjaj7Am8E6MbJ0I0/HGQOneyEnuzU8E9gKWJ040MtvnyjBz/rMrJTiWVv87t4NFORnPWaWZjjd3LRRqObytR077gNtONk54bwSkl/xkz85HI4xxDltHA7HrXFZrvVVCGK1VUl0cMafPoPMAOdwvFGledoiR7YTDH6V6WawYrJLdxds9Z8Ba6yzpYLZlQK52TS1/RZog0HRO3XpyOsYiR0aCj/0Odw85Oy4Sb6Yfpmn//IQwIfSUpHyyjS7j/ft4qCJnVCDGi+SGMRig5i0EJBhf+OQ/c0K8/OlydBE0qDrsPdsH103eJJCRMXpFVcjokBBYT7L3HrJRdk4Xn/iZ7pf4N7GNLzIiNPXnbwsR2ecyrJ8dxE/owhrbXxSI2xmOik0quHxyXce8aVfe4fSbGZyn+mehQe/qPBKQi6VYXVxhdU7S8zen6G4XqC0XCA3i00NymIdzx5dbZdx7behN9MJ2rZqVOOoRdoUUEg3qmaI9JINsNQgmmK5yNz6bN859zVJAYqwcm+JR999atOijLWRkl1f/AhBRYrqdpXqfpV8ODsZzi+H43OKc9o4HI6b4ypDNwKj4wiQpO53Z6OrEJvmYgSlPl34+61iIDyF6mYNXTeoPsdTEk4yEDMihkhFmJRm+e7i0J6713gLZq1j4+TD3c6HiggivhUnjKOglRiMGBSC0h7VvVOOnh+TX1uyxuE4OjQUpGagtDoFadBhrAg0RHBZelbZE1FeD59GpcH2j3eZ/4lSf1j9OOT0D3tmDNSPWuxvHGKaCjEqFqoeYulfQIhUxNydEqn5Ift2OF43Yv+3DqOOm/rFlgcMhgjPk5f3vPQegAcr9xbJTWc4q7VIqUzcfenY0TTYEfUnzKZ1hoOHx3zynYf8zFvv2WpwAhP7cCvILiv+7j/+VVbK68zOFvGnsJGQGWwf7XHZ5RhveseWNuw920UaxIspuuN4l4FBqHOqIkQSMrtcIjcf2zvSv/jSIQ8r9+aQQGOaSWwWnc8w5qKws9IeZwdnVHdOWGkPqUzlcDjGhkn1zzscjkkngqgdopTthl64aIEIyvMmohfrTK0NEEFl/4zDjWMkVDYYpJPDfrm1FBKSmUqx9mDlYvWIwQ+bhsW780QSoXvFLmMHWTcgO57OGINoRaPa4uDp4fiKOibGehFm75VJT6WtPs9AxNGwTcD6dTx8TBOef7gJ5wxveLedctdpLN2fq7unHO9UIfQQvPiwu5o9l+1GE6HSwtL9BbtSPUkTHofj02AbPmEY2TTCF2z0SZ/i+V6/s+CzHE9CHGlTnE+xeGceLeGlfVbfUfd0cr5OoU/hL//kB4Rbl3zOpBCfpMzDT/2dL7L480X8d4F1oIx13KSxzoQkukYx5AKNP+2aZvfZPl4YoLCRknKl5SMYIggiFtfnbJTRZeerAB9mlqbITqVi+WLT0cq5LMbMx6d9GrL9ZAd99plP0eFw3CATMN1xOBwTy2UGhk1Zt5oBRne0bUazOm1FCSMaFbzEldCbIj6tzmFqODk8pXZcwxdvtGAJwBAxPTfNzGLhemNVwdK9JbRvOhrH1jJWSO8r2bexmkJhPWTv6QHUBvY3TtfYGMjAzN0psqUMWjTKU/HkLDnU2FSV3lYVV9DQ4BmPrUd7cMzF4KbbnggMfn7s6KvunnBeqeNpryMyeW3DEY1RIUFOsfrGil2xdqO+4/NABK12C6277vDRH2vBoBDvhoLRFTAN619YIfTaGDF0y0TFXp3Oazie9tj4q23+6g8/spV/kkzJF179GBMU1imROGZ6A08m8XwG0XC8fcze1hFiAjw1GMp68URtlI2GTMT6m6uXa80ljduDmdVppuaLnUqRWrRtX5egjIe0fA62jmietrqH8Tpcc4fjNcOZbw6H43aoQ6veitN2Rt8siRLxAo9UNujXdhl3QyPWsznYOKB+3EBp1V8p4hLEQCQhS3fm8a6r/hPrvqw/WCM3nSWk3RHjHDwYY2Ih5zj/XbfgePOEqNKzr76DvwWGGZACUyt5ZpanMZ4mjNoD+i79G5mebxSgIsXp7hnHO0072UlSksbJOZWIFgDUYPfJHs2TJirWKJCh97QfW32lxfR8gZUHi27Ed3x+iOCsdtaTbjR6/5W8O8gE3TTRl9k3CJCF9fdWycwEGIl6ji+Jihjw3PZMvAXBMz5BPcPXfvPrHH6/RlLleSLp7XsVL3a7JsXBEMHhxjH1kyZivHjcv/zADaB1hJaQ1LTP3NrMSIs1wQyUV2bQSnfbzFXaf0YgUhzvVDk/qo9vlK3D4XAmnMPhuB3COjTOmnHKzujb2XgJhecJqYw/cqTKrdGXnwPtGuw83sOcgW/8kc7dCBjfsHRv0YaLj9Bzl1ZSzC2XaZuWXWkztvwn2BU8g7GGozEoPJQoJPKo7TWo7p9b4+1lT1Y+Cx3jXGyljLkU82tlvHQs1jhkaVaS9/d69ozV72lWWmw+3LKlvxnjJmTA1OBk54yoaZVsjI5GEiG2Tpsmy/eX8MuMz710OG6SOJKzedaMK/S82POd6F+lcqmbeWYMEMDsgxnm7pXREtIpEShgxIrO655pvenr1xTKeGSiPGcbLX7v179GtEU32mYSGRZoNIojfeyc7T2Ynq8N2H9aITyLUDr5pb7ScYOAlojCQpb0/AhRxQLkYXatDClBlMLD46rKnIJCjM/JwSnHWxVovsgJOhyOV4lz2jgcjlePgXbD0K6HCKqzEjRamnqs5uELXsq7qqbl+KGhUW1xtH1s01yu7YLtCqtBkyr4lFdnbIj0deergAKsvrFMm2Y3u90MKqCYThSOMVaUsF5psffsANqDO72lizwo8JAY9TlYureAl7dRSAOB5Ze0JfsbZTxMXbH5yRY0AD3GTchA9aBOdevUOpjiRfdR5ipGDDow3H/3Xo9YKS4E3vF6I0AIjVojnrRaro1ojF9KQCnIZIOuftjLelaSD/EhtQQP3r8PKUMkUY/yiHSe8eSjex9XAZRReNonCNN89M2H/OlvfRt9QH+alON26e2gq3D47JioYeJxX9EvCzzYm9txP5KQpfuLULrmswydFLOlu0ukcgEREaKuiWQ2tq01qi2OnlfsGDO2g6HD8fnGOW0cDscNcrnleF5r0mpGDHZD105EsZNRP9WTHpVsOM7GRqJNsnNCZa9qo1uu7IITCUGNloj8bI7ppWK3usNV5ypAGu59YR0TRGhCDBqM5vLQHkEZn2Y1ZP/5oXVmjKXhH89mUrB4b4HsbAqtenMDuu6aiw4b6+FT+HjtgP2nR9QPojE9z5gQjraPOd05R0UeElcAGaWpazRBMWD1rVVI4UZ8x+eGVh3OT+t44seT5K7a1VWIMWA0QaCYms53FgU+UxchA1/B7rcIb7x/n9LiFG3aaOlx2vQd9cUd2ggJRcqkSZ1m+dbvfo/v/tEP4YQr+vgJoPfQh123CeX8OKS2cwYtQUyyYDOoqDxwospAYFi6v2zFmC+5Dqbnf1Iws1giP5UjMuHVkTwko6IgTeHwaYWoxmRHbDkcrzHOhHM4HDfIgJWR2A8aKnvHRM24JKvYP1oXxWgGciobkC2mrq6kNC4kaUZtqGyfcHZUR/C5qgsWxIrr2mVVykvTFBeCbs7/VQgQwMqDRYK8AEmViis2MXb11jTgYOuI88q4ihJKx/9SWkpTWMqhPd1J27emb29EkWHwRJQR/MijslNh7/n+mJ1fDwZ0A462K7SqbXx8jCTr8abHWO+/SbZgjkZLm9JygeKq199uXqPJkONzzmD/FDvHj/er1E+beD01jEd5zI0IGoOX8pkqT3fGl8/8qAzbQRoW35ph5f0VolQYR/lIJ63zYoHmzlFiMIiAZxTpKENrK+Rb//J7PPzTDTiVi93C2PXjlzB4ypPeR8Wpegfbx5wenCGRxI7BwUbbf7OMaEKJ8HMBa/dXrowotjZU/EcPCjM5phbyRBLa9PP4fUqk8+oK99t/Xhiw//SQeqXV1bWZhPbicHyOcE4bh8Px6kiMgBbsbexiWholXmzAmDif/+pdiFiTNVfMkJvOdo2ZcTVKE+NMA2ew//SQqA4ySi1ZY09MeYbycgk1ighxTwpRYVkxPV+wQpcjrL56RqFCj6OdCtX904uToXFCgZRh/t4skpaedjOsCHa/USxG4Wuf5kmT3ad7Q1LBboFh7ddA86RtI5/qgofX47CJvwoM3igrchkRSZvlN+dh7uK+r3vOHI6JRcPe5gGt8xYKL27sozd4gyHWAFLHAAAgAElEQVSdTVGYKVxXxOnTE6dIeYvw4K/fp7CQB5IoOmFwGt9/fHTeq4wiFaXJNgvUPmrwx7/+DT74s09g0so3j3uk7AsT3z0DpgV7Gwc0Tlp4xoNBn03n/f0/t2lTnCuydGemP6L4KhTkZxRz6zMQGHpzo0TEpkuprtMm2WlgAk53a1R2Ki7SxuEYU5zTxuFwvDoU1iBowe7Tfby2jxev+kgcg35FdUognq6KJj+dJ1PITEB6lCSag7ROYPfRIdJOSn1ffrKJwa6J8DOKhTvzUODFNHzmYG69bIV6R9hGofAin/PDM052qv3OjHG8tjlYfrBAkPdAJec4qBUwHGOgdRay/+QwTilgPBxTA6vjzUrIwdYxURiH1Ztez5z0/NwTJi8aLQbSwp2317s6SD2XZRxvp8MxMlc9rxoOtg+hBb5RA5F3V+9SI0SEZIspMrnUzVvJObjzk/PceX+FKBMRSoSR0Qaz3kvgGQ/VCNj5wRF//uvfZ+Nb+3BOdwI+tuPja0gcKZWM/WENjjaPMQ3reB91F5FELN5ZgGlGv3cCFKC4nEfS5lrB+qQNifE5r7bYebzX0U5z7cXhGC+c08bhcNwcpvvF9FiY+gS2Hu+SIoOONEYn1X+utxI0Gq0MU+UpgtxIm9wuyWkZODtucLRRJTDpayNfBLtIFhGRLqaYXZmxee2jkOw6C8sPltASoUeYtIhReMajUW1x8OzIGv3jjA+L9+bJlzIYFVkFUUmmaFc3DEFh2sLxxgmtI3P7DpthhxvC6e45RztViBTE0Vm959dV75GeR8gKm2anszx47wE9GSL0PZQOxyRyVds1wDlsPNzANx7KPunXbNSDCMYzTM9PkU6qR91k5IEH6TX48i+9x/RagdALuVo51jKY9CnGI9BpUudZdr57xO//H1/j8be3oM7VDi7Hy8Vc/Hp2UGPv+T6miY38uhYbORp5IffevnOlns2QTSELU8sF0sWA6zRtEjx8TFPYerQ9xnp2DsfnG+e0cTgcN0OP0ZI4IJKIk90nhxzvnJJS1uuSLEyNYKtiRKPSVmxvZCfGbRPnte892+X0sBaHSF9tSceJPGhPk5vLUZwtDEy+ryCZvPuw9uYqKiOgDKK8Ky9yLHtMux5yulPvhtiPq9EvUF7LM7c2S0uskOeoGypReJFHfb/O4eYxhPYvt6rhOahH2YTK5gn14yYeAQplS7MP2ayDsQ6d0LSYXSlRXAr6UwiTd4+7s9PhGJWkLcfjS7QHO493EeNhIoPRo6WH2ryVkLYKKa2WSU0N7P8miCfZd396jvs/swqZCI1GPIVSLyrYJvgmhVcPePbtXf7gf/kGm985sI6bRCxuXPvy14XBtqLh7OCMs8NTvFBQI+SlGrFOd5UV7ry1NjRS8kpSML08Ra6URxuDiOAphTYaHemehTLoxJcZ8CJh/+kBHOPaiMMxhjinjcPhuBl6DYxeAyCEpx8+J6obFD4iqvOeUezqkBCVE+ZXZyHP+E8+44kEbdj8ZBNdNyitMFpfe77GGCIJKa/NUJzNvliPHevaLN9dpFDO0zLtWNrhigsmsZ5CS6hu1Tg9ikUJxzW0XoAirDxYQXuhrZI14nEaAxIJ54cNdp/vW6fNuBiqycSqDpWtKu1aiNgaH/EbLhcoRQQRhfYj7nxhDa7TQXI4Jp2BsJPdJ8fU9s/xjDeg3XFNdGMs0uplhKnlKcjxap4dBSzAT/+d91l6e44oaBERfqo+VxlFoFNkmwW2vnPAv/on/5rn/2HHRk1G127ueBn0RNfShMONY86O6yjjx+msV5MsnuTLWUpL2RfXVfKgMJuntFACT2NEd47nMr+dGEEZj+OdEypb54xcEcLhcLwynCnncDhujsHJvgGO4Mffe4inPbykdoEk09FEYPVyIgnJz2YpzOchuLEjf3kkp3MGW4/3MW1lQ5FN7x+v2DhlmFou4k3z4k4bgWxJUV6ZIaRtU+x7P1IGymIbG/fkaY+TnRrVvWo3NWAcDTjBljZ/5y6SETQRo+YyaGOdhu0zzf7GAe2a3W6UaK9XQgj144jdJ7vQtp4/07dc3qWjZRN7PrXRmIxh7Qsr1rGZMC7n5nB8FmTglWCAM/jBn/8Icy4oHWC0WGFuo2N9jyuiGw0Yo0gXUkwtZiGNjd67Sad1sl8fpt9L85X/5CcJ5g0hTUz0afKyrM5VKkqTaxU4+qsa/+af/BGP/2QLaljHzTj25a8byTWuw+HWCfVaBNdUjAQ6iw5GNOWlafxFXrztCWRLHuWVEial0TJKO7KaaY1qm8PNMR/3HY7PKc5p43A4Xg3xnLLypMHWj/fwTRAHBiSlrfstk6F2uRiMpymvzlBanGaUAky3Tnx87R3Ye7yPH6e5yDVik4lWSbqQYmopb0OkE17EkCrA0t0FIi+0e4w1T5Kgm67DTDraKD4B9eMWR9sVaDK+ooQCeLB4t0B+LkskL1CrVKwOBE3F3vNDTvfPbn910fR/f3Z0ztFWBd/4JHPHwcPrd+FIvEobkS9nmb1b7qZGjeP9czg+LX3O5/irhsa+4ZPvPSFrinjK74wvIiqO6rzsQbA6IkZpSotTlFdL8aLAK3hw4qhICvD2r67zE7/yNibfRnthJ/rxxY5CuhE37QK7PzjiN/7H3+Z7v/Mh0S7OcfOqMNA+ger2GbphddRGaU9GDCjDyv1FmLr27V16AjG9IsyvlvELHhFRMuJfs7FCNwxPPnhiU+pcZJbDMVY4p43D4bhZeoX5avDBtz4mPILABDZU2Jiet/WbpxccNhhUWphbLZMpS38PNs65+gaON6rUDxv4BIzU9cZelVwpy/RKsd9pM+JnIkAOlu7PozLEK87YVeckVhrTrd5F4gcJCM8Me88OiE7HuP5n3EDUAiy9MU9o2t0mcJ3QswgKDwl9qrs1TrbPukbqbbSj3ufEAG042q5QO6jjm1T8rNjnZfjh2RV2EftczK7NUFxKTYZj0+F4EQbFXpPv2/Dhtz/iZOOcLEWMti7MZGy5/GGIxb1Fgx9aLag5m5Zy40ZyR0k4PrxF+Bv/4K/z7s++Raia1mmj1MWoyBEQA2mdoRBOEz31+L1/9sf80f/9TU6eNDrpoOM6ZL4WhFDZO6WyeYIX+VyXuyvQqZ7ppX2W7y2NrmPXuxOAFJSWpkhNBbYiGXKt40YA3wRsPIyjshwOx1jhnDYOh+PVoOHw6Ql/9R9+hB+mUMa7xHzu15W02qk2vF2jyUynmXsw++Llr2+D5ARa8OzhNlGDOMLmelNZo9FeRHG2wNT8FCNWCr2ID6WVadLFlBXkvGzKL92rLgZ0U7O/eUjzJLr9CJSrEGAK7r67bnVtTFwy95o8Jxu5IgiK86M6x8+qtmrGOESlGKABmw+3aNciPOPHv78qedA2Njvx1CzeXUCVuP1zcTheNoNtOuln9+H7f/IjdENiJ+eo2rt2Sqtp4+WE1TdXSM30eGxe5YKAD9k3hV/9R7/E4k+VaQTnhCpECyOXAu/DCJ7xyUR5wl3D//f/fJev/YtvsP/9E6iD9Pbt47zwMWkYrNNm94TT3XM8418bL5UsXyUl51cfLH+6cT92AM4slijM5tAqvsnXCvULvgk43Dqmsn3u2oLDMWY4p43D4bhZEjulBj/6sw84elYhpTMoc3n302+axqaMGMSHmeUSC2/MxpEn5rKNxodYUPbxRxugA5RSI+mmaNHoIKK0WCJbyr74+SXv92BqaYrCbN5qohgTR9xc1A+yETcG0QaJ4HC7wsl+vStGPI7E57j+9iqpXGBDy0XZ1wibihFatbZ12tzm6uKAxrA5g52nu0jLs06bKx02CQZNiJ/zWH1jGbIMz6lyOCadwf6wDZ98d4PtH+7hRd4LVYGziSH22Zmaz7HyxnJX5P5V9nsSP6ppyL4Pf+u/+Y9ZfW+Ztmpbp01PCusL7dYIgQ4ohNNk9op88G8f8gf//E959q1dwvModtb0XDDXX3x2DOgGHGwe0aqENh18tM2IaDM9X2B6ITe602bQ4aagWA6Ymi8gAfFYf7VXThA8AuonbZ78eGPED3Y4HK8K57RxOBw3S1w56fDDM3789SeYmuDjx6ug3X+9RmPndz1uBSNWlHfx/gLTa1lrzIxaKug2MdA6gu2nO/gENj1phM00EV7GpoKlp3mxyXevbaYgNwNzyyUMIRDZBbeeS26jmeJoGyOdShLnh2dUNyvQepETvgUULN+bYm6tTFtaI89pxNiaTKYJRxsVaofh7ek9JCkS1mqntt/kcPM4XqEdzAMcsnm8Et+WkFw5w+KdhckQ6nY4Pisaqk/P+M4f/gVR1QqpD+sCBlzUELtAbBRnROi3mblbYn595tWlFcqQHwXIwMLPFvjVf/QLzL5bJFRNjGjUp0iTAjuSKrD6WFXF468/5w//+Z/yyR89tSWedc9eJ2BYHXsEwpph//k+phmhNBhzXel5OzBHXpu5u2VUkdH15Hp9eUnacAGmlwp4qXjRS5LP6N2o+7kYW31M2sLzT57bcd858ByOscE5bRwOx81hsOKQexHf/r3vcfjRKUErjdIKjMT6KvQ5MkzfxnGUjYFIIrKlFPe/eAe//MrP5NOjYePhLicHtU6ayyirwBpNquAzs1TqRkzAi63+Ju/Nw8LaPOJrazgOwYjEzhubMqRQtE/bVDYrUB/tmG+FRMRzBu6+s06LJnQM1BE2N4KvfSrbp1T3Tm6v9Hfv/dVwvFXldP8cj9hpI72qQ/2YzkxPCKXN7OoMxbn8i+shOByTQG/QgAYq8L0/+Cue/OUGqXaum054zS7sN8ZGuChDaspn9YvLpJawz07CTUfcJPvv7Xc8IA9LP1/kb/2Xv8zau4uEqoFJNMhewHnTqxrnGY9MlCd7mmf7O3v8+//tj/nW7/4l7cPIVQx6WcTtsllpc7R5hBcKajCaaShi22JKs/xg0aaAf9p2J0AB5tZmSOWDvoWwTsyWqAvp2mIUSntsfLwBh5/ysx0Ox43gnDYOh+NmSOyAc/j464/54Osfo059PB2grzBe+mWIrWiNEQj9NsX7Be6+v2KdGGoCbMvYeNv8ZANzrknhW+MNc22QkFERuVKG8lKpO/l+UQMuuUAZWLm3RFDweiosDaMrVigAbWHv2QHtU9OvfTBuKCAHD37iHiYTEZlR87mMXYHUirPDcyrbJ7Za1m2R2NRN2H18QKsWokSBSap9DZ+oSde/CQEs3p8nXcaN8I7Xm1j76emf7/DB739CdKjwdRq5IvU2oeMjVQojECmYWimx+qUlO1nu/YxXpfUiQ17TsPbVEl/9Rz/L7HslGn6LUEWIkhEDTbspVTb51cp9KeMR1LOcftjkj/7FN/nub/0Q9nAVg14WLTjdPqe6V0PweJHQrSDvUVop2kjJz+IsDGBquUgqnx6Ir7Gab0nVzq5Wkq06JqHicLPK6V57vPXsHI7PGc6kczgmhQuhrWNMYuTW4dm39vjGb/45Z1tNUlE2Tve4mkQgNrFYNBH+lGL9J1dIr2N7LnWt1ux4cAbPfvwcFQqe8TpukcFb2V/bwWA8Q3E+T3kx37/qO2TbC8jA9wFMLxbJzWaJVNQx1qRH+6XzucnuDUjksf/8iPNKfSybnul1/ilYeXOBbDltI21G3wu+BIRnEZuPttBn3F56FFgjuQ7Pf7wFTQU6budxoxnuuDFIXF0tVQiYXS9bTY5khJ+E58Rxuwx2SmP4vF+gDQc/POZP/uU3qX58RjrMohLB16HHb3/Z6xOJtCaSCJM23P3iGotfKF3sb2+LWK+LEqx8dZq/99/+bVa/vEwzaBASDTnF0W6aMbHOTZQm2yjQ3oDf+1//iN/5Z/+e5nPTTRF9kTYwCe3lVSFAG443T6gd1MF4I6Zy2z68MJtnenmq2w4/zWKNARRMLxWZmi1gizmYJCGw5yGIjameg/fwaVZCdp8edKOvJhrXOB2vB85p43A4Xi5JyHodtr97xO//73/M0QfnpNo5wOqlmGsNgW4iiJEI7UeUVqZ46yv3+1dBx5lYmyQ6gJ3Hu3gmgMhgIludScVWk+lMlgwq/l6LQVKQn8/avPZBRs1xT756kJvNUVicIlQRKA8RD8Su/glgtLalwE2EiEGJR0Ca6l6N6l4N2ry4IX/DSK/XzoPMGpRXpol0i4syy0P3EOv3KAgVexv7nFfD202PAqJT2HtySIosojyMMWgdoY221bH6DjDRftIYNPmZDKWVKUhf3K/DMZSePqiPVxll8iKfZ4AWHP+ozh/+i2/w7DtbpNtZAu2jtI4rw13cSOgtfByniYjQlja5xRTvfOUNmGV8LONkYq2AaZj/xQy/9o9/gbs/s0oUhERKg+chIhiThEQMXryeNOOeQcGQpMH6ZMMC/lGOb/3m9/nt/+nfUvuk3e3ve3cxyn1x2OtwDgdPjwjrBsSPPe/XXCABRDOzWKK4kLVOm0/TFnvazdR8itn5KYxpx76aro6NjbpSeCpAlBcvDghKPGgqnn303FZUNLz6vuBTIGIj50BQno94HqKS6z7GB+5wjMi4DE0Oh2PSGBwHE2dNCBzAh7//hP/3n/4eG9/bJd3OEZiUfdsI4ijJeqjB2FXQXMR7f+Mdlt6dHssy3+bCN12Otk842TtFdH9+U1+8hFiDOtLaXlaBIOcztz4Lxe57XphkGw/yZY/5O3NoX8eVo5L3SLzaZmLDv7uhT0DrNOLZjzfGX5QwTiW49846+BGRaY9oqgmiFSpUHG4eU92u3p6uDYCG5w93OdmvkSIFZrT4dIMBTzO7UqK0WhyfaAHHBHBNhM2r6m8HPufCoSTjSwUef2OX3/mn/4aPv/6UoJ7B1wHKCBh97eH27leLRrKa9S8vsf6Tc9bZ2R94cPskjpsczP9smr//3/9N3vuVN2EqpK2a9hxUN/R0MJO2f849mH+l8HWKbJQnV5/i+//uA/7P/+E32PnWsa2mFw4cywW/3jgPCrdAvFjTPIGdp3t4OkWyRHNdP25EQ2CYXZ3FS6qXfRYEyMHcWhnJaIzSsdsSO9bHr76jMga0kDYZNh9t28jTiWSUK+5wTBbOrHM4JgUDt21BJgOgDPmliYAGVJ7U+PBrH/PN3/oWjS3Im2k8rRAjiL7exDPx/hP3QeiFzN2b5v1f/KKNshl3V3Pv6mQbth5uYc7Bl6R2Z3edF6weiRHpCFHGmUukCmlm12bsJOKz3PZk2zxMLRbwUgJNbSNt6NboSlQPeu+PMj60Wuw83bNaL59FGPEmSeYfAdz5wgp/kf0ronYLnwyjHLBCobSidnjK8UaV1dasve5JY+xw4Rcvnwie//g5rbMWBbIoc906YXflVPkwt1omVZLxf04c481tPefDAhJ6ojfPd1t8+KcP+Q+//T2OH56QbUzhGw9lGNBKG34CpufvBo1WEcXlPO9+9S2Yf8nn8lkZPB0PyELqffi1/+7nyEwFfP8PPiSsRAQ6iHtxG8k52mQ1ibixMTeZMI+vA/b+rMK/rv07fuEffoW3f/4B6hp9LCuOnBykAwOnB2ccbB7h4/dFt1iGXydNhJcW5tfm+osPXL3Z1QQwf2cOVYR2vY3Cx4gd6VXssLFpU4k4MXhGSJkMR9snHOyesjDvFgEcjnHAPYYOx6TyMpcQeo2DSwyD5E+J3knnFYKuwdFWjec/2OAv/vD7bP7lDlQ9CpRQxuukQ5mhFvnwQ4GIlmqhpgw/+/d+mvy7amyr4Vx6SHV4/tEWQZTpiGN21n8ExNgkHjGxy0TAiMGoiMxUjvxS/uVMvgVIwcxSkex0Gn1q8DBW2yDRSElSjXomPmLA0x77G/u0jyAY96pdCpbvLzM1X+T4tGbN5SuCCJJ16aRVhmcRe48P4PzBJQ6qG258GjiDjR9voUKFaHqin4aT3LtINNlCivk788gUcfTWWD4ujrFD4sc+6QOGvuVyrurSh40tl01CB34v8fjCGZzttXj2w02+/7UPePjtp+hDRdbkCbSta9+N4ByMM7nsmAxatdH5Nl/+6pd54yvLF4Vfb/vhGRwuk+MJwH8Hfvm//mly0zm+9bt/wdnOOYHO4InqOP8BMFctlPR3jp54iE6hQtj5wSH/7n/+GrXDM97/tXdJL/v9M4b4fn66AuSvMfFize7TPWrH5/iS7l2iuXLTiIj8dJ751VnIvIRjEcCH+bUymXKK5kEddGJS2EhmmxItPc+mjoWqFfVKnd3Heyy865w2Dsc44B5Dh2PSeMXxnnYlpmdOHxmiUNNstKgftjh4esTGBzts/GCHwx8d0doNyesSgUmhjLLRthi0SdZyrj8JwaAlQqfa/OQvvsd7v3oXcjd8oi8D6ZmZaKgft9l/XiFt8tiyzab7llg4NomgSmp8aBNiJKK0NEVhOXbavIzZdwpmlqcozhapbDZRokmqiiBiDbeBUhHKCJ4RqjsVjjaPWXxjZgw9AZ3ZA3hQWAhYvLfI/uPK0IiwfqymDRJXkQo9th/t0agYMvNy8Txv+twNsA/7Tw7xtYqjbDRXTUQTJ2okIbnyNOXV8mePznJ8vkgcNokj/kXbzou8/5Ku32j7wYmuVtQw1I7OqT4/YevDXTZ+uMvGX+7S2oB0e5qUspNhMRE6jhhM+rNrklDi90XoIOTuT63ylb/7JShjI1mGndNtPkuDTq94Io4H3IOv/MN3mZ6Z5pu/9W2OH51hQkDFimli0BquKjUtSYKT7QZRKERnyLV9mj9u8vX/68+pnZ7w03/3pyjeyyHxrMFIksTsOpoLtGDz0RZR3RAYG9FqucZpIxFT80WmZnP9xaY+Y6Rtbs6juJCj8vAMiVRnHSixPyRewLG+G9selBF0XbP3cB+ab0CKy52IDofjleCcNg7HxCD4BHZe3Rt98TIGUTPk+zgkXdogTWifQ1gLOT+qs7uxz/bGDvtPjth/ekh194ywZshGOTKm0AkJNnEIelKy+OKHDTsUQyghraDB+k8v8iv/xc/BIuOd7tGxyaT7vYaDjWOq+6d4JkDhx46bWD+mL1wpNpXEEBKi0oa5lVkyRXl5Gj4K0uWA6YUiFdXE6CTCx8TVpKC74t6zmfFonkTsPT1msT1jR42xctxI94sCirD+1io/+MZH0IxTvi5dbTbxXNWAMQQmzfHzKtWDGpk3ihcdZjftsNFwtFmnsnNKXk9BHJ11rZ/WGLQfMrWaY3a1W/1mbG6RY6yx/k6FnzScYePBy2hMg/tNNGpaEJ0K4bnhrFJnf3ufnee77D7b4/DpMdXNU9pVjd9Ok5MplO9jH1nbZyad1qjrGREhdamx8MYMv/yf/zz+m3SjOMeqb4sxA1+T4/OBRXj776+Qm/0qf/wb32TzBzukW1k8vJGHTOksHtifxIDSisCkqG/U+M6/+iFnlSY/95/+DHNfmIIs/SLwji4GqMH2kx1UKFZnacSWabyImeUSxXKm34H4WRCgBOXVMk/VXsc32/UA9thnJl48MmBQSBsOnh5AlW4BCHfbHY5bwzltHI4JQAAdap5+9Jx2tkHLbxJJ9FI/w2iD1lakNtKadrtNs9GkdRLSqDQ5OzgjPI5oH0ac7p/ROG1BXeG1A/JmBo/AKvWbOL/d2BKTSb40DPcv9dqhBhvxEPoha19c4W/+V79I8C42bH0MBYiB4fZYHNa/9+SAZi0kRcY6bFCdFDHTmbX0bmYwSiNZYWl9vru6NWz/L3otYqdNebnM/8/emz9Jklx3fh/3iMiszLrvu/qcngMzg2swADgYEjMkCALLS6SoXe4uQSPNViaTyUxmMtOfod9kxp9WWpOMu0btCgvu8gRBghRAEPcAGMzdV3XdR1bWnVeEP/3gEZmRWVmZ1d1V1VmF+LRld3VmRcbhEe7Pn7/3fQveFqYYoCW2TtpghEcr1xqNKnk8eG+ZF4rXOaFMzJNBAV0wdnWUrr40siG1ycWxdnPtDvQkRTFfZunuMuMvPV2/2nnWhGH1i7et+KOjPBRO6PRss60CnVb0TXXTNaQ628H5SIRVvuLRIJ1Ipz4XJ0AZzdK9ZdQ3fAqpQ6JrrqI0CvVoFz3aPhpbjDEYYwj8gEqhQmmvTGm3zP5GgUreUMiX2c8dUtgpIEXBK6fI+P10iy2lo1RsIAjLGEPN39I8BdIiCEYZAsdn8Eofn/+9zzH6cm99n3YR2jAedeMBgzD7ej+/0vs63/h/vs2D760QFCooPKKk5Giz9l9qcUTjiEaX+/CXK7z5l++yv7PHZ37rU8x8dLwW+XoRrtd5IjaVb3MphytdMadN7T6FRrvHotOagcneanrrYxN9RxbG5kZwUtoWFKjePCp0eMbj1Ky1plFoX7O3us9hLiA73ehF6kTvZkLC5SZx2iQkdDwKLQ4cCj/607f40deMTR1qMFEfZx6jwggRE4XJhka2CQzig1QEKQvK1zgV11bbkRSOOGhxwuHe1Ep5S80tUU3Bod7WjJ+f/Vsw2sd3Kkw8P8Qvf+nnGf1Ez/GOi07huGM7gLV7G0gpqh0hoMJUF5Gq1krkzlLhfwwGt9dldG64XmPhISQbjjtOpxtGpgZxM1AuBChxaIxBEVVLIJDQAecaj9W7q3AI9D/i/s8LDwZmB+gd72F/s4JCtywxX413UqBE4RcDFt9f5mOlp8/v3ouaoAj33ptHG9dOTuvyEuMbqCMbp7IuQ9P9tRXRS0PoPDAeZldDjkd/Bs6IwAGnh87vq45BoUkHGd782nu8+Z238XWFuBdDlDnSTzzMt0dpGNV/Q2e+HWMEqYCUQVUcVKDD8cXDE40jLjoKOxBb2r6GhNEBtX3VfVZ9N3Q8YSg5BwzdGOD1f/0qM68PXgxx+1ZpKbEIw5FPpfml7Kv8U+/3+ek/vIu/p3Bw7HijwzH42FSpZg+VQonGMQ6VbY+7/7DMQe7v+aXf/SxXXh23zi4d2/xnHWNfW4u7HOZKdJO1w37Ta1511aCUHfdTPR59k72nvzDiwPjVMZxuTXmvjOLdx+8AACAASURBVKdSocaespG/ymmIVlMgGmUcCvkSm4tbzD03au2RKp3d4NWjEx6550pI6DQSp01CwgVAi4P2NWbdIEoDbnVSXePRh6YoGiHKBpFYVo5NoYFq3IUoayhLlP3cGLsde0dF29XSf6IPw8Sc8HcMFfHxU0We+th1XvtXr9D/ctoa1BetlwoNbH8LcgvbUKGahhRdL1VdfGu4ZgI4Qna4i4HxTK1B4jzOApcHA6N9dPU6FLYqoNIgJkwzqM+5E9HVCKkUKbZXd9hc2GFkov8Rd36GxBxgyoHuccXo3Ag77yzgiEYpFUZ8HY0mqn9DoQLFyu0VzDronoZfPOP0qPI2LN5ZxiVlnxkVP8YWO1eG7ECGkbnhzo6EegSUgFKaykGZv/jjr5L6K5cyFSCorgkfndWe07GhrAO9x+e/+dKvM3iz90JeeyUK16QIcgI5B9WYm6Eer7DzcUEsomvdmRaNQtdE2QEd22k1xVGaPRHHXfSaXkugfALXZ+KZUT7/e68z8WqfdUBH0XTn8Yw/Dq2Oy+a3QQ/0fkTzy70v093bzQ//8k3K2yVSOtWm/Zp/ufUH2S/P+N2Y3YCVH2zylfyf8wu7n+EjX7xlI27iCwudev3OisZzLsGD95ap7BsUTtUVVlucqS1goeydHkiA0YbuwQxDMwP1IsTHOeseBg1js8P0DveQXzsIx5fYlyoHCBrsSYUWl9JOhaU7y8yVRju2EEQj1f6mbmEsIeHic9GmQwkJP8Oo0MptPo1rJ7/Y8pvrHCmRsyV6PzIz4iv+kQPiZN9bNVgkLqoaGS+Gkiri9ime+/mnee1fvEL2OW0Nl/NMTzktwqynvc0ie5uHECjicwKIIpKPRrhorTA6YGCyHzVIs4XPx8OF4ckBesYz5Ja2MX6YPiQCxlDzJoHCVJ12WhQHO4csfLDMyMf7O291VcX+UUAPTF4b5W76AUGhYrWg2li/SkArhSMO+eVtdleKDFzrOj+LL4DV+2tsb+zhqW5EQoO/jV6HKIM4ht6RPvon+2taCJ0+CT0xtk0oplj7fo6KqmCUjbawPmAVRkmd/6kK4OsywVAR+WcKrtNxUUAnIxLkPuZj0acmsVH3tYEK57y1FJ7qlLZhhbz5/S/Ulg7iF742kzbKECifSneJmy9f45f+5asMfDRlSyo3WsAXrd0an3GFPa9b8MqXPgRdhm/95+9S2ZFQV815qP4sGuOje0OLQ6bczcEHBf78f/8qZs/wsV9/xoo4d2r68nkiQBFWPljFK6fQyhow9fp1ENlUIooAAw4oJfQMZcgMp2wfHkVZnpI/2huAsZkR1t/Kk1ZxT1s07Fclqato0QQlTW45jymAvgjFIBISLjGJ0yYh4QIRrUIe8yGPOrrH5QrqbQQVi7R5FBqNcWukG2VD1Y0T4HtlRq4N8KkvfJIP/co0TFHVsLElKQWtLtBMSIAKrNxfoZAvoI0++rnUG3DRB4EYVEoxfW3SRhmd5splGEafHXboGcsgnkH80CgPI1EQA6o+IsUeqgZfc++teT5afBa66cyUguiSZmHy2gTZ/i4OigVEWg91tVBqm4pY3q6weneNgZevnJ4gZDsMLN9dITg0ZPBsG0h7m91gUGlhdG6U/olMwwYXfem7Nml0xcM1Hl2YsMpJzRn6JM+yrEv45oC0yVzwJV117PHHU1xPeY9h7MFxLpn21Dt2an2pUQGBDghSPr0T3Xz0cy/xqV99Fq5iq6s19l8X+TGBesdNGpiDV37/BQYG+/j7P/kmh2tFvCCNVjqMkm1N/ecqdIoqHNOFIy4Ha/v86R/9BSsrK/zyv3wNb4ZaJMZFv5YPQ7wTAipbsHRnhRRdVuOXSHfJvrSqXwSLUqOUC0OTQ2SG0uE1VPX7eBw0kIGZG1P8WL9DTXi4tkBH5B+qswU1VDQbS5tsre4wMhSPsr0AY0vYNk8mDjMh4fRJnDYJCReKaKrShFbCHQ+7l+oIVx8VU79aFL5znA8JscZBVFFJFKIUQoA4QEqRHctw/aXrfOpXX6Lv+ZR1VMQjBRRh6laHGweNlGFzcRMpCFoUEjRrmyPJAihHcFKKsbmR0zWA4/6hHuiZ6EanFbpkxZERE1prNSddfWqOxjEeq3fXrKZIp664RdfLg8HxPvrHe9lZ3cUL483l2ItZLbhu0zTKmntv3eeZ4pWaTslZ34IHsHx3Fcd3cI1j75uqYXy8yWmUwctoRmaGoJfOi4J6bOqdmwonFMiNR1k8GRRWsNVv5Uy/MLQ6/rM6t5pIfXwfUeRUOwyEwsThExw6IwwQeEJ6OMW1j9/gE1/4CGMfy8IAdnyp1Txu3PXFotlxR+cWVpb60G9fId3j8vU//iY79w9JkbVaZubhChmoSJlNBC0u3dKLu+fxxlfewt/3efV3P8HQUwM20ucCzOdPCyHmX/Fh8c4KB9tFUrobZWy4WGTDiGp0itj73A8CUj0ew1PDeAPqdBdEomNLw+yNafACgqKPp1LVE6jacA3PnBaNa1z2tw7Ir24z8mwHpkY3EKVRVhf7lDqSVpmQcFFJnDYJCReK856iNN/XMWP8kS1FCUb5CELg+Oi0wunRDE72c+2FGzz/6acZ+pALI9QmxzEdF1XNd4l9aacbgwIH+TLrC5tQEBxpZ4HVJuU+FTIDXYzNjjUv667ibzzEhYjP+7theHaQVLeH2TVEyjXxb2tcZdWhIGh+eYf91Qo9s15nt4WG3tEUY9dGmH9nCVW0aYXRPQk0RJDVp065kuLBB0vINqhezvY8w1lmeVNYu7+ODhRaaHBIHO+4ER2QGcwwdW2iiRBupzbQw3C8o+1JmuHVNJ5mrsBOfjZa0iEHfZKGVTaKISAAZTDKoFKQ6k3R09/F9Rdv8fQnbzL98V4Yp74C4c/C0rvCOqgG4eavTTM4/Ov85f/1N6y/vYUueWjTPPf46FJC8y/X4pIKumAPfvK1d9nf3+ez/+1nmP7IaM153CG301lSNyQHsPD+In7JkMGhquUX/a7UfjXa1kYeB3h9GQYnBmyU1FmgYXiyh+7BDGbFr+nXRI6kpk4NhQSK4m6ZzcUtnipdiYkRd37jmlCv73jx7YSEi0XitElIuFC0cNocH93elkep5lpnrDRBtKBSGjflkunuons8xfDVfiafGWP2+Wn6bqascRePKIkb080cNtG/nWoviF22yq/tsL22g/ZddEunTW2FXjCUpczM1Azd415zo/dxzj3aLgUDk/2ke1IUMXWxW3WXvyFM2hWHw12f5fur3ProbEPa0JNslIZ9R5d0AAZm+3AyGooapW36V33efiiEbZfiqg4dlxTba/us3N1ianqo6kA7s7M0sL26w0HuEFe80G9pj0VUmwdbC70jWUamey+MUOTJOe5kIgfco/Vdp0E1Biou0vukc7UuGBLmZDS2YbvLJ+Ef5UJX2iPdk6JnJEvfXA9Tz44z/fQkI89krdZKiubRZ5epjZpFDEU/u0AfDH82w6/1fJ5v/Yfv8cG37yF7+tjU55pYbn3yWeOj5ohDOsiidx2Wv5nna3vf4OXfepGnP30TPczPhuMmbpfsw8L7y2hfo0Tb66gUBhM64m0UWNRvRV1F4ARkhlIMTQzU6/idViRYuL07CiNTw6wtbyMq0rCL76hhM1FoNKVCQG4xh+yD6j6F4zknEodNwmUjcdokJFwgalVwdDhw1gakR54rtBzTmlmB0nIzpexExh3QXP/4HBNPjTMw1cf43DDZSQXD1ESG4yuf8S9tdiKdvjoqAAp82F3Z5WCriA68sLRmy41szIAy+LrM1PVJqxnTDHXkh0dicLyP3uEeDu9uo4wKK7e0vrwqTBu6/84Dbn1x1k6GqofyJK04dfS/AnTB8NwAmYEugm2DVhrBRtxEAtsR0vCvIx7F/QL33nnA1KeHqg4q9bin2ez+FqwG0t11gh3BFQcjoUFd94xLw6aCUYJJCf3T/XaSdEGM6dOiJj5sG/3xahwdu5djP7HJPdWae2ew73Ok2gc3xNnF0ydOfZeKmNf0xBgd4PY4XPvwLBPPDDM4Pcjo7DB9M2HUZob68QUu97Nxksy2NPS/lOZz2c+Q6vN45+/vUMwX8EwqdNyHA7E0a42jIrXR+1oUrvEIDnwWf7hKcb/A4XaZF3/pObwxqGrAn7YjolOIbl8Bfx3W72/gRppk0a80pERFiwT2b4W4QnY8S994V/1iyGnZPIJ9FgZh4voEyz/MNY2ubdYkWmmkBHsrhxTzAZmx2AF2ehte8C45IaGRxGmTkHDBEFEo7WDXbGq0XZ18iAHMFhSqWVmNtkPrtCipOm2e//xTzL4yYrVqovD0Vpob7U6i040EgEPYWtjC3wtIS3d1Vfg4RNmqWoKBlDB7a9aGSJ/VqrCCnqEuRqeGWPPymLKxTsA2aNGk6WL1/hrBLjg9NImM6hAUtrz5VC8D431sLhxiwtCMYzWhYhtrcdAVh/n3HvDK/kdqaUenHUURzfWLsHZ3A1Xw0KJtFEE1jCTuELATKxvhAQEGndGMXR+zUWuXPMrj+LgAZZ+fM7PSm++5WrHoMjkGqjkc1pEbOSrP5sqqR7pnjfJxex2eevUqT39xGvqwz2gUpXAZ2uG0cYAMuB+Cz3Z9kqH+Yb731z/kYKWIg2v1gKrpO/XRiDXXaPORzBHXvgou+28FfPPwO+zv7/HSFz9M91zX0Yp20c+XpZ3CEJrc0g4Hm4d00U+kunVUazDuvbKafzqt6B7rxu3j6P17WtdIASmYemqKH6bexpQNTlhNrKq50ySVCxG073C4VmJndY/MzYGLWdUzIeESkDhtEhIuEBUT2FV44yMSUJ02SJhG0ZIWK8aNSy7hpNHRLo6yy5XRWvZJEBEKhwXyW9vMpkdqTojLOtCHIr4IyB5sLe9QKQWko3LaLVACRoGvhFRvirGZkZqD6yxQQLcNk1apO1CSUNemXdsqXEmTX91hcynP+MTgUd2dTmpfDd2j3QzPDLP+431UGWukAq0O1q6EKlxcVu+tU9kEb5DaauXj0GyXBva3DlhbWgPfOksNgo60d6g3qK2pb9O8RAekelzGrg/HtAYuJ1HChor9j3BiZOreO5s9N//EtoZEE7SzPIwzRkQwYgjEJxLAtnFEDed3imil0cpBH5sLetzBakoHFbZyefCm7fhyXlXeLiLxS5sG5yZ89L+7idOv+c5//j5bi7ukTdYKfIuqCymslv2ORfod1zIaDQEczBf43n/8CQe5Ip/9nc+Qvelczol+PAiyDAu3FwkKpi669uhiV/iOqvXlbsZheGbw+AjbxyVqNA1ztybp6nfxN8poukIhb6k5bhrsFRHQxqGQK5FbyTPhD1zCNNyEhItB4rRJSLgQCDjQP9xLujdty5kGlQZT+hENa9VgWISDtjaa4m6R0m4ZFTg81FqrQPGwyN337vLi7k27Ehru61ISGUUG9rZK7KwcIBUFWiPGtL10BvC1YXC8j+w4Z3udFJCG8StjpLtdSvumml/fejOFNg6HOweszq8x/rHBMzzIU0BZZ8v4lTHezyzgl31cdJheWAtNb7qp2Pt/f32PjQc7TN087aoZMaeRQG4lT35jB2UctHYgiFwBtYo4jVtbke+A/tFBxq4OnZ2Tr0OQ0D1jVHTtbGqNqQZrPJkUJVEBBlPVQwIuYD9nx5ee/h66BlP44oMCXX1WzsZpU9wrUdgpYsrg6lRdPJmIQY6piKhRVAo+927f59mN6wwMZs82j+vC0sQ5Hfb/XIUXf+M6Az19fP3L/8j6B9t4vovGDW0AFbucUk1FbJdC66LpLvdRWS7zoz97m/zGNq9/6VUmXxhqIpR+SQijJZfuLOMEnnV8CXUOkAZXSO2PEtI9KYanzlCEOMKBgZkU/WM9rK9vk9Jd4bNmW1aFzrrouG2kncIRF3/fkFvewj+8htsYCZyQkHAuJE6bhIQLgFEBulvx8//6ZZ56ZdxOVNoHcVSJpVA3/yyc8MWrG6TK8L2/eZdvffkHyK6CoG6LNjsDKSq27u+QXzxkcDJ7uVdCo/rYPuRXdjhcK+EErp3qtHSIRM6DAKHCxNUrVpPhrJ02LoxMD9E1kOJwbR9jvLb7VCg0DlJRrN7f5MMlOju6IwwHH5kaJNvvsb1TQFWHvNZhX0rZFCk5UCy8s8DUz/WfzipodQ4Vi8oIYGtxn/KuQUsKhXWQRs92pDbUmCDlI/i6zNjcCOlhdbmdNkowBASqhGghqIpoaurTD8/baSOUVYmKLlJWZVCZc97/6SBKKDkFfvE3P8Pzn58hSHHmIs9a4P73NvnTf/vnmLyDCUy1fLc9qFbbalzfYWspz/q9TQauz4EjPL7o1M8AkefFAcZg7osjfH7wNb76x3/Hyk836KpkUUaBaDQKEzrupO4LWlxnsf2TZzzMToq733jA7vaf8Rv/5leZenmoPvW3E1NrH4boWgqUtipsLORwglTotGkVeqpCH6Mg2pDt76Z/rOd8+vAeGJ0dZumtNdtzVsV6xcqoVfMha/F2CoegFLC5lKeYL9PTn7rckdMJCR1K4rRJSOh4QsFRxyc97cDToB3gIYNfWtJoRAFU4GbhCt//hx9T3AvQSuOEkQrNdxs3UhRO4LC7dMD8OwsMvvi0FYdUTX71MlGB/OoOpbyPi9fiWkWEK1walCdM35yyIs2RMXgW18jOdekahJ6RLLn3dxBOoGsTnUhZsXJ3DZMDnaFep6iTCFeUJ64MMzDRS34xjwSGk1ibxhi01nh+igfvL/LJ4vOnF7oetatgDft9xfrdLSoHhi5xw6SU2u8eVUQKv0AJdAlXnpm75OmHYquvZODnv/jz9E/24asg1K9VYYTL+UfYAKDAV2VK2QKD05kLe/0FQ8UpkR5z4RlwznrF3+6Ua94IvX+dYXN7D0+l4x+1DOtQotEG9jd2WXpvmVufmLMC953YDz1RmkTZRP8KdgYwDBOv9/Hbg7/OX/4ff8MH375PWrpwVQox4GiNMVYv6iRPWXWiL5qMyeIUHFbfyPEf/rf/yBf+8HM899p1q7/VmJJ9QZ8dAARW59fIr+6SoqtNxcgI23eJJwxODDI82XP2izUK6IKrz8zxw7/9KaYchKmJxyPhYo1fEXIreQ5zRXqupFpuk5CQcDYkTpuEhIuCAh/fOms8zs7oieZALgzeyDB+dZjb9xboUl1HNfWqxxaWYA2tbSWCKx5mz7B8e5Xntm+Q6op1NxfZQGuCYOfQ5X3D+uIG5f0K2riYE4ijil2axO3ymLw23lqo+bQOFmAQhmYGmHeXoRQ1equd2ipTjnHYW99nN1dkYK6rcydKoZGaGoK+yW5UCkyFqr+jFTqM4vAkxebyFvnlAwYHu+snPadxfECwA7vLe0jJ6kgppbEPWhSFFUsHCh9OERtt4vRqZm5OHRWuvkwoMMpAt+HpX75J98fprKi90Ala7ZMvaDsExsco/2jVpbNCgEmYfX6KtbffQoKH2aVC4RIcCht3NiluVuga8myeaaf2R51GfAElA90vaX67//N8+Y++yu1vzKMrXlVrSCkHxMT6otbYMU0QA66k6GeIgw/2+Ks/+jtMQXjuczfQA3TWc/woROOID6sPNpESuFJfOaru1xvGHoPBuAHDU4OoSNj/LAn7qbGrYzgZhSmbk7nixEaeHmwesLO0w9jzfcnsMSHhCZAMbwkJF4JwsqZM/Sp99QVV/8Bxr/ZfX0u3iiYi/fD0x59C0hWEILQpGsVAo++PWxwKLS6UNKt319l8kLfpVU9oQfysUWGbFLbLbC5tgR+JbKo2hpi9IBVTpm+4h+nroTbJeVynDExcG0WlQj2OE0w4He2gAk05X2Z9fgP8czrWRyG67/th7PowbrdbjVppJ31hdW8Uyjjs5Q5Yvrdqn6/TmJSrWLqiUWyv7bO3to/yFToMm292GvH/o8Fon4HJXvomL7f1bM/f4OsKhdS+jdjLdtArg42Ou8BCq4Ltw2ypeWrRc2f9ysKtj93A6dYEKhJADi9ji34legx1xSF3Z5vVuxtQPqWL8bNEvK3ToJ6B3/5ffpmf+62XMQMVyrpIQBCOYxpU/U2umrwiwh4UJQ5uJUW330dhvsJf/bu/5bt/+iPMOp09fpwUAfZh5d46UlY4yo118E068/h/lcHt1ozPjlrH+1nNyOL2IdA31kPvSLdNh2qw45oNcTY1WlHaKbGztAuFMzrOU+Wi31gJCUdJnDYJCReA0GXTMJgqwiTkmuHVzIo6yURT1b6uZhFjQ2lfmKVr1MMXHx0LplV1XxxWnYjtSIvGDTy2V/ZYvbMJxdAp9ASzGc6UAA42Cmyv76KNRhkQI22iOqzYo6/LjM4OoeKCzWd1jaImcmB0bhCv2wHXoLSq15RoggCOOMg+bMxvQOkMj/NxiW7HDAxfHSTd62GUFTdtW/ZbqVpYeMGwei8819M4pjgVyC1vcbBVwBUX3RBlUyP+0Niw+kBVmLo2DkOcT2TEE0MQFa5KK/98nQonfZ20n02oR8HVZycZmR2mRBFRUnXYtLqUVosjIGVSlNYDlu9sYA5Jrv+jEt27HnANXv03H+aV3/kEvRNZAlUBEZR2wHFB1feedlM7rT/WHlAax3hk/V7KDwzf+ZM3+M5/eYPCSrnmuLnAdkFlG7aWtpGKjq0IHD2pRqeWUZDq8Zi8MlbThzurezg27mfHraadMbWVNPvcSdN2UGIlo0xB2FnaxezR8e0lctKEvoSEi0PitElISGhOODnqvqKZfGaCilPBKEHCib20HbUViKa4XWbtvQ2CfMweuYxjaRHyC7sc5A6xEo4q1CRpgQKUYNyAqeuT9bo/Z42CkdkR+kb7qEjFhm63EfIUMSijkJJmfSFHZd90tsEdRvMPzvTTO9qD0UE46rU7WDvp0KJQZWH97gbkT7DZQx6bKcLGUg5/18cR59imr/MJKAgIkJQw98zs2ZWJ7SjCdAuoT1HrtFfCw+EAo/DMx25RVkUMQVUUtdWEK7rcDi7mEBbeW+JgoxwTy094aOKLNRPwyd99jtd//xUGnu6mnCoSqAra2ApD8UjFWmu1HgSUKBzjkq5kKDwo863/93v84Cs/obxkrOMmOoaLhsDO6j6Hm0WUiTuujr8WomyUjeiAnuEsvaPe2c7GVMO/WZiYHUecgECC6uHWHDeNsZ0ColCBZmNhi71cIXnWEhKeAInTJiEh4XgUMAA3PnodSUGgBEGD0vUlbo/ZVClQJcXm7Tz5lb3aQH8RjbNWCFCE3eV9yrsVdFRNKlyDPH47G7esuxRT1ydsSdTzQoM7CGPT41TEj6+3td5MueiKR25lm63V7bM+ysdHQ89YmvG5MXAFNG0jiqIZjBbQFcXe8i6766VTcNpI3Y8H2wU2FjaRgsJpIxJQmwoIPj5dfV3M3pq55FE2CZeWWDTnsy89jdvrYMTHiJ1Itl4lt05VRxycisv6vRxbD3aSFKnTQGP1SibgqV+d4he/9PPMvjiNuD4q8IlKwENjBnbbFkOjSJk02XIv/gPNG195h2/91+9ysFqw6TsXkTKsza9Tzvs44toUwxZY00AQDDgBI1OD0M/ZO34jwXYFpGDyyji6S9noxfjxHT1iogU4ZVzy67vs5fYvR2pbQsIFI3HaJCQktMaFWx+5Tna0i7IqItrqHpzMvhAccdla2GbtXiyd5jJNMsN88fIubC7mkLI9QRF1klgkBMgMdNE/1Xf+E/A0TN2YwHcrdqLUtoa8nSwpA4f5Q3Y63REXpf1lYfL6OHQLRpn2aWDVikQaZRwOckVW59eQCo9pqNYvUR9slsiv7qJ8jRbdMqRbYj/5qsLI9BCDsxe3YlFCAgAODN3yGLs+hE+ZmmZaK8RW3hHrDNhd22Pl/Q04IJlIngaRQ20Qrrw2wqu//zJzL09SyVaoKD9cjdFhGinYNhPUCS5+lE7lBSkOl4t898s/5Ptf/jFmFU6g299ZGKAEGw82MAcGZaBd2GlVPk4DnjB2bcRW06LlZqdE+GR5MD43Rnawi0DVQmasFE+zEci6mbTRHOQLbCxuJg7ShIQnQOK0SUhIaI2G3jmPax+ao6SKNqy3bd5PLX3KE4/KdsD8OwtUdrCRthd1Ve04AjjIF9hc2kIb10Yi0T6FLDJ4BycG6JtI1cRMzyPdQgEuzDw1BRnrzDgpWjTl3TK5+S0oYi3RTjW2Q62G6RuTpAc8DKZtGliko2KjbVyCfWH1/jrmFDR8qptXYGdln73NAxzjgChEDM38Zo0r2oH2ufrMHJxHxZGEhLMi6udG4KmPXsc4PkrbMtO6xTNa16uKwhzC0tsrFPLm4k38OxkXGITxV3r4/B++zkd+8UWcXk2AAa2szk3YTidx2ECtaVzj0VXJYlYcfvCVn/D1//SPkONitZ/AQa7I+uImlBQqgKYdeIza0C64GZfRKyM1PZszPM5qTpvNK6RnJEvfWB8BPrVBpFW0lODgYA4Ny/dXkUMuTjslJFwSEqdNQkJCazTQAy9+8lkkVcFQOaHXxS7XKXFQFc3yByscrByCuWTzTMFOwNd22Vs/wCVtQ4k5gSGrDOIEjE6HIsTneWFCp83gVA/pgRTmhPHOSmyotH9oyC/swl74ZZ3cqC4MTXfRM95NoPy2hjVQFZDW4mCKirX5DUpbxcc2VFX03QXIL21zuFNCKS+Km2+zJRgFOqO4+uwVW7UoSY9KuMiE6RrPfPwWXf1d+PiYtl7rKBTE6qu4xmPl9rqtbGODdRIeh/j100A3dH8EXv2DF3jxi89Q7j2gpEPhaG2rSskJOqIoBVei9hWN62coriq+/Z9+xHe+/FPYpvMdNzEv+t76HjtrO+BrtHJaji0KEBFEDAE+PYNZxq6M1kqfn1c/rqGrH8ZmRjDOycVptGh0RbO+sEF5P+jsNkpIuIQkTpuEhITjiWznFFx5doy+sW4MAW1KIlURAWWsAGFuYZu12xsXpFzkQ1KClfurlLZLlphwjAAAIABJREFUuOJynPXVGERjlEF5wvhMWPLzvIy2aD8avBEYmR0kwG+5zla/ucaUYW/1gMOtoGON7KpwbbiaP3F9HHEMRuoN1UadRhVT2lRotO+ytZxnZ2X38c4zHiJwCDsre/gFA6LrPjpK6AJU9p7JDmYYvzJkV8ITh03CRSZc+R+/0cPU9QkqqtI2rbS2ob35PUlzsH7I/bfmbeRfwulQU3yGbnCehc/+4Yd57V98BndQUdElRIWRi0pXE9taaXRHjhulFBqNJ110Bb2ojTRf//ff5Nv/5UewT+eK28fxYXd1j8JOCRfP1tasOm1aRYoJFSkzODFAduwcpmHxRoh+7oWxuWF0yh7RScYRLRpXXPIr22wt79jU6E5vo4SES0TitElISGiNlfZAzcGV5+coU8Fgq0gcF8EeTz9RYbRNOe+z/O6GNcg6dJL/SAhQgtX5VUzZhEXRzbE2UPx9Q0BXX5rp61NWhPi8q9AoYAgmr44j6qSNEkZQBQ67GwfkV7c7VpRQxX/ohsmnJiFtEMdUhbTr/I+iUFKr4SxKbBWpwOEwXyK3lK9VOnlUosisjRK5B3mUr1G6fboWGARDQIXR2SHSkyQOm4TLQaif8vRLN6g4Raqlh1sSPb8K17jogubeT+/XxpeER6fZOBSmmTINL//eLb7wB7+ADBQpySFGG9Cgdc0maNujSSRvJzgGuoIMwabi63/8Td77+r2a/l3cedMpjpzo5A5h816e0m45tGkkFKs5zmUFWmtwoOKUmbg2bitGnjdhW/ZPdON1u9XFmhNp2uFQ2Cqzv3pY77RpbKuEhIRTJ3HaJCQktCbqJXpsaVY341j9E3VSD4OdCDsVj/tvzrO/fnTWe2HH+lCEuLjls/ZgAxU4KKPC1bZ2ZyX4VMgOZekb7aVN8aDTJ2o6F2ZvzoArBKad90Wq/zjicpArsLmYuxgpCRpmb02THcpQlpMfsEKjxaW8W2bjfs5OCh8XA7sbe2wv76J95wTGMkTiq3gwfXMKBkicNgmXAwV0wfSzE6QH3CORcM2J+leFNgo3cFh8f5mNezsXeEDpYKKMNBdbpv13Zvi9//WfM3izh4LeI1A+BmN/SbVWRzny1aJwjUO6nKayJPzFv/sb7nxz3kbldmI7RvfXLmwt7uIfCuDUdGOOcdgIYIyxov/pgGvPzllH2Hku1kTX04PBqX56R7oJCJAGrTel9BHtN1sLUxMcCiu312tR053YRgkJl5DEaZOQkNAeDThw/flZhicG8MXHKIW0FXStkSJFfnGbpTtLEFXhCQf7Cz33NJBf2WF7bQdXXOoDVo7OHiT2fuAaBqcGSQ24NRHi8yQ0FmdvTJHuS+GrADn2GGpLagrBEU1wEJBbyeMfnM/hPhYahmdSjM6MUDKlNpMK2z5KFFoUjmhMAXaW9gl2efRJYXRtK5Bf3aa0XcHFw7Rx2gg2MsioAC/jWPHoJDUq4TIQcx4PX+tm6qlxRPlIS8dN/QNoU20cCrkyi++s2hSpZhEayeTy8QltAXph/Bd7+M3/+QtMvjiMeAFGC4R2Qa20dfvLH/mDUpKiNxjg4G6Ff/yT77Px5jaUY1FX5x2J2goDe7mA/bUyBB7gcJK6Z/b6CKk+j5HpoZqezVkTb4Aw5S0z0sXAeD9K17eMUspqFWl9xB5QAk7FYfn2MrJHva1T0zNOSEg4AxKnTUJCwslQkBqFK8/P4LtlOz4/xODsiEd5z+e9N27XjOrYd3SKLXZiIiOoAluLO5S2y2FqVJyjK21V20kBrjB+ZQyvn1pvfN4Gj4aBmS6GJwfDkrvHrRPWv6txoKzYWNjkcKvQ+YZamCJ17ZlZKrqEqdZePdnmOtDsrhyys3bYPP3iJJPCKFBpH1buruLv+7jKPUE1K4WIjczqGcoyeW3cOm2SETzhMhDO2vUIXHv+CqSsg/LEm4dRn6ro8s53PwjF0amfpNLwXsKjE+ncZGH057r5zf/hn3H90zP42SK+KttUW6WpKwvesouzfbEShWM8UsUMy29s8s3//G227+52XvqtAD7kVrbY3TxAGadpZEozFCDKMDjZT2ZMnV8f3nhoGrw+GJzsR3kGo03dJRakGk1d/77CJUVuaZvCtl8bC0+aF5eQkPDIJCZfQkJCa2wEup0k9sPci7M4PQqM4aRlPsFW4XH8FA/eWaa0zOXQHRCgACsfrKNKrq0ecUTxr7kVI4Cbdemf6LNVgJ4UYXWQibkxAlVBqXClzf7Q1HEjoYGtA4ed9V32c8c4MjqFqBm6rNPGyYDoMMUverXcXtCBy8F6kc2lraPpYA8zoTBQ3g7ILebQFY02uq2dq7BCn0b7jM4Nkxlyzm+FNiHhrIg7OsMqhbPPzpIdyuA/hHhUlF6YlgxrtzfZuLdX64+EEzgNEh6ayCbIQv9LHq996TM8+8oNUj0KQ4BSTlgSXLf1jQsxPRWBtOkitZvlg2/N88ZX36K8ZjrLaQNQhq3VPIWdEg7OyRexlEKUYfzKCIxQHZvO+vTqnoHQplPdMDIziJNRYdW2cDgUMBLpDtVaT7DVCx3xKGyXWby9aL+vcexPnrWEhDMhcdokJCS0J3LcdMH4UyMMTg+E+evtNqpZ5QqNIy75hR0W3109KmJ3UdmHxQ9WcYLUCcUzrTaJIGT7uxiY7LV57U+KsF3nnppBpaKA9tpHRx031qhTaLRx2N86ZHs5LLXb6Tgwca2f3rFujDIPcdvZVKnSdpnNxRxBYwW01v65enw43CiwvbyNYxQ6fETaO27AeAETN8dw+sM3LvJzk5DQiAtjV4YYvzFKRbXrUFTsb+tE9khRzJd453vv1oRsSeaQZ0aU15SFvo+4vPavXuGp1+ZQg4GNuMHYseIkkYREpcA1SuzYUtk0/OSv3+Pdb96GXY5WK3pSKW8CpV3D2sIGlcPARp2ecEOjfMQ1zFyfris+cNb36JHvD8f9ofEhUj0pAglQYXSUKGVbQ8JX3I4Thcalchjw4INlGwWVPGAJCedC4rRJSEg4OQ70TXlM35xAtDmixdFceq/2oxaN2YP3v//BxS/9HdoxW2sH7Kzt06WzNiKi6qRqbstEDhtRhv7RXnrHsjUR4vPO2Y/pSYzPjeJlHVD1ai/1jpsG400cSns++eW9Dm3P2JlE13YCpq5PWDFt6j9u/g2CiODiIgVYnV/jMF9suLXrnV3HorCVo5Z2ONg8tFE2olAnqJajgFSvy9jV4VrFkcRYTrjINPZ3CtIjMPvsFE621c0d6akpor+VslFrTkXz3g9uQ46jiwKdpIlyUWl0lCixUX89kH1R88rvvsxHXnset1vhGxuSaCM320034p5vjYND1u+lfN/w3T//AYs/3bCOuPhxPCkECvkCm8tbULbjYCvit1yAT6rHZe7m7Pndi8eJCjnQP9JH73AvQlj5MnLaiIAEMYdNbfFNiUZ8xdKdNetMO9IWyWpCQsJZkDhtEhISWhPZUVG0TR9cfXYOt0cTaB8d5nI32N4ctZAFRJEyae68OU9xvRYOfeGIjtnA4p1lDneL6DrPS43G/ylRdkPHMDjZR2rIPd9Ul2YGnIa+iQzZ0W58ZRBNKEKoY2LTRxtKFAQFIb+wg79DTXugE1ZDgSNWcahrc/VDs4jjW+0FiSKHjrOhw2mhOCjfYXtph+J6sa70twr/tCS6BkVYW9imeCAY7SGoupXM5ocgiAroGelmYKa/VnEkIeEyobACt0+PkB3NYjSIVk3TR1Rs+JDwByUKbVzW7+TI3e3wlM2LypGOMvafLuh+zuPVf/4xnn79GkF3iUBXQlHi2satl3pqfWGUUr36Vo7vfeUNCktBWFo7tsl594Ohns1B7pDd9R1UNVqyrgIB0XlE8UNWy8bqkvWN9DA21/dkig9EhOltvaNp+qe7MW5QV8VQRKhfk6vZARqFZ1xyC1sEazzhMb45OkzxPonOUELCRSFx2iQkJJwcBWRh+uYEQ9P9BMqnsfR3Mw0UwEbaKI0nXWyv7PHej27TXLagw0b/kKaLST48+GARvxiEzhhLa3vSVo/wuhxGZobw+ojbQ+ePYEUJJ2B4ZghfBRjCnPbokFTzpToRUL4mt5BnbzM2SepUO0kAB649N0u610PCG7D94aowZN9ld32f7YWdR0sHM1DZg4U7axjfARWVgGrd8IJBtGF4eoi+8ez5l4dPSDgPFJCCoSu9jMwOE4RRiUasV7VZZbv6nsk+o/4uvPuD27UUqSfZv/6sEKVKZcB5Gn7xS5/kE5//CEG6RIUydbZAyw5Xqn8r0bjGI3WY4c4/3ucHX3sDDnly40x0/5Qgv5znIH+AY1Q1jej4DWoEqsLozAhEKa7H/+rZo8Dph96JblSaFtGicRvPpgo74nCweUhucc+mrXUa6kRLKQkJF4rEaZOQkHBywtWZgek0U0+PYTy/mupTTfup/mLtJQqsIKHGEY0UhPe/94E1wFqt3HUQRw5RgDws3l5Bi64zD9pJ9QQEeD0ewxPDVoT4YTRRHpdm+xIgA2OzI9hlQ2MFCZHQX3N0o1B9AE889tb22ds6OH7F7Uk3aXRMDuDB6JV+Bsf6qJgSIgEGoXGd9DiKu0Xyy7t1mhknxkBxJ2B9cYOU8tDVCUrrxjdKIA3jc2M1J9+TvqYJCY9L3OMSRWNoyE66zNyaxEkTito2xnEef/MrNG7F5YMffQDb1PdJyTNztkRNkwbnJnz2Dz7Grc9epejs4cc6TFXXb7ZLLVV40oW/o/mnP/sBGz/dhwrtB9mzQoAibC/tUNkt44iNnj3ZYQiBY5i6NgFZnlzlqDhd0D/ZQ7rbq/u9Zg7S+q9UBAXD/ffmbXtAxzlFkyibhMtG4rRJSEg4GdH4p4FBGL81SqrPtRNKauHPkWxdM4yxIc+eSXH/zQcU56UmLthhA35bFByuCrmFLRzcI2s6x6WRAwQqoGuoi76RXhs18SRti5ihPXl1HDetMPhIGO4dhXc3enmilARXXMp7PusLG3AQ+7XYZOyJ0hixroB+q2tTkmJ1ytDOSI0ICsL6/U2bDtb4/e2OI4C1+TX2Nvfx8GKTl9Y7D5SP1+sxfW0Sutv+ekLChURF0Rp9MP3UJNnhNEb5tdv9BM+aFkVK0qzf32D+nZUkRepJoLGLEdfg1/7H1/jQZ25R1Ps2MvdIh0zb/kwFGreSYm++wFf//d9ZZ1y1Xc/ZcBAo7wi5hW2khA03PdExCEYJTkYxdWMK0vXfWf+f03yFqGNeXTA01U+mvwtRQRsHWuzrROEEDvfem3+0BYyEhISHJnHaJCQknJzIuOqGsVsj9I33IlihQa10g8PmqOGgsGLEnklR2PCZf3upPkWqlaejkwhTozYf5Cjmy7jigmmWA97cGhU3oG8iy8B4n+2Fn8Q5R/s02MP0bKRNtj+NqAAlghiDkQAjpmm7GiUoNEEhYPXeuo2c6rRQ6WZNkIWrH5pDZ8PsMGXFFU/iDdGBS+5Bnr2Nw9oK40kJYPHOIpV9H0fcEzuKfHyyQ1n6x/uS1KiEy0MzKZPQgTxxfZShKz0EuoyIVHWn2nWWSjQpSVPeDbj903v14rUJZ45Np6XajlyF3/ifXufaJ2YwqTLimPDz2jii2ox9CnDFoafSw/3vzPOjr71j01OF0NN3jhjY3zpg88EO2nigVdtjEGy0pFEBXYNd9Ix3t8iKPc678qivNmjoHsnQM5hBtAEMNia6vXC0Ix6r8+sUNqU+8qkmYpSQkHCKJE6bhISEh0Nhq0jNZpm4NgaOj5EATDzJo24Ej20chUc7UNC8/f13YY+jq6GdHEkQnVIR7rx9H11x0aLbGGD1aE/TP95PaoCa8WawDo8g/Dn+/7N4RfuIOW4GBrsZHBmgElQgnCRFItNxd1w1qkjZFTcVaDYWcpTiK6CNETedQpjiN35jlK6hLiScDTaKaR+HKy6764dsr+3WhJdPggCHsHR3Ge2f3EkEIE7A6Owgg2PdTz4yKyHhNGl2L2vITMLIjUFUBlR1YnySyahCGY3ju9x78wH+Kp3V/1xyVOMPKeAp+PX//gtMvzhOOVW0Qveo2J+2LYoWTcp0YbYV//Dlf2T/vXJtHDsvwsWa/Oouu2sHeFG4TFM9m9om9iUYDMMTw/SNhZ53Q/04fJbj/XEvYGCkl9HJUZQntqpitUFapSEqUqTZ3dxn4fbi0XE/GaMSEk6dZM0uISHh4RBAQ2oUrjw9xeI3FilsV0A8VN0CiyDK1sZRYS5NPHs9JWmW76ySW9hleCCMOLkoA304AV+4vYT2nZaHHa08xlcT3ZSD06Uo7BjKqgAE4S+ch1hJ5IKx1qLCigo6xsUUHAaG+lBaQiMsDAOqpsBZEcK6dAWl0eKwvbbD9uou4zf7zvj4T0jcjo4bkuH92zeVZmhmkNzKvv1I7AKhktZzPJcUpV2fxTsrXHt1wqYBnJDyumFjYQOPlC0TKzWHWMt9dmmGZ/pxhzjfSmMJCedJvOvrg4lnx8j8f10Eh4Jj7PNin5PjFagU9iM3cNld3Gflzjqzc2NJxbUnhQbSkP2w5hd+99P8xb/9W3bfr4Q6cDoU8G2XlKPDvx26pJudOzv88Gs/5tUrn0D1n92hH8nuDRdrVuc3qOwTOm2iUNkTfJ8y9A30UC6AWfUpaSvqV41OolHv5yyx47obpAkOIN2dxrggZbGmmNKgzLEOKYXCwcMUYenOMreC2dqMUh25cgkJCadA4rRJSEh4eMJc6MmnxslOZtjfPcSTFKYuvCL8xXhadfixDqtC7K8fcPfNeYafeeFi9UYC22tF1hbWSekuVHCcgRImjFWtsnDdreRw/wdLbK/vUkoVau83GDpnY/ZEsVC1EBgHB4wiVcywfe8Al7T9JG6whVE1EG9d274azUG+SH5pl/FKX32+fieiQA3C1I1JNt54HxMYHOWEjhtpKXCjcJCSz/LdFWT/o6g+jo9Zjdu7BjaXttle26OP0dDUj9LOwjSBI5tZke9Uj8vgTL8Vr0xI+FkgBZM3Rxmc6md9eRctGq2cqtZWS7TGEZfKVpF7P5ln9lNjSYTakyDmJCcLk58c4NMbn+Ab//f32Vvep0uy4eLBSbALBq7y8EoZfvLNt7n+c9eYeWmk5pCLmR2ndfh1GOAA1uY3wNd2LDipBgwKx3jk7mzzV//n3+OnyviU62KSTypnfDqEY7+4qMBj/14RyoIyUeht7XeO21yLxg1c1u6twS4wQtsInXNDJCyOkZBwebhI06SEhIROIBqPPRi60k3/tQFW725AWP07SmmmGmFzdGMtCjfwqBwUmX97kU/svACZczuDx0dg6e4ihZ0i3XrwGKdNM3NBIcqgD1223txj86c7mGOM1vOIuTmyT3HQ4tWcNg2x7vVOBRV7X2EOhZW7azxzOAO9nLoB/dAct19FVShz9uYMb2XvEuz6ONXoo9YHro1Gi8v6wga7GwX6JzIN/rbYf+ITiQosfrCCfyBhOp11cdp4J6kGmjVGqokK6B3uZnBmwKYa1B1asqKZcAlodgsr6J/KMHNjko03dwn8IEykaT3Jj5ygyrh4hRQr76+yv3ZAT0/36R93QnuitnWBYXjuF+bYXyzwnT/7ISofuqpVox5cI2HqtQiuOKQly97SAT/5xk+Yeep1GD7zs4gOg/Im5B5socVFoZHYUlUrlGg88di5c8DW3d3jd3DubgYNaOsURaFFQZ2G3XEolLHVI3MLOcqbQmpIPRnDpQlGBCRRIU+4XCSaNgkJCQ9PODCrYZi6NYrT7RAoEGWnnqqWUXPsF2gUqqTYvJNne6HYKuK98yjD0p1VKGpc8zBLuFF6kUKJxjEOrnjNX8bDOe+XOKFx3Px1PAplHBbvLuM30yjqRFIwcXWEnpEMFVWupu61njxYtFLsbeyztbhTE9Ku2tuxeyHyqQhQgPtvPcCteLHfqH9W6tWfbJQNLgyM99E70d1kmaUDrOOEhLMgrCI199wcbp9jKw+d5OHEji4ajfI1ucUtVm9v1j+nCU8GB5iGF774NFdemsLPlPC1D+pkU5FosUCLgxzC/R8ssnlnt7mO2mkhsVcA+dU98us7aHkU/4Q99mPHfEnhSvp8XyaFa1wccdDihFprJ784ymgONgrkFrculg2XkHABSZw2CQkJj04Wpp8Zp2ekh0BHxRx0W1FX6xiwKVKFtSIP3l201SA6GIn/sA2r9zZwAy80dE5iusWSikLHjRYH17hNX4646HN+qROfSz1W29dja2WL/VyhVkGqU30KoZh2z0iG0dlBAl0JI55OsL4Ypon5+wGrd9ZtBanQOdN0nTQ09v08rN3bIC1dVptD6sVz4nODSP/JSICTUoxdGSUz6oYjdhvRnYSEy4ACPJi6OUbfRDei/WpUQ7tuxVab0mjjcJArsvjuihW8T56bJ4sC0pB5Bl76lQ8zeKUX3/ExSrVt1Fr/qHBw8Pw0Bwslbv/wrq1a2OhxP+22DoO8Npe2KOyUqqnBDzvE6VA/rvnLwzGp831J3GHjEI+qbX9udvHJ3zcs312trwSakJBw6iROm4SEhEdHw9iNYUauDmNSFQLtA6YacdDScaOtAePvCvNvL1De7uzJaPVcDBxuQn55Fy2PKpRgjZ145YxmtVE61edxBAFPeRzmiyzeXam+19E4kBqEyatj4BpqItltzFWxd7ZbcVl6bxn24+/XhFDromyApbtr7G3u4+kUQlgClrg0d3xaonDQVs+m12F0ZhiVjb78wtwVCQmPh4auaZi8NYJJ+SgHuyCgdJunwITph5rgUFh/36ZvAMnj86SID2rdMPWJAW68eg3dZ7W9WpfNtqmiNZc2Vjh/T3H3zQdsL++F0TaqcbPHQxp+PoTF20tIScCE6TenOs7JE3rV7zvutmn5uIigxUGXPVbvb0Dxcc8/ISGhFYnTJiEh4dFxwBmBq8/NobOCURVOIixoF8WstocqOazeXWdjfhMC6FTpOIFqec7NxS2KWxWcNiVJmjliap9cpHJZ7dHGwRThwe3FWqRNpxI1SAZG5oZI9XgxbaE2baIUiMIJPDbmNyhs+bWw8HpRmtp7Acy/v4hfMDi4YWUOBdpOQnWsrHok9axQiGPIDHcxOjNsxTYTEn6WUEAvXHthBjerCPBRLSf3UDcRFYWqOGzN77B0e9VGc3bm8PKzQdTvamAEXvzch5i4NYZxbRSVo3Xz9q16wmtocXDKHuv3cyx/sGajPM5iOI2+MwCzB8v3VnDFJfIhPeztdNwiTc1GOF+HTf2+a7bbiSJtlC3F7vgpNhZz7G8Uk+crIeEMSZw2CQkJj44CuuDm81fpGnAwWKdNvDLRcQiglYMOXPY3Dtn4IAeltms7T4yqpkvJrrYF+9iUorb5+M3MHyGa6bdb+7oYKLS4OIHH8r3VWvRJJxPeu0NzA/SO92JUPNLmeERAK42Lx87GHgsfLNU3VLNQqT1YfH8FZTyUuFbwEaq6CPZXVfXeFwSjDIFryIx1MzTVU1/9pjMfkYSE0yO6xz248qFp+sf7KJsyRglan9R0VTjicbhZZvXuOkSF+hKeHDFh4t6nNM9/5mmkxw+jdI9BVJi2G3nFrbPBEYfiZpHVt9dt9aL495/msYY/b68dsrWSxyP1SHZKvPs+Lrr2SXDUWUTDzy22VQ74mp2NPTYXc7UFjOQ5S0g4dRKnTUJCwuOhoe+Ky8jcAOIERCN2PPGjkaqhIgptFMV8ieV3VpEtOlfMLjxoKcHagw10WeOgMUHrsJKaQXbULDtJ0PJFQYnCMS65xRz7i/7FOAEPusczDE8NhpWa6p0nzbH3tYOLKcLdt+7ZVd7G842JYlY2Ye3+Btq4dgIS7UMEiV7xjcKbRqWgf7oHNUC9xZ+Q8DOBfSpSk5obL16j4lYQLRhpFY9ZPxV2xMXsGx68u8DO6sHFEEmPiAYCg41erGD7mot0Ds2Iom2y8PzPXWPoWh++U8HU94JNNqr9q8RGeQQHwvrtPAfrvr1GUXTjaXpCBKjA/fceUNwu4+G1Eea/wKnOMdoN4SosF+rgUt732VzYqkU8XcQTTkjocBKnTUJCwuOhgGG48sIs4ilQGpS0HbNDKV4rflvSbN3bIbfUoUZ1zHjeXttjazmH9rUNu2h7wFKdnFfdATbD5onQPjwbEHn44xRBGaGYK5J/kLcGdCe2ZRyB9CBMXBkjlfZsqlLbVXxBCBABFWiWbq/ANsfLKRjIr+xzsHmIG6ZGCcp+HqUDqPg29qKLCOlul/HrQ9AXflezgK2L4BxLSHhYBEBVJ/c3P3oTkzWUpXKS9X+iZEMlDm7gsrmQY2thu7PEUkU4Tjw3GlqkJPjbhsJ8mcUfr7B1ZxtK536kZ4MGZw6efvk6JmUwKgw9VO3Sh237KtE4QYrd5UNyS/ma8/ws+kQfFt5fhKLGMa3ToqvHB3UHFPPj10wKkepLovshfLUbq0/jFT9mhQ7NFaG1xpDFiPWQaXEwBWFzfutiRNkmJFxQjhQQTUhISHgoFJCGmx+7wT995Q38QgVXeTacucWkPb4gpgOX/OIuy7dXGHrhJroqutohRFHZAWwt5jnYOrTlsQ20K0MbxR2hFEYZjNjIHFEnScZ5QlTFPlVt8nSSzdBIQXH3p/PMvjba+SOMAnpgfG6UdJ/HQamIK6mTbSo2JWzjwRaHS4b/n703/5Ekuw/8Pt8XR2bWkZV1ZN1VXd09fcwMOUNyhiIlkZRWoih5dawN2Nj1sf5lFzIE7x9kAwYWhr2AYazXC9iQd3WsKAqSCIkcipyz766u+z6zqjIj4j3/8CLyqCuzu6uqM2vi08iurMqMiBcRL977vu/ZNdyo7BGw164C84/mifY1Wa1iN/8k54ZdpAhxNan4EyMGrSK68hmKU4ONoVEpKV8mBHBh6u1+Bm/0sfdZ64lpEm9OtMPeyg5LD1a4+fUJyNAmz1PciPqQkgpwBIdbITvru2wsbTD/aIGVx2ssbSzy4a99g9+bMxkIAAAgAElEQVT8Z99Fcm+u1a9KMucDtTk1B29/+y4/+eOPOSqVyeC3WMHQfkcZl9LGEevzm0xXihef+yu5L9uw9HQF1/goo871Ik7Ct2q70GijMWIQkcZoWnX2uZomssVFICfe2bnfiIAIRp8jxNU5hpqKYWthh2AL3GKbPF4pKdeMdhepU1JS2plkZnZh4HYX43dGebQ4iyMeBsVZWhsrvNVc3B3jUtkOWXi8yN2dG2RzbZZ1tS6fzcaLLSr7AUpnqjlJzjLuJctwUYLG4GYcuvK9OI7Ei/Xj378CtwnTwnGMolwOOCodYYLWEvTGNjfcMMP8oyVbhrWbY5J6m6EAH/rHC/QMd7OzXsInEbnPFsvFgBFb4+lwJ2Dp+Sq3vzoKTt3pJp3iEBYeL+AEcVlVBKkv922SvdZ+1aLRStM3nGdgvL99r19KymVR3+cVMAa33pviZ188QEe6xUci9m40DroEa482KG9oMgPqzT5TybOvgRDCI0NpZ5/t9R22X+yxPbfH5os9Vp+vs72yTWUnwD30CbIC9zzkulTpEcCB/ttZpt6e5JO5h/jigwZpcS50cGyFsLk1Krtv4Xc5Fx9DYOBgybC1tItPjzVOnGmRSvwoE5OUwfNdsr1ZHN/h+LxyXmLtq1DaVNthrKdNFGj2dksYTYvKM4MYg4RwsH7IzuoeA7d7ketVZyElpS1IlTYpKSkXQx+8/eE9PvubR+jQVsk5T+SoX8s7uEQBLD9ZZW+xRLZYaL/iSgbYg/XZLcJSRFbHApjImev7OPoegyZUFUbujvLtP/gmXpeDNifLnBpzFfFEp2iLai0AwIsyPP/sBR/9+S+orBlb3ahZDH+8W198Vl6ssL9SoWfQb99ZpqoxhP6xLvJTPcw9XMJEBquVOX9DQXCMgz4Unn42y+3fGgW/7pYKEMHBRoWVF+u42kOJqobKHVedHbfMGj9idGaY7KDbXs9BSspVI0AW3v7wPr/4fx8Q7ti8Is0fjDrDQOix8miDjblNxmeGwOf4Q1c71mVigCOobEfsL++x9mKLjbkdludWWFlYZ2+1xOFWBXMITujg4pAz3Xj4lMKIo90KlQPwNdcjwYEAvfD2h3f5+Q8/QVciXDxa9aZyjENYCdlc3uJor4I/eoEuSEkTQlh6tsrRToVMUvnvzOYlNQDtPBI4ZQZmhvn6b36Vnqmc9aq8uBZeEDaUyzEO+0tl/vTf/QWHKwE+mfO3MrVtlXY42CizOrfOwIe9NNk0JSXlFWhXcTolJaWTUEAGbr9/g9xQhmg5wnsJK1ESm745v8Pakw2K9wpU5bY2WrBWdmB7aR8p2+pBhsgqX06JEE+wa/eIwCkz+pUiM787AD3HvtBuBOAWJ/n8488pb4TVCLDzFTe1ih4HWzvMP53n/tu32u4eAhzXljgF6JvqxekSKJ+nsKntwCbRdvBVltkH8wQ738LroVHZaGD1xTq7a/u4ZGLx1tRCoY5dl+pmolE5GLs5Cl2cvThrt+uaknJZOHDj7SLD04Msf7yBK24TT4DY1S2O0nWMz8FymbmHC4x/MGSlX6fuq5eOsQ+8gaVHa/z5//UXHM4dUpovw7ZHcAgmdHF0L3ntxKFdhmqaF0Apl73NEvvb+wzo7pqmvGM4NhkIVW/HqbfH8PsdouVEadMaYgQnctjfPOBwt0xe52r39XWbmvw8gmdfzEJZxeFNZxtXqkHPAkhE4FXov9XL/d+ZQt2+gHZdJhqYh7/5SYbdtUP8qLnmxfZNGyoc7GnWFja5U76JOq4UTUlJeW2ug54+JSWlHVCQm4Gp+2NEpvISXiO2nKdjhKOtI5YercEebZdg1USwsbTN/loJjLLVhlrZDhvuYjKasVsjNmQoU/fyr/iVafLK2ld2OEPXQBZxiIWvZhKYda9WxsFUFEtPVm21k3bk+Kl0Q3G6QLbHw5iomXaKmqgqeMZjc2GD9bmtk18LYXl2jUopxDEuYtSpmZ2ThZnds0FLRKbPZ/zm6EmPgJSULyMKGIJ7H9whcMp2XSwSv07bQKpubzYtjktwoJn9bJ5g0zRG7sqxn5dCLX/NwXzIL/7kIUt/v83RnCHcMTgVD1/7uMbB4bhnY1yLUQv7Wwcc7JQhOs/boz05syqfgu5RGBrvQ0tkdVFn3teT+3SMw8HOAbub+5eTaPoA5h8tkDFZHNNqgjF7c5QndA91oQo0zK9t+yrCwGQ/gSm3cJq2X1qzlUNUho2FLQ43jzqub6akdAKp0iYlJeX1SUyBBbj/wV3EN6BanbXjAsjaIGWHuc+X2F4+tNWH2okQ1hY2OdoOEOPUrb3P9rKpVogQjepWjNwcoerVr9r0FbctN+TTN5xHuUmy3CbThYnj4o2DijyWnizbqkrtKrxJ3cuHockCPf05UM1qztfutyC4xqW8W2H+0XytzyY3fh9WZtcwFcHBPXXRUm9JlyRttdL0DvfQO+qdYjVu1wuaknLR1PV1AXJw5+u3yRR8tOjzIz1JfP/sUyda4UQui49X2ZjdOTm/XEVYVPyz4A3REwzQWxmiOyzgRVkbPqkdlFbVBPcNyckxKBRHu2UOt4/aqwrW65AMfv0wPDWEURFGklwvzW+KnXOE8kGFg62Di7suyaE1rC+WWJvbwNN+nPuleVheEprndXn0jfVaY420+UsBWRieGcIobcN0m14oYxMso5DQYXNpm/2V/XSaSkm5BFKlTUpKysUggAPvfHCHnmKOiilXLaFnYuL8IRiMCK7JsPVil/UXm9ZLo11KRhswR7C5tE1QMqhqOZ/miXdEFJEYcoM5ekdcuwh/k4JZKyhwe2FgtIDxQKNPqXJhqJU9qd9UcLXD5vw2lfUTH7cnCgoTBQYn+9FeQCStaQzFCI72kLJi8fEilGg432gbdhZ2kUBZoZZEMZNsX/uuMSZW8Bm0oxm5NQyDyRdf9wRTUjqYpP87MPRWjsGZQQKJ0BIvjc/KKWZLsWHihb0yDvurh6w83rBVmsyx11WcA+B3uygfImPihK/KDqVag9GArs4u1XT2IihcgoOQ7bUdW/a7E8bWVvFgcHyQUCKMMrSa1K5qGClrwlJ0cWW/k+0jWH62wtFeGZuA2DRJ5G+VGBqDFoPX65Mfz1svlqvoZ6+LA8PTQzjdQigB4sRRfWfeCqkqziQS9jdL7Kzuta+XbUpKB5MqbVJSUl6PeiFEQWYSZt6ZpswhKFs+Up3h6lwfNm4Az3hUtkIe/cNj2Kd9FqsGSpuHrLxYJTq0ZUZb1YQYo9ESUZwexCk2/fqbJ0lg40FhpA+320G37PZkXfaVcSitHbKxsHmaXqf9EPD7YeRGEclyyvmeV0lK4WiPpaerRImSygAhbC7tsbdcwoTN+4koZRU3ymB8w+TdMZv7qN37S0rKpSGNbwUYgdvv3yR0IjQaW4ittXBGhSIqGR589AS9xZsZlwQyPUK2N2M9FFRNOSFx5aHTRwtBGYU+MqwtrhOUrrbZl46C/uECypdYLfJyA58OjFXaRFzMfZV4PxVYerKMBAqnanE5HyUCCrQy5Ao5uke6odWoqjeNgvGbI3QPdBFIYKskynlJ1STeTHBwONotsz67aatHdoKSKiWlg0iVNikpKa+OOfYToAfuffAWkjNE1PKDnJeX2MawWxd2FSjmHyxRWaN9QqQ07K/ts7u2hxu5qMQGKi1Y3YgwEjB2o2hdpCHRbbQlVWHZg+HJItl+v2XPE7AWOUFhjoS5Rws1i3a7cbx0kw8j08P4PR5a6hcN55viBVBasb96yNZSnVt4CEvPVzjcCeI8COc3xSpsICSkuz/H+J2Rk+1MSfkyI0AG7n7tNt19XUREsTGgxdWwgQxZVp6ssrVQalzgX8WCOl7j+gPQ05dD62axPDXDgBhQRiGBYnN5k8puuTMU4q0iUBjI42dcjGj7eonNTQRhWV+8d+4WLDxagsDmbDPmfFkGBKPteC4e9BXz9BS7av2r3RU3CrIDMDTWT0gFIFbaWOXimc2Pw6P1oWZv5QC9z/XpmykpbUKqtElJSbkYEn9uFybvj1EY70MTxmEf58/eiSBkExK7rM9usvhg5WSI1FVabuoVUhXYWtxhb33P5hwwiRmuuT3QKI3KCqNTxQZrW7vKbpLcRwW9Q1lygxmMo6v5FZpuH1uEpaJYfrFqLW7tyPEb4MPYzAg9Q11opeO1UnNJ26BRRhHsauYfLdo+G4fTrS1sEB2CI+75YYIk4VGaSAKGJgbon+xKZ+iUlHoEq0y+kWd4ZoCKOaxbQLc2onr47K8d8OAfHtVCaa6aHutVkoQGn4Uc+02hcIxie8XORQ05tDqZWDeV78/j+E5ckbH+w2YYjDbo4IKVNgZKaxE7S7u4ODb/mGlNCIlMBJ5hYKxAV5/zcuHJb5oMjN8YISKoZrVRoqxX2Jm5huJcPxVhZ36P0kbl+vTPlJQ2IRUJU1JSXp3jEUJxXpvsJEzcGUNLxHnlMU/uzlYfCnciXnwybxf8Nf3I5XPWMQ5gc36bw52kKoLBGN20yJARQ0hItjfDxM2xk8dqV2HGAAJuH/QO5xAPWirlARDnjnCMx/rCBnurB+2Tm+gs4j6cHYL8eC94BlFiw/rOCIOL02WAgMJBHbksPF1GHwAaSluHrC9soiqOragVaybPU35po4lUwI23JhsTV6akpFgE3CG4/f4EkrOuMmc9o6dt7GgXKTs8+sVTW6XwqhEgC0MjAyAGraOafjh+U80FV6c0ToKmHBSlrRKbC9s2r801ws/4GLE51CytJ2MTAzqKLtb7KIKNhQ0qOxUco2w+MutG02TDODlvRugfKSBZ2tq7tkEYiZMR37wzjbjGhiBCzYghpyluYm8wwIlc9pZK7KzsXlyoWkpKCpAqbVJSUi4aAfJw670bODkITfBS87YgOKHPo58/pbx2dpLJSydRFmnQ+7CztI8px8ZRbZpXhQbAEEpAYaSP3vFM5424vTAwMYDyiRNkNiPJzSCoyGFvo8Tq3FrnCG79MHJ7CCcrYFNJ1smmjWFSUv2TVTRK4LA2t87eWglC2FncYXd5BxUqFApBrDfNWQK/gBGN9kNuvjtty8OmCpuUlEYE6Ibx+6NkBzI2GXGLlYbAJv1VkcPCwyW2nh6+sbFpcHwQ42mM0nHut7j98RjROFaYWGEAiCIsadZmN+GIzhlbm2HA8UA5qi5izVRfZ5FkK6JByXUBRMARLDxdIjgwiGktnw3YcCKjNJk+l+LEYLViZPsO53XPT2x4G70xitftnvCSNnX/n4aDy9FWmY3lTeLoqnY+8ZSUjqLTlhApKSntjgA5mLo3xuBYgZCXVNoYwSfLxvwOzz+fq1lrWje6vTr1+66WpYC9zUO2F3ZRoVNdgLeCwRCpgLEbI9B1yrHaVZhJ2paB/ol+3IyDMc1iCWonJChU5BLsR6zMrdeEt3YnC6NvFfG73dhDTGPM8fi8Gol9URnHWhhX99mY24Qy7Cxsc7h5gBvFfUZUUwOtURFdQxlGbg7UQuna2SMrJeUSOdHtkyHGh4GZforTQxgloJT1AGjJI0NwjcfRepmHHz2qjU1XkR8m2b+C0elRMnmfSEU2cW395+dtbICKw+LjVY62wuszNgjoU8a68xQ2yTfEWKWXctTF5Y4xYPZheXYNCT0E5yW2NeBougeyDI4V7FjeCSTXTEFXEXoHe2m0TsUC0YlJKVasCTjGITowLL1Y5qjUKRN/SkpnkCptUlJSLo5EueJCYSLH+P1hIrcSKznOT+haj4tLuB/x+U++qLmAX7VwmggwGnbX9tlfKuFomyTx9Aof5kSOAiOgnYiZe9O25Ge7KmnOQmzuBb/bJiM257oX1VU+iS9DeBix8WLThiG0u/IhtjAWbwzQM9BlPcSMTT5Zr446S9umjKKyF7D+fAu2YXN+l8Pdss1/ZKR5TiCxibuLN4Zwxkln55QvPWcOlwq6RoTpexNINiKS0I5NTdwf7ZNrUEbwKhke/P1j2MauQ69CiZ4cQ8HgeC99Q70EuhIX+LaeIvXL4pMYtNF4kc/W7A5bS3vXKhlx5SgijGxy6ealtRPi+64Mji9UCzy9VBbj0/+8vbbLxuImbuTh4MVzgTTtKqIU4ip6hrrI9r1EO9oFAYowNDVAKAFIHBJm6mQfqTddxVckSUYcaDYXNol29MliEu0uB6SktDGpWJiSknLxCFCAifujuD0KMHGcfiuztaC0gxt6PPvkBcE8V1tF6ngTK7CxtEl5K8Q1LuclIDaxtamGxu9yGb0xYl2kO2nENdjFxWiBvmIe47QiRNeuixKFqcD24h6VbTpDUFPQM5ph5MYwkYSxYCpVhU1j7ozkTE21skt0oFl7tgkLsL1YIjo0sWcWTa6dTUKMa5i4Mw75Y4fpNGVfSsplESs96IWpe+N09WcIKGNovdqQMpA13Sw/Xmfh4XrN2HCJNLRNwOuBkcmiVYZDnMvGKvpNXaTK8X0YDK72OdoImP18vhYiZUzDdzoOA0eHZXRkNWjmpVb3BkmUNi89x5qGH/V/3ljcZH/jADdyEaPAtOpjKyhP6B/LQy+dM4bX4tKgG4Zn7DyoiRA0YmqGmdM2tY+RoLRie2mXg5XDWHY74xqnpKS8FJ20hEhJSekUBOiC4btF8mP5OJmdqWVubRonAso47CzsMffZ8tVXIUiOoyHcg5UXa1SOIpS4YFRdlP15gqVBi6ZroIv8sF8bbTtBeIOqoJnph6HxAqGUMXJeXptkuWBFN2MEiRz21w7ZWNxqn/Ltp1F/G7tg+t4koV8hiktB1WeWOLlB3W7Kwv7CIauPj9hbOkQ1uNWfvwjRSuN2Odx6+2bnuNOnpLwpfBiZKTI43U8kQTynnD9B1D5VKO1ysHXE4394Yr05L9kDQI7/kofJOxPgJb41kDgLSZ3uv96vw+qrFAqH6Ejz5ONnsJN8sd4XsFMmmZj4uu/v7aNDTb3to7mZwL4cX+F3uTVPm5e5BMe/b4AyrM1tUtmrIJHETlytqMMMmgiVgaGJQci9RDveNPUXXcHYTBEnCyGBleEE6zUa5xCq8ymmUeOj2N88YHtxz1ZTPL7/DuueKSntQqq0SUlJuTjqJ2MX8pM9jN0aBQ+soSoxITabtQUHFw4cPv7bz+CQK7GGNhC7nUe7htUXG5hQ4mSElvNlfFs9IpKIoYkBZJjOFFQEyMLw1BDGC2lWCSxR2dQsbi7lrZC1ufU3V163FeqFdg9uvD2N1+fYsIv4z6cLqMd2Ezrszpd4/LPn7K8c4ppMS7lsEAipkC/2MHVnxM7Mra5aUlK+bMQhuF2jitG3hlFZmo5NCcnj5BiFrzM8+ukTWOPq5pe6vDwjN4fJ9PmxMtzUfXxa+G3i62dzuBAq5h8usfb04HqMEQY2VjcIyiGOuFVlVSuqOKu0cfG7fV4m9Yzl2FVODrYDK8/W0UcGZRTKNKYYO9NUIwYtIZken6HJgc5UwMedb+zGMNke2z8NJp7HJImEOntjo6jsR2wu7MSeYNLwcUpKyquRKm1SUlIulrpkdt4QTL0zieoRwjjcpNVJ20SQiXI8//g5RysXXMrz1APW7T+RmCPYXzlka3EHR7vVQJeG5AR1LjQSCycaTYTNtVCcLtryzafl72t3BPBgbGYMySi0mLgMNrVqJw1frl9qCK5xMHuGjcVNorJu//OP89rkxx16RrsICOssiudlm7DnbROcBjz86WMO1wNc8a2P2blCrl12VEyF4vQQToHGZyQVclNSGkmGmT4YuTtErt/HiM2F0qqXiUJwI5et2R02nu1fbW6YeFwdmO6hMJ4nJMnJY0OkVH3Z72ODpmBDMV08ymsVnn70tOYp1Mlo2F3fhUAQ3VpSaYv9npfxyPV21ZQkrzPXGKhsQ2n5EFOp7Uy3VEHRYFRE70AXxfGBWMHR7hNfHYl440DvQJb+wTxhVEFEVed8Y44n6K/fPg4jrgjLz1cJd2nUdHXQpUhJaTdSpU1KSsrFkwjVORi/PULfWA+hBBhMXY6Q81EoPO2zv35oq3y0Zkh9fepdeCuwMb9FafPA5iYxzWx/sYu6ElAGN+syenPECpKdOto6MDiWJ9efbWLNPnZNjEYZZa/hwgb766Wru4evgwDDMHlvnEACjEoUVMkC6gyM4BgHfWDYWdlDH9qqUvUqvnM2RnyYuX/DKvhSRU1KyvkIkIHhtwYYnOgHR1snAHW+q0USPiTx8xrsaL746CEccLWLSQF/BKbuTqAlIjJRHEZ8vLWnjR9iFTcVj5//1cdEK3T+YrgCqwvrthKfvEyMk40n6+7rpneg5xU8bU4hhI2FbfaXD1HatfnZTM376bxWGTShVBgY7cMbksQxpcVzaS+cbhi5USRSicep1Lylz+hryfPlaJe1uXUOto+sl21KSspr06nLiJSUlHYndgEfmuxlaLoArq3d3SxhZHXSx8HFhyOHpz+ftVU+LlMoPS2uvQKbC5uEpbAuz0Ccu0XONhsZY9Bak+vJMTZjw8Nakvjajbi9fj/0FruJiGJvqVOqIQl114TqeZoItpa32V89aPh7W5K0LQM37k0iGdCiMcqW7JY4bsmccg4CiFHWSqwdxLgk+WzsZ2cf1gBej2cVfFkaw6NSUlJOx4HeSZ/x26M4GQddnwzmFJLFc2I2UEbhBD7PP5+nvKmvSKkcj5EK6LH5s3I9GTRRPIba3FkGhYmrFR3fOnGHyJgc68+3+PhvH9SqLHYiGqJVWJxdwjEq0cO0RpwEKN/fQ3dfrjGnzcuOockxI1ibX6eyGeBEri2cVJVM4sOedSqi0V5IcXqoNpafH0/UXtSfWA8UbxbRfuyGJrULe96lFWNLf++u7bG5uGnz2dVbL9K5LSXllUiVNikpKZeHgFOEsbtFvB4XbXRLrsLV4CMjOIHDwoMVSnPh2dbEixaI4uNEu7D4ZMW6bB8TvM4UKuMy0aGE9A33kB/Kde5Imwhahbj8pwrtwuiM7zaIcsZ6VSmtONwus7dYgspVNPo1iV3DZ+5Pk+vLEFAhEVhbkzXjpJVaY3RSKjUJrTrtYAYjmvxwD4Xx3hb6SirxpqQA1oshD1P3JsgUXCLCE8vJ09aJideAMi5O6LE+u8n8g8UrCpGKW5N4ot4ZY2Cmn0BsCAo4NtErQJLAv67d1ZxhBhztokvC3/3pR7BK54Tg1rcxHhrXZnfYXdrHMQ5oTWs3wyb7F1/TP9JHptd79eHRxEczEJS0Dek9Ake5sTGi1tzaz8aLbbBKG7IwdjM21nQiBjsP+dA/1oebVZi4iMTJK1FP7eK7eAT7EfNPlmrzfrv3y5SUNqdTlxIpKSmdgAG6YOzuMPliT3XBbz1sz8/yQWxn9IxHabliy5tWOLn2NQ2bXBwaDrZC1ua3cLUPGrSB5m4QgsJBOxFDU4N4+RY2aVeSNudg9PYo2jNE0riQaPiyqVseiSBGobRHZTdka27XhiB0guSmID+ZYXRmmIopW9+wptmE6zEIGkyE0RFaR2h9vOPGQrCAdjTDM0NkR+jMfpKS8iaIQ6TG74ySH+/CODbb+WnZtqBxoS2x0sbTGY62Krz4dD4en66ARBnuQt+Ey+S7Y5gsGKNAnHiC1HYMqWt1I4LSDr7Osvj5Gp/+7Wyt/Pcb5bQEJuckMzHAITz62TPMnuDiIJiawrvJcTQBqksoTg7i9L5Gm+siYA82D1hf2sQEEv/J3gerlDkugiRtFIwYQtH4eY/iZNF6/SRzfyeN60lbHegb7qGn0I3ExijLafezUT2qtINUHBafLzf2y05QKqaktCmp0iYlJeXyiAXTgZv9DE4NgmcwysRx0adLMYlPQhyEhDIKXdI8/eQ50W4Lx7sIDBDC+sIGpfUSvvjVnTeXNwwajfYiijc6rOTnacSeJyPTRdysEwuw0vBxM5k0OAzZXtxF70HTrLztQg/cemcG7QQYE9nkixd6AFtrS4tGPBidGYZeOku4T0l50yjomhAGbxUgo5uG35pjPwUHfQTzD5aprB778LKoj7EZgImvDNM15NsQKXT1+NU8IufsyjUeatfh7//kI/ZehBwbnt8A0uTV+BYNB0sBn//9Q/woh8JtVP6feRT7LxJN12DOJvzPNd3snDbH3rMRlNaO2F7dA209n6QacwVnR+Al43lEfjhPdvBV29IG1Clt8sPdFEb6iIhotUIb2NBDFTmszq5xtKo7Y85PSWlzUqVNSkrK5ZDIXQ5kRqwLu9ftEIkGOX/osRYtKwSJUXiBy/KTZdZebF3q5N+w6xBmH72gshfgmJer22nQuN0O/eN9kLnQJr4ZlC373dPXRRglWQUbFTfnEgjbizvsbpRsfHs7I9iZMQO33rmBk4NLa7QYIkIyvRnGbo7YvtKpgn5KypuiDybeGcPrcateEWdR87pJ5hdBhS7b87ssPVutPerHPQMubN5pzPlFBkbuDzJxZxTjRBiiWE1zPBzldBzj0K17Wfl8jX/44Sewf5FtvWAalFHxmwp88dOHrM9ukqMbMapWWroFxQ2OYWCiwNBkfy133OtQhu3FffY3D+LcZE5TeaXaQcQqbUani1A4/nmHEc+DXi8MjBXA1Ta/W4s2F0HhGpfd1T22F3cao93SOS4l5ZVIlTYpKSmXTxdMvzOBN+QQStB0zhZMnDPGuuSqyGN39YCFB3F89IUL0slxqbn6HMLys1VMoBBeQmkTZ53tLmTpG+2xlaM6VUipE7KyAzA00k+gj0B07QOaLZEEpV12V0rsrOxBcO4G7YOC4eleuge6qOik8hm8XuMbO61oISKgd7iLgfELWnSkpHwZqF8A+jB1f4L8aA8VKdu8Iqcg1f9rmW+M0ahIcbQW8OLzeXTplGNcKNL41oGecY87X7+J3yeEplwNyTFolBKUEuTUccGei6sd9K7h0x9+wepn+7ZaTzuGo8ThR9V89Roqc/DxX36OKQkOLqLrv3B2w20oUoR0wdDtfjJFef2xU4BD2J7fpbIb4Ik51cUAACAASURBVOCgRFAIZ9wAu5HYMFcjGtyI4o2hmtdPVQHVoeRgaGIQfIMmij2NmvvXJiHUld3QKkODq2luSsp1JlXapKSkXC5xiFRxppvCdN6GSLWUHyR2DjcOyrgEuyHzny/B1in7v8iY8VhWDNdgdW4dz8mi5Pw6oo3VhJLEsr30FLs4W9/TLpL0OdS78Wdh6vY4xo2oZWEWDOcXQbcBCB5H2wHrC1udkYwYQIGMwdjtMYwydX7xr9bRkitVf0kF0G7E8MwQvUN+5+Y+Skm5So6n0lDQN5Vl/K0xAqdyptKmfpP6XxzjICWHhQeL7Czvxd42pnFuuaznUoA83PvwNuP3R9BuaL2FjMEYEJG6RXIjBjssKa3wgwxbj/f42z/+O3YWDhoVN9B+040GSvCLv/qUxU/W8MIMomtqtST571mXXmOIlKZrqIuJd8ag74wvvgwGohLsLu4THeo6vZHtCyerBsbeUCbx29J4WYfx26O10uPSsPvOQoAcDE8V8Xs8ooba3a1cbEEFDi8ezHV2dbOUlDYhVdqkpKRcDvUreQEZhsn7I4j3Mm4ysadGnHdg4+kmWwsHVqi+DEG6zjq5tVRiZ2UXxzR3Uq8vqBRJSOQE9I/04feq2ijb6YvxLEzemyD0Kuiqr3Nr5VZcHPShYXVujXCvpU3ePAL0wMS9MfAMWsWVS1/5PjZ2WGuANUjGULzRj/SRzsgpKa0gp/zshbfeu4nTA1pOD2dM8qTVp1IXBEc8VOCwOb/NzotEaXNFA3Zs1MjMwNSH46g+RSgaHAdpYixIVByC4GoPr+Tx6K+f8umfPoQdrn6cbZaDuL49ESx+ss7P/uxjnF0P32QaMvzaxLdgkzGfLItl0BjXMHxziNG3i7XQ0lr828udvwETws7aIZvzm7FniImVZxo5z9kmPqg2mt5CL+MzQ50/3yc4kB/soauQRUuiCWx+YQVBjODrDCvP1to7bC8lpUNIRcSUlJTL4bjQkoWbX5km1+9jVNRQRtNyXLKrSWDGGFTosLtYYv7h4uWG2MS6iIUnSwT7EQr1UsfSRIhvrVOqK/7jma7tHULsxj98s4jX5xKZ6OV0ZlqgAuuLm5T3gvYX3uryMc28M43f41nrvVLnSe4t7LauT2MVQLlClsJkHrJ0VJdISXmjyLH3Psy8O0p+tCdW2pysIpVQr3jVxiDahnDurx0w9+ki1CW8v7Khqhfe+d5dJt4eJXDKRGgbdtPEZGAjcARlHLzQp7Ic8Hf/90d88aOndqHcbjnEDBBC6UnIX/6ff8PKg3X8IIvSqvrxyfNNRs64mpMxRBLi9Snuf/MO2UllPWFes2miYW9tn52VPZRWNvm80dYz2Jzdn5IMSSGBnfcTBfyxDTpueI/nwO7+rjgZcdjUgFWPQuHhs72yy9LTy81HeDHUa/xSUtqPVGmTkpJyeSQhJfHkP3ZnkOEbg5Q5QByDEhA5q4xkTcQRwFcZ9K5i4dES5e3wZOnvC2lv/DqAZ1+8QEIXUC81hWvRZHp9ihPF67EQT9qvoLsodA91Y8SglEJJLEQ3OUdlFI5x2VrZZnN5uzPy2gjgwdBEgcHxAoEu2yXDa7Zb6v43aPLFPANTg7WE1Z3eX66IdkrVcTbm0vJvpZzEGYXJt8cI3QijJA4tOnnp6+0FiQ5WGSHY06w93aa8eYU3q25+zM0IX/v1d8kMKrRY5bY2rXUdg4BRZMIugucRf/V//Jgnf/UC9mh0iLzMUzseTlav2U9+BrA/e8Rf/dsfM/e3K3iHWZRxsNmHT8ZzmepOVHU3SgTtRQzf7efuN2fs2KlOhr21PJbW5bHbWtqmvB3i4jf0E6Pt6/TTFkATqCPGbo00VrE6nluo08YBB3IFYXC0AMoqr1o7B2MNc8ahXAp4/uBF+ykQG5BYXG2mJu0gjj9Ondj/UhpIlTYpKSmXiDS8VQPw1ldvob04bv+EufS4pJc4tAOREB1oFh8vszW3c0wAuMCZyAB7sPhkCZ8sIgo5R/o73uoITXd/N/mhXptY9jqQnH4RhieLRBJ7SiU+400vv00IsL9RYmshVtp0gnJCIFOAkVvDhO7xJBGvtVsbGuXC4PgAucFMms/mWnLshqaC8+WhgF64+8FbSFbQyi4aTQveKhbBCV02nm2zOrteTXh/ZY+kArrh3vcmeetbNwj9ci0cJcmrEr9q802SS6XuHLSHF+RY+WyLP/nXP+KLP38Ka5zMcXPZHO/rGjiCnYeH/MX//jf85I9/jux6ZOhCOD0MLDnbeh8XjSZQFfx+xVd+7S7+TairyP1qbYwJ92Dp+TLRkcE9o01n7cAIqC7hxr3J6zXvC9AF+ZFe3JxqMR9hjIl9o0Jh/tECHNKWY1+jfq/zJ+HqJT5LvE7pWFKlTUpKytUgQAbuvHebbMFHV81Y9Z41CtOweq0XUgWlFTvL+2w827GJ7S5SAKhrztLsJrur+/jGx0Q6VjCdf2rV3Yihf3iA7v6uVxcm25H4/o1Oj6CVplac9jyVVrKpvYNRSbMzv2OFt+SStqEQVyXOlTF+dxSy1lX+YrClYVVWMTw1SPYikmh+yTj9crWSVOOqXnUNTe/t5ZJcYxemvzJB30ieignQkihrWrsJrnYpLR+w9HgFDjjpJXGZJM4kY/DN3/0aAzcKBLHmqC6gsvqqnU1d4wQQBdohV+5j99OAP/vXP+LH/+6n7DzZs3Nma2nImnPeNTn+9wjMFsz9dJU//V9/xCf/z1PczRyZqAvH+PbEz3XXrKmmtGgCt8ytr9/g/vduWa+Wi0BDeTdibX4DCW3VytYwIFZBmOn1bBXA8/Q9nTYWxPN+fqyHTG8mDmtvpQNJ9Z9jHJaeLFvlYZvO98lIYc+u7t63aXubcfpd6tCTSamSKm1SUlKuhtgFPH/Lo3hrkIoE6BOy9DEBVRKBCGw6YpejzQorX6zDNhcrTCftiODFg0WCUoSDddtutdqVwYBv6B/P09Uv12+EVTA+M4rKKqI4b0TjAuJsRAQVuKw8WSdIkmS2uwwR58oYutFPV38Wg3mdlDYNRIT4fS7FqSHopvOE+Suh3o+gpV7WRq/qKZzs5+m9fn3qr2vyXkFmFN56f4aylKoJiWv17c4fdBzxCEuG2QfzlNaDmmL5KhVvHhS/kee7/8W3oD+gQtl6DKGsQkZUnedQoumxjbPTpVU4uMbFD312nh7yw3/zY/6///mHPPqzeY5mtVWa14bv0y9Js7G52TUxWO+eTdj95JC/+7e/4D/+T3/J5//pCc6+R5YuxEgc/3X+wRKzgBZNoMr0TGb4zh98G29Cvb6HYrJtCLure2yt7IBxEZwWx/pEYtH0DffSNaxOvzadqLxN+oYP+ZHuOBmxfgnFDbb6p/bYXd1ne+Xo0ud9gab96TRMvLFp+MMp7zuAs51qOq0DphznzGK0KSkpKRdG/bprCG594ybPfrJMRgzOCecFc8Y7QWkHOVSsPtxkd/mI/Fj2fKvWq7TzEOYeLaJCB9HCiXzJ520uBjen6B3uboxrvy4IjN0Ypasvy9FBiCuuVWo12cxgFxSe9tma32V/s0T/ze72DgkSbMNd6J/I0z+SZ+vFUV0OptcjUhE9xW4Gx/uvjzv9BXPC+K6kob9U33aKUN2ufb3TMMd+SUI041COd3/pLn/3Jz9B74VW8S5xKJFJvnQ6SitM4LL8bIXN+S26p4YxDhemqG1KooPJw70fTLL0/Gv89N9/QnioUbHbpoiQ1L8SkyzNdMMuADCCY1y6g37CtYBnf77C2sMfMvb1Ine/fZOJ+0X6Rvpwu5SdQ+svTcOi99jJN1NAao0O4HDniI2nWzz9ySwLP19h6dMNzFaG7nAAFxcl2HbX7e/Mxzgue54our/zT77NwDdy4J9y/Jeh3qG3ApsLW+xvHpAjh6CQ2C3pVJ2WEF9/+w0tEcXJMRis22+nP+/JHOhAdsCjZzDHrhwCynoinTP3J0pF62njcrAXsfhsmcKHMxcrs7WIxP+dps9p1P1KnHiamuDSoM3pABpcv+O+Gr/v+D75JSdV2qSkpFw+yeQfu9re++AOf93390RrZRS+FURN1V6IFYOswsQks22Mo13WX2yy/HyN/DtTsXLkgmYiDazD8pNVHO0gpjWtggG0mGoS4r6xHpuE+DoRLyh6B136inn2F1fIVH3Tm1lKLQqXvY0SK3Pr9L/XXRPe2lWQiM85VxCGJwfZ/Og5RsNZORiaYaoPgkFcQ2EsT2EkY2fidr0GbxArLwtiFG7oEy078ASiuoJunXLZAhWS7XehjzeyaLlWnHXTY2/OibcL9E/k2fu8gqcydhIxDoI+d6QSo3AQ9lZ2WHm8xtTXhpEMV9vZEj1MEX79n37Azto+n/zwIbmo1yqgEs9GUxtLoP693Ul1zDU27IuyZvdpic2lbWY/mmf41hAz96eYvjfJ4GSB3ICPUyBWIJ+mGY057oGgsDnKDiDYgZ2VEkvPl3n+YI6FT5fYnN3B7AlelMXHtzniTNx+cavtNubsLLUGTaRCKtkS3/rBB7z/u3cgf0rbXocj2JjbJjwwOEnSY7FZg5ot2LVEaCdiZKqu9Ph1oToH+hSG+1jytjABiDhoHbakzFAonMBl9sEc7xzOvL6yrWmbBSVivdIaPKUFEXNCcSPYe+0YB6fiUlnS8JjYE7x5+Peb0OecF01o5VHAM/j9gvReVatSLptUaZOScklcp3n7VWmw1yUXxIGB2zluvT3Ng9WneMqLZxhILDO16OI6xU28M8d4lLcDnn8+x+3vTuFclHIklnm3lwN2V/ZwTY7m03W9lcagicj358iPdlvB5LohIN0wOl3kxS8Wqj7F9XfsNJK/O7hUDo+Yf7bE/fDGFTT4AhCgF6bvTPCka5ZgPzg1SWW90fY0Gv4ee2QNTOTtIj4dLM7APv9KFNGB5j/+m7/AywtGwljJq2j/ODtrhT9yD/jO7/0y7/7OnQvzMJO6/79smONhmckcEeeFeev9m/z0wWdorVG48cLMAaPP8J0g9gpQ6H3D3KeLvP+b7+IVuDILdfUwgp0/bsFv//Nf42D3kLmPVlA6E3s4JF86Hr/VeF5J/1BG8MMMrvjo0BAeBMzPr7P003V+NvAJuRGP3vEcA1N99I3m6e3robe3h+7ubnw/g+f5OI5DFEYclY+oVCpUyhX29vbY3t5hd22PvdU99peOKC1XONw8ItiNcA58cpUCrnhIXIWxNk7aNtfsLXYeOXlnbHlvnYm4/6t3+PV/9gGMcbH54gwEe7D8dB0VOLbqmKn5ipzlbZOgReN1uUzcHK+1q9614Rp4OLh5YWh8ACf7gjBIyqCf7HMnMFYZ6mmfleerBNvg5bnUa5IoYZJfTGwRrBoHT1HcYAyOcdhfKfHH/9uf4ORBG5u9+9yqkW/ACcc+/qdfvGQ2DFSZ/Gg3v/pPvsXEN4qpoeCakCptUtoOqXdPhGsx4cG1OIWX5tRzVkAB3v3le3z24y/QgUZVk78kwtEx4bPuV2UUUVkz93CB/ZUj+gayFxdmE8Li82XKeyE+Donz8zlnY9tsrMpGXOgd7CXbf02rAQnQDeMzI4iroaLjHAqni9s1YlHCCCYQlp+vQcnuq+3z/giQg6EbQ+QGsxyV9vFQ1MItTn793CshtgKK1+syeKMAPVy/fnKhCMooOHJY/2wDLRFG7GJVGvy+25dIIva9Hb7xQYUmOc0vjFe5ItLCGqxdOFOhHntzvv3hPT7+Dw+JdiNEO/HCq3kgp8bgBhmWv1hne3GP4mTvlUnKJ5RQPmTfhe//99/hP1T+Ey8+WaLL9KLEQYnCmOScjp+XrczYoNYSiackQbSHc+QQlUNK2xV2Z/dZ8tYRfw7lC27GIZP1yWazuK6H4zgoR6EjTVAJiKKoqrgJKiFhJcJUDCpwcUMPZRxck8E1sbLG6LidNfW+bbpUW5komGpOuaa64C5nDnjrWzf5jf/uu3Ab6w10UfOrsZfraDdgc24LT3tVNY1t9+mPhFQVZ3Y8zxe6GZ4cPv6thh8dR/2J+9A33Iff6xCUynEXq784x/thTaWsjM2xtLW8zdr8BuPTg6cf5wKu0/Flg9R9YI6F4x3fTmkXUzKsJPPMaWGHZxzvyjmjQQbQxlB2DhiYyVP+bqXz3FJTziRV2qS0H9dtYKkb1S/01DrxOiVt9mHmvWm6hrME8yGZeCg631/DolCIdll7scHykzX63pqyQtzrKvfikqTPH7xAAsdaNIWqsHlumwSMMogrDI4W6EpKOF8nEgnIh/7RPrycwpQjpMG02CRMyggqvnelZUN3sQM6sQAe9I3mGZjsZ21+B6Kavfhlu51BY5Smqz9H32Qv+NVgwItv+zVBjMIxCqfSmcl/tISEOsQPc1ci5dcHzbwUV5a85ZJImu/C9P0hhm8MsfCLNVx8WvHISj71TIb9lSOeffqC4vvvXr2kXOeVSg8Uv9XD7+rv8+//lz9m9YsdPMniaaemEKF+iXxSfS5178SAMg4GFw8fow0m1JiyBomz5ShNBW2TIBtbplHEHsvmeonHe5PBJ4uPTX7s4OAaa9JPwopqbTF1M0T8QXXRL9X2J59rAa0CjBty+5dm+N1/8Vvkvor1QLpIhU2stFl5scr+RgkPr6ZkavFZjQgZHB8kVxAri3T4Y3QCAVwoDOfJFTLsrhxU00g139B6RLrGp7JXYmV2lfFfGqzzRL54q+xp7TJnfVD3ZzEKN8rYJN0djBFQjiIT5HC11zGK+JTmXLdlRUpKSicgkLkJI3fGiBwNjo1BFmk+fQt24KpsVVh6sAJ7JIbF18NAuAurs6tkTMZa988tQ1prDyJERLg5h4GxAZxu2j9q41VR0FvstSXNiajVkD3vZAUjVtBXRlFaL7GztHNx5WcvEwEc6BpQDE4OIh7EPt+Jgz/1ne9cLxsTl4/3DANjffSNddXFQ6SkpFwIChiAO+/fJFTl2GsiqUTWRLEs4IhLdKh59sks7HJl3lGnEituBn61i9//w99m9KsDlJ0SmtBOT1X3KFNdIsuxken4y34r3saAMoKDgzIurnHxtIcfefiRT0b7ZHQGP/LI6Aye8XGNh6d9XO3hk8Eng4ePg4PBoI05VeeRXP/aIrnWWvuJBjRaNKFElLOH3PiVcf6zf/mb5N7D5om7yDCP5IJUYOHxIsFhYNtjmldENFUPP412Q0ZmihefZ+dNk1wfhU3IX+yle6CbSDS6Ba+1ar80Nl+MKcPy8xVbvSz5SsqlIZ2uhE85Qaq0SUlJuXriMJv7H9xFMhARkVSIEDlb2BSoljV1Ao9nP5/lcF2/voIktratzm2wtbyNa1ykas47f+IzWKOcFk2mz6N/pK9mDUy+cJ1wID/iUhgtECp9IlH0ecT6D6L9kKUnSzaBZQdcH2OAbhi80U8272PkZF6MVrqgiGBEozLC0NQQmUEPWlBUpqSkvAQK6IKbX50mU3CJCKohdc0wxoA2uMZl7osFtp+XrW76TTykyfTjAt1Q/NVefv8Pf4fb35om7C4TKFsOvOr4Ut3wFUR7U5tbRSuUcVDGwcHFwa29j73elLGeNdYlBlsIKomCOn33ZwTQ1EZSgyGSiMA5wh0yfPCP3+f3/+gH9LzvWIVNvYfNRc0bEXAAi0+WkDB2/jE2Z0uz2d/ExQfEh+GpwVrFyGs6oLt56B7OxYaLVqjdJDEKEwgrs+vozfqPrunFeoOISFVhkypurhep0iYlJeXN4MJbX71B33APgQRVTwzqhKVTrYTGCoZe5LM5u83y02W7+H9dNKy+WKO8X8HBq/OyaSaF2c+10mQHPPpHC41Vka7TnGmolqTtnygQuoJ2FEgzf3VjrZfGWnadwOXFg3ko0xEeSSJAFgan+ujqz8YLwJdvtAEi0TjdLiPTI7WFSEpKysVQF4I7eDPP0Ew/oVOx4avHSsaftQNlFI5WHK4eMf/ZAth8pG9mnEqO6QBdMPjtHL/3P/w2X/vtd8kO+RhHW4OHcjBS82hElB24znidPJXjahUF2Lw5xsTuFrFiR5map87J7V/m1IxVfCSltcVAxjB4q4/v/lff5Lf+xS/hf4VGhU19spKXCGE6owHWw3YV1uc28LSDMlYZIwpE1YxIx5E43sZWjPToG+69nqFRULvGPdAz2oWbFUSfnR/m5Mb2Pinjsrd2wO7aYaP32nWTk94wjRWzUq4TqbiYkpJy9cQyYN9Ehql7EwRU0IaawHneKxY6PXwquyFffPQIjnh9gfoIVp6vYo5s3hV52cB519BdzJEfylxfASS5DTkYmhjE8ZTNx6LUS5yzwsVj+fkyUYPFrc3xID/eQ2Gkz4YA8ApNNwbjaLKDHsMzxbi8bkpKyoUSL+y9YZh5Z8pWlla0oFxOEMQ4UHb47CcPbQjumxqn6qc/BeSg+z3h+3/4Ib/xz3+Z/re7CLsOKXOIlqi6CcaGKZ32Os0wcnoQ1emNMU2/d/5p1CoyWUVNKBUOnRJSjLj1vQn+8R99n2/8N3fhBo1Jh+u9bAxcyERrYGuxxN7qAcrYJMpJcv0WNsVg6B3soW/06hJWvxEEqzSc7MfvctEmovWHwspsEinKWwHLs2s1RWg9HWDASUl5k6RKm5SUlDeDA+Th1rszqKyg0dXI/FZeYhyc0OPZZ3OEq7z2ZG+2YX1uHSoKZTzEvJzSRvlCz3A30vtSm3UesdfJ0PgAua5MNRFmKyddy2vjsLO2a72kOiXpn4Jc0Wd4qojru9aF/iXvswjgaHpGuyiMetXysKmcmpJygSQL/DzMvDtDT183kY7iuaO1HQgOvs4x/3CZjeelNzhOmYYfyfjLDXj7v5ziD/7V9/n2732Doel+lG+r2jmJyeEMR5tkNy+nsKnPnFNT3Bih+mpGorCR+MtGrNLG7/GZ/Mo4/+i//Q6/8z/+OqPf74UiVglyfL+Ju+1FYIAAFh4vEewZlPER49pUy00OYeJx2wgURgvkhuRarqiqurFYaZgf7iHXm2kpP5SlFqajtELvCysvVqFyaU1OSbm2XMMhJuVNk4RYv+yKpmaBiUt+10enXJNVTTLJn0VVqKmz89QS3l2TiwANVsOxe0PkR7uICNFEVpBr8g+Ik9u5bM5us/hg3VpuXiVhZJzPZnftiL2VQyRSGB1hTIgxyU7NmS9j/X5xcy79k4NfjhLOHvQV83QN+ARSIWppMSSxBVPhGJ+wZHj2YK5zuraAk4fi9ABOjyGSoL6OSmt2WQHJQHFmEAYadn29iO9pMnQlSWCNxIu9FhzqrsUruRzVhW0te8fFUzceveT+qwt30/CHzkYBPozOFBmcKRCo8kvuQHCNx8HGIZ//9MEbzL8lJ39N5s8+6P+Vbn7lX77HD/7oe7z9gxncKaGUPeBQlYkSzY2JNxIBUdYzknolTKtqG6rbVZtjpPYCVINqLJZoYk2RHQc0WgIqzgEmX2Hwqz380j99j9/+V7/BV//rGfy7QIbzK0RdRJ6O5DE5gucPXyBaIaJACUbsWdSuW72rT3xOBhANnmZgvABdXMsVVcOVVraCVM9gD8bT6HM1W3EsXV1vcXBRZcXG/BaH20FrNQxeAhOHrMU10NDx68tIdQ3x5Tz9a8t1duZLeWMklRrqfpe6UORzBpFkmNVxDGzHLOhaQaCWvvT0k0oK/ybx4jUx3IDW1y9O1YXCtM/EnWEeP1+wiQzFseff5FQFm3tA78GDnzxi+ntDr176O4SV2XVK62UkUtg7FVErScqZOzWiQYHX49M/3m+TEF+HRc95CHT35+gb6WLx6SpRZAV11crDagQHFyKP2UcLfOfgm3XlP9sYATwoTg3QNeSzv7mP6FrseLMzN2IwyuDkFKO3h23Syi8J1qJuhWptLqLUW/uTGC+MJGuTeOy/tCHczpy6btFsxDT1GEi+B9fwrgh0DSsm7o/y7NMXcNCa0szKK3acUoHLZz/5gu/859+Asctv8pkcvzmC9dRTwBSMDfYx9va3eOfjd3j6swWefTzL5vwOwUGAMlZho8SxD6Fg8/sY4h0YMLpmKHrlxiUCm7W0GQNKCYghMhGaCFHQnc8yfWeUtz64yY0PJ+m948EQVllTn7MGzp7PL6izBlsw/2wRVzxsyXOqz+nZpgg71wVEeF0uw9ODVmlzXns7HIPVlfUMZCiM9jHvreFE2Cqbp30/Nr6JWIWeMVhvm9Bha2mH7ZV9cqP9SeokLuTCSbyGEINWNode0t/PzJB9zahWlJP43Ov78DXtm18mUqVNysUiEElIhTJKjtBiV9GJRSe2UZy6qRU5IypSIVJh48TdyQNNfB6BDqhwiCMOWp2VzEKqCe4Qe90io4kIUaIxKpmArqrxl4wCBuHGVyZ48tezlEtlXHxqZvrTqH2gRRPpiE9/8RnfWfsmuW73lUY1HcDi/BIHpUMEzwq3ifhWPdzpDdISgaMZKOQpjPQ2Wtuu2yRZZ0DN9gmF8R4C55BKuA+YMw2gSVBbVR0pQmhC5maXCDbBK1xN81vmNI8DAVwYmOgjN+pReXqAqiS5fBLx/uybbdBEEtJTyDI2M3KyEsp16if1CBgiQl0h4Agl6qW9MDuSOseViJCACkZFrbkyvMKxIgkJqRBSJkoW4rR2LI2ds0MJG9fdnY4AeRi9O4RfcCiXjuC8bFSSqNZijzBjiEzA/ON5Vp/tMDzSdzn373VIvG66gbdgYryXiW/e5yuzb/HoZ0958vMnrD5d5WgrgLLgRA6u4+EoF6Nje3ysXTS69VDXGqbhnYlLkBsMEREVHYFnkG5D72gXN9+d5u77dxh/u4g/ARSwxpYkef9VeqtoWHi+zObaOo5kKcsRGFXT2tT3k/pLEn9ekTKFfB+FkT6rcLrGSPJfFgqjeUKvTFhWaHW6e3NibLQVQa2XlTa2VPjW9hEbSxuMvddfk2cvwHvKEK8/TJmAozoLcXPDynUqsqSBsilTER9dH9d5jc7xy4qYa2e6T3ljIJFZyQAAB1dJREFUGCCE6DF8/OcPye0XcHCrY7IVhc6TeOw0X/J2mXhvhOIvd1tBJKFTBxwNHMHSj7dY/9k2magLpc/OQBo7Ejf45GiJiHIBM785Ttc9VWed6HA0EELwEOZ/tEplL8IxzbKz1vqQEU3gVKh0H3D/B7fITqvT4+DPw4A+gqW/3mbnkwOcioejXVrVjGmJ0E5I9obLzD8qQj8Yh0bX1E7tu8dJzkcD+7D70REvfr78/7d3d71xVAcYgN8ZO7YT44SQRFBoiIBCL+gNUquqUrms1J/NDeUHpFdAIYCAJEoTYuJ1HHt3ejE7eLzaOP5Y12fXzyNZ/pC1O3PO2TNz3jkzJ2s7G+MLWdN3tEqTutmfcZeqzk69kxevb+WTf/4heSdltedp9db97Uny0xeP8+TLX7O6c6X3j4eP5kYZZbQ8zMrbdd7/x6329qhuoLJo7aRvmORB8tVnPybfraSuupvKFlvbztuj36ga5delp/nwb3ey8Zfl2T+Aejt5/u/ky3/dy5XnG6lSJwdmux5uVA0zWN7MR39/P1c+qdo+tN7fj7msre6kYzdpvk+++fxhcr+9IFC95LS36YU23Whyr97JYG0zf/z0g6z/6dLxjy9naVq/0WVSO0kGSR4lmz8M8+CrR/n27r3c/+5+Nv/7LDuD3Yx2Mz4XGRfWeEWgum4fttWNefdfvsqBOdTVwcHw+OanpB6mXqmy9tpqbrz1Ru589G7ufPz73PjgalZvJ9lI+1ye7jao7kUOlOv4D2fVAJskw+SXu4N889kPWd+7lnq00j5vp9m/1Pjbnk+O6pvkxdJOrtxay7ufXk/9XvYDtEXU+zwN7o7y7Rc/Zmn7UpZH06fJ7l+qHf/etKu37WWYF9cGefvPt3Lz49fadjB5IfK49d1t2+Pk3ucPs/mf7Vze3ZiYcNIcmsws1FC4qrK7/DyX3qhy+69vZu3DenFXNrtghDbMTtdx7qR9yNhJH9xXp+1g+ss8zrMm4+g7bblMXMA5ku4cci0HV1OYZ/2LILtpy+e4S/J05VKnPQHsposf90Jhk3YFqtPUz3JvG/qD8Xmvp75+ueylLa/dnOxZQt30/tXMxy1l3b7vpW2rJ3mGUtdOVsbfF7Wd9I2D2d/aykXUtfVLaet+1gO7Ydqy3U1b1pPvnbziMvP4ayX7n8VFGHx2x96u/U2WzVF0ZdEvm5I/q/3j6mj8NUzbZ20l2Uye/vwiP3/9ID99/SAPv3+UXx4/zfPB82xvDTLaHaUZVmlG7YC3GjWpe6H0qBmOZ/xWqZfrNEvJyupK1i6vZv3qet5851Zu3bmRG7ev5633bmb9d8vJ1bS3D02uBNW1sfMoz3Fok920beMkywF2+9Cdl5XeNk6rOzfq+vJpK0C9Sv+4P3kM7P/PcbcrOd2xedHM2/kVRyK0Ybb6A97+9+N2GK++cD0/uv3vTqCO8v/J9Fsn+oHEvJdNM/HzaXqi09xK12+n57UN82KyfE5aZv2L2fNUZrNoK/O2z7PQ5PSfr3nXr/NZ1/u04+5xneX2naeLWjbT9rULcobZD7I20y5pvpUMBsmzp1t58mgz28+2U41GafZGyd6ovX2qqlItVamX2u+XN67k9ZvXc/X6WlbW04Yz19LOkK6zP2NrMqSZ3MbzLNOT9k3987KL0Kf39/ckAVe/rs+qvKbV5SJfEHmVXlmX8FHj9IQ2zN6sWtQi9S6nKZNpB51FKZtZ9z4nLZdZbsfkLTWLUlfJuJya8T5VF/OzPtN9PuNbAErhLGPfWdXzRfwsHsVZ9e2le1lo0/95MoTublPpVso6bHDen9XaD2UmB+Pd4+H6f+ubNhPs/13Os2gj89Q2jmvaiP80F2v6r3UW9e54c9C4XBf9NOMiENpA6RY9Iu/v33meuPW35bzev3SnPepPm0XW/53FddHONLTpchyn31qUPmnasawZF8Tkvk2WT7fA27QZKP1Zkn2H3U7X9N7gsIsai1L2i2YW9fKy11DncGRCGwAAoHXcZ8sBcKYs+Q0AALQEMQBFWYT1AQAAAAAWjtAGAAAAoEBCGwAAAIACCW0AAAAACiS0AQAAACiQ0AYAAACgQEIbAAAAgAIJbQAAAAAKJLQBAAAAKJDQBgAAAKBAQhsAAACAAgltAAAAAAoktAEAAAAokNAGAAAAoEBCGwAAAIACCW0AAAAACiS0AQAAACiQ0AYAAACgQEIbAAAAgAIJbQAAAAAKJLQBAAAAKJDQBgAAAKBAQhsAAACAAgltAAAAAAoktAEAAAAokNAGAAAAoEBCGwAAAIACCW0AAAAACiS0AQAAACiQ0AYAAACgQEIbAAAAgAIJbQAAAAAKJLQBAAAAKJDQBgAAAKBAQhsAAACAAgltAAAAAAoktAEAAAAokNAGAAAAoEBCGwAAAIACCW0AAAAACiS0AQAAACiQ0AYAAACgQEIbAAAAgAIJbQAAAAAKJLQBAAAAKJDQBgAAAKBAQhsAAACAAgltAAAAAAoktAEAAAAo0P8A6B94GdG357UAAAAASUVORK5CYII=;" vertex="1" parent="1">
          <mxGeometry y="10" width="1133" height="551" as="geometry" />
        </mxCell>
      </root>
    </mxGraphModel>
  </diagram>
</mxfile>
